G04 #@! TF.FileFunction,Copper,L1,Top,Signal*
%FSLAX46Y46*%
G04 Gerber Fmt 4.6, Leading zero omitted, Abs format (unit mm)*
G04 Created by KiCad (PCBNEW (2015-05-03 BZR 5637)-product) date 2015 September 30, Wednesday 19:29:07*
%MOMM*%
G01*
G04 APERTURE LIST*
%ADD10C,0.100000*%
%ADD11R,0.650000X1.060000*%
%ADD12C,0.600000*%
%ADD13R,1.651000X1.651000*%
%ADD14C,1.651000*%
%ADD15R,0.762000X0.889000*%
%ADD16C,3.216000*%
%ADD17R,1.100000X1.000000*%
%ADD18R,0.700000X0.900000*%
%ADD19R,1.000000X1.100000*%
%ADD20R,3.700000X1.200000*%
%ADD21R,1.016000X1.143000*%
%ADD22C,0.250000*%
%ADD23C,0.025400*%
G04 APERTURE END LIST*
D10*
D11*
X149794000Y-105326000D03*
X148844000Y-105326000D03*
X147894000Y-105326000D03*
X147894000Y-107526000D03*
X149794000Y-107526000D03*
D12*
X151638000Y-112014000D03*
X150622000Y-112014000D03*
X140335000Y-111506000D03*
X149606000Y-112014000D03*
X149860000Y-106426000D03*
X147828000Y-106426000D03*
X148844000Y-106426000D03*
X139573000Y-101600000D03*
D13*
X157226000Y-98044000D03*
D14*
X159766000Y-98044000D03*
D15*
X140970000Y-99568000D03*
X142494000Y-99568000D03*
D16*
X142405100Y-105003600D03*
X155105100Y-105003600D03*
D17*
X147740000Y-110744000D03*
X149440000Y-110744000D03*
D18*
X147940000Y-109220000D03*
X149240000Y-109220000D03*
D19*
X149352000Y-100496000D03*
X149352000Y-102196000D03*
X151130000Y-100496000D03*
X151130000Y-102196000D03*
D20*
X146304000Y-103600000D03*
X146304000Y-99600000D03*
D21*
X142494000Y-108458000D03*
X143383000Y-110490000D03*
X141605000Y-110490000D03*
D19*
X159766000Y-104052000D03*
X159766000Y-105752000D03*
X153924000Y-108624000D03*
X153924000Y-110324000D03*
X151892000Y-108624000D03*
X151892000Y-110324000D03*
D12*
X140335000Y-110490000D03*
D17*
X142582000Y-101600000D03*
X140882000Y-101600000D03*
D14*
X154686000Y-112268000D03*
X157226000Y-112268000D03*
X159766000Y-112268000D03*
D22*
X142405100Y-108369100D02*
X142494000Y-108458000D01*
X142405100Y-105003600D02*
X142405100Y-108369100D01*
X151892000Y-110324000D02*
X150964000Y-110324000D01*
X150964000Y-110324000D02*
X150622000Y-109982000D01*
X141605000Y-110490000D02*
X140335000Y-110490000D01*
X140335000Y-110490000D02*
X140335000Y-111563998D01*
X140335000Y-111563998D02*
X140335000Y-111506000D01*
X140882000Y-101600000D02*
X139700000Y-101600000D01*
X149240000Y-109220000D02*
X149240000Y-110544000D01*
X149240000Y-110544000D02*
X149440000Y-110744000D01*
X149440000Y-110744000D02*
X151472000Y-110744000D01*
X151472000Y-110744000D02*
X151892000Y-110324000D01*
X151130000Y-102196000D02*
X152297500Y-102196000D01*
X152297500Y-102196000D02*
X155105100Y-105003600D01*
X149352000Y-102196000D02*
X151130000Y-102196000D01*
X148844000Y-105326000D02*
X148844000Y-103632000D01*
X149352000Y-103124000D02*
X149352000Y-102196000D01*
X148844000Y-103632000D02*
X149352000Y-103124000D01*
X147740000Y-110744000D02*
X143637000Y-110744000D01*
X143637000Y-110744000D02*
X143383000Y-110490000D01*
X147940000Y-109220000D02*
X147940000Y-110544000D01*
X147940000Y-110544000D02*
X147740000Y-110744000D01*
X147894000Y-107526000D02*
X147894000Y-109174000D01*
X147894000Y-109174000D02*
X147940000Y-109220000D01*
X140970000Y-99568000D02*
X138684000Y-99568000D01*
X143383000Y-111760000D02*
X143383000Y-110490000D01*
X143002000Y-112522000D02*
X143383000Y-111760000D01*
X138557000Y-112522000D02*
X143002000Y-112522000D01*
X138176000Y-112014000D02*
X138557000Y-112522000D01*
X138176000Y-100584000D02*
X138176000Y-112014000D01*
X138684000Y-99568000D02*
X138176000Y-100584000D01*
X157226000Y-98044000D02*
X157226000Y-101512000D01*
X157226000Y-101512000D02*
X159766000Y-104052000D01*
X151130000Y-100496000D02*
X156298000Y-100496000D01*
X157226000Y-99568000D02*
X157226000Y-98044000D01*
X156298000Y-100496000D02*
X157226000Y-99568000D01*
X149352000Y-100496000D02*
X151130000Y-100496000D01*
X146304000Y-99600000D02*
X148456000Y-99600000D01*
X148456000Y-99600000D02*
X149352000Y-100496000D01*
X146304000Y-103600000D02*
X146304000Y-103736000D01*
X146304000Y-103736000D02*
X147894000Y-105326000D01*
X159766000Y-105752000D02*
X159766000Y-106426000D01*
X157568000Y-108624000D02*
X153924000Y-108624000D01*
X159766000Y-106426000D02*
X157568000Y-108624000D01*
X159766000Y-105752000D02*
X159766000Y-112268000D01*
X151892000Y-108624000D02*
X152820000Y-108624000D01*
X152996000Y-110324000D02*
X153924000Y-110324000D01*
X152908000Y-110236000D02*
X152996000Y-110324000D01*
X152908000Y-108712000D02*
X152908000Y-110236000D01*
X152820000Y-108624000D02*
X152908000Y-108712000D01*
X149794000Y-107526000D02*
X150794000Y-107526000D01*
X150794000Y-107526000D02*
X151892000Y-108624000D01*
X153924000Y-110324000D02*
X155282000Y-110324000D01*
X155282000Y-110324000D02*
X157226000Y-112268000D01*
X142494000Y-99568000D02*
X142494000Y-101512000D01*
X142494000Y-101512000D02*
X142582000Y-101600000D01*
X142494000Y-101288000D02*
X142182000Y-101600000D01*
D23*
G36*
X148196300Y-105905300D02*
X148171712Y-105905300D01*
X147950408Y-105813406D01*
X147706661Y-105813193D01*
X147483745Y-105905300D01*
X144538700Y-105905300D01*
X144538700Y-103136700D01*
X148196300Y-103136700D01*
X148196300Y-105905300D01*
X148196300Y-105905300D01*
G37*
X148196300Y-105905300D02*
X148171712Y-105905300D01*
X147950408Y-105813406D01*
X147706661Y-105813193D01*
X147483745Y-105905300D01*
X144538700Y-105905300D01*
X144538700Y-103136700D01*
X148196300Y-103136700D01*
X148196300Y-105905300D01*
G36*
X156705300Y-106548545D02*
X156203896Y-107175300D01*
X151389261Y-107175300D01*
X150761700Y-106547739D01*
X150761700Y-104516767D01*
X150374350Y-104000300D01*
X149085300Y-104000300D01*
X149085300Y-105778300D01*
X148602700Y-105778300D01*
X148602700Y-103632000D01*
X148602700Y-102870000D01*
X148602700Y-101612917D01*
X156079383Y-101739641D01*
X156705300Y-102115191D01*
X156705300Y-106548545D01*
X156705300Y-106548545D01*
G37*
X156705300Y-106548545D02*
X156203896Y-107175300D01*
X151389261Y-107175300D01*
X150761700Y-106547739D01*
X150761700Y-104516767D01*
X150374350Y-104000300D01*
X149085300Y-104000300D01*
X149085300Y-105778300D01*
X148602700Y-105778300D01*
X148602700Y-103632000D01*
X148602700Y-102870000D01*
X148602700Y-101612917D01*
X156079383Y-101739641D01*
X156705300Y-102115191D01*
X156705300Y-106548545D01*
G36*
X157975300Y-100952300D02*
X148475700Y-100952300D01*
X148475700Y-100580155D01*
X148215797Y-100190300D01*
X144538700Y-100190300D01*
X144538700Y-97421581D01*
X157975300Y-97294820D01*
X157975300Y-100952300D01*
X157975300Y-100952300D01*
G37*
X157975300Y-100952300D02*
X148475700Y-100952300D01*
X148475700Y-100580155D01*
X148215797Y-100190300D01*
X144538700Y-100190300D01*
X144538700Y-97421581D01*
X157975300Y-97294820D01*
X157975300Y-100952300D01*
G36*
X143497300Y-108953300D02*
X141490700Y-108953300D01*
X141490700Y-104914700D01*
X143497300Y-104914700D01*
X143497300Y-108953300D01*
X143497300Y-108953300D01*
G37*
X143497300Y-108953300D02*
X141490700Y-108953300D01*
X141490700Y-104914700D01*
X143497300Y-104914700D01*
X143497300Y-108953300D01*
G36*
X142100300Y-112084300D02*
X139788260Y-112084300D01*
X139712700Y-112008739D01*
X139712700Y-110241261D01*
X139959261Y-109994700D01*
X142100300Y-109994700D01*
X142100300Y-112084300D01*
X142100300Y-112084300D01*
G37*
X142100300Y-112084300D02*
X139788260Y-112084300D01*
X139712700Y-112008739D01*
X139712700Y-110241261D01*
X139959261Y-109994700D01*
X142100300Y-109994700D01*
X142100300Y-112084300D01*
G36*
X152387300Y-112770739D02*
X152140739Y-113017300D01*
X149227998Y-113017300D01*
X148983700Y-112895151D01*
X148983700Y-108724700D01*
X150616739Y-108724700D01*
X150863300Y-108971261D01*
X150863300Y-109867700D01*
X152387300Y-109867700D01*
X152387300Y-112770739D01*
X152387300Y-112770739D01*
G37*
X152387300Y-112770739D02*
X152140739Y-113017300D01*
X149227998Y-113017300D01*
X148983700Y-112895151D01*
X148983700Y-108724700D01*
X150616739Y-108724700D01*
X150863300Y-108971261D01*
X150863300Y-109867700D01*
X152387300Y-109867700D01*
X152387300Y-112770739D01*
G36*
X148323300Y-111493300D02*
X142760700Y-111493300D01*
X142760700Y-109994700D01*
X144787849Y-109994700D01*
X145046700Y-109476998D01*
X145046700Y-107445845D01*
X145294797Y-107073700D01*
X147574000Y-107073700D01*
X148196300Y-107073700D01*
X148196300Y-108206998D01*
X148323300Y-108460998D01*
X148323300Y-111493300D01*
X148323300Y-111493300D01*
G37*
X148323300Y-111493300D02*
X142760700Y-111493300D01*
X142760700Y-109994700D01*
X144787849Y-109994700D01*
X145046700Y-109476998D01*
X145046700Y-107445845D01*
X145294797Y-107073700D01*
X147574000Y-107073700D01*
X148196300Y-107073700D01*
X148196300Y-108206998D01*
X148323300Y-108460998D01*
X148323300Y-111493300D01*
M02*
