G04 #@! TF.FileFunction,Legend,Bot*
%FSLAX46Y46*%
G04 Gerber Fmt 4.6, Leading zero omitted, Abs format (unit mm)*
G04 Created by KiCad (PCBNEW (2015-05-03 BZR 5637)-product) date 2015 November 16, Monday 12:16:30*
%MOMM*%
G01*
G04 APERTURE LIST*
%ADD10C,0.100000*%
%ADD11C,0.150000*%
%ADD12C,0.127000*%
%ADD13R,1.651000X1.651000*%
%ADD14C,1.651000*%
%ADD15C,3.216000*%
G04 APERTURE END LIST*
D10*
D11*
X143675100Y-107162600D02*
X144818100Y-105003600D01*
X144818100Y-105003600D02*
X143675100Y-102844600D01*
X141135100Y-107162600D02*
X143675100Y-107162600D01*
X141135100Y-102844600D02*
X143675100Y-102844600D01*
X141135100Y-107162600D02*
X139992100Y-105003600D01*
X139992100Y-105003600D02*
X141135100Y-102844600D01*
X157264100Y-105003600D02*
G75*
G03X157264100Y-105003600I-2159000J0D01*
G01*
X155755100Y-98503600D02*
G75*
G02X160755100Y-103503600I0J-5000000D01*
G01*
X160755100Y-106503600D02*
G75*
G02X155755100Y-111503600I-5000000J0D01*
G01*
X160755100Y-105003600D02*
X160755100Y-106503600D01*
X160755100Y-105003600D02*
X160755100Y-103503600D01*
X148755100Y-111503600D02*
X155755100Y-111503600D01*
X148755100Y-98503600D02*
X155755100Y-98503600D01*
X141005100Y-98503600D02*
X148755100Y-98503600D01*
X136255100Y-103253600D02*
G75*
G02X141005100Y-98503600I4750000J0D01*
G01*
X136255100Y-106503600D02*
X136255100Y-103253600D01*
X141255100Y-111503600D02*
G75*
G02X136255100Y-106503600I0J5000000D01*
G01*
X148755100Y-111503600D02*
X141255100Y-111503600D01*
D12*
X142985671Y-112968314D02*
X143167100Y-112968314D01*
X143167100Y-111879743D01*
X142985671Y-111879743D01*
X142695385Y-112424029D02*
X142114814Y-112424029D01*
X142405100Y-112714314D02*
X142405100Y-112133743D01*
X141824528Y-112968314D02*
X141643099Y-112968314D01*
X141643099Y-111879743D01*
X141824528Y-111879743D01*
%LPC*%
D13*
X157226000Y-98044000D03*
D14*
X159766000Y-98044000D03*
D15*
X142405100Y-105003600D03*
X155105100Y-105003600D03*
D14*
X154686000Y-112268000D03*
X157226000Y-112268000D03*
X159766000Y-112268000D03*
M02*
