G04 #@! TF.FileFunction,Legend,Top*
%FSLAX46Y46*%
G04 Gerber Fmt 4.6, Leading zero omitted, Abs format (unit mm)*
G04 Created by KiCad (PCBNEW (2015-05-03 BZR 5637)-product) date 2015 September 09, Wednesday 10:45:35*
%MOMM*%
G01*
G04 APERTURE LIST*
%ADD10C,0.100000*%
%ADD11C,0.200000*%
%ADD12C,0.050800*%
%ADD13C,0.127000*%
%ADD14C,0.150000*%
%ADD15C,0.203200*%
%ADD16C,0.080000*%
%ADD17C,0.099695*%
%ADD18R,1.651000X1.651000*%
%ADD19C,1.651000*%
%ADD20R,1.100000X1.000000*%
%ADD21R,0.700000X0.900000*%
%ADD22R,1.016000X1.143000*%
%ADD23R,1.000000X1.100000*%
%ADD24R,0.280000X0.850000*%
%ADD25R,2.150000X1.700000*%
%ADD26R,0.700000X0.250000*%
%ADD27R,0.797560X0.797560*%
%ADD28R,0.900000X0.700000*%
%ADD29C,1.016000*%
%ADD30R,3.700000X1.500000*%
%ADD31C,3.216000*%
G04 APERTURE END LIST*
D10*
D11*
X144208548Y-100655429D02*
X144970453Y-100655429D01*
X144589501Y-101036381D02*
X144589501Y-100274476D01*
D12*
X140452929Y-103994857D02*
X140271500Y-103994857D01*
X140253357Y-104176286D01*
X140271500Y-104158143D01*
X140307786Y-104140000D01*
X140398500Y-104140000D01*
X140434786Y-104158143D01*
X140452929Y-104176286D01*
X140471072Y-104212571D01*
X140471072Y-104303286D01*
X140452929Y-104339571D01*
X140434786Y-104357714D01*
X140398500Y-104375857D01*
X140307786Y-104375857D01*
X140271500Y-104357714D01*
X140253357Y-104339571D01*
X140579929Y-103994857D02*
X140706929Y-104375857D01*
X140833929Y-103994857D01*
D11*
X144208548Y-103131929D02*
X144970453Y-103131929D01*
D12*
X140090072Y-99232357D02*
X140325929Y-99232357D01*
X140198929Y-99377500D01*
X140253357Y-99377500D01*
X140289643Y-99395643D01*
X140307786Y-99413786D01*
X140325929Y-99450071D01*
X140325929Y-99540786D01*
X140307786Y-99577071D01*
X140289643Y-99595214D01*
X140253357Y-99613357D01*
X140144500Y-99613357D01*
X140108214Y-99595214D01*
X140090072Y-99577071D01*
X140489214Y-99577071D02*
X140507357Y-99595214D01*
X140489214Y-99613357D01*
X140471071Y-99595214D01*
X140489214Y-99577071D01*
X140489214Y-99613357D01*
X140634358Y-99232357D02*
X140870215Y-99232357D01*
X140743215Y-99377500D01*
X140797643Y-99377500D01*
X140833929Y-99395643D01*
X140852072Y-99413786D01*
X140870215Y-99450071D01*
X140870215Y-99540786D01*
X140852072Y-99577071D01*
X140833929Y-99595214D01*
X140797643Y-99613357D01*
X140688786Y-99613357D01*
X140652500Y-99595214D01*
X140634358Y-99577071D01*
X140979072Y-99232357D02*
X141106072Y-99613357D01*
X141233072Y-99232357D01*
D13*
X139131523Y-114049024D02*
X139071047Y-114079262D01*
X138950095Y-114079262D01*
X138889618Y-114049024D01*
X138859380Y-113988548D01*
X138859380Y-113746643D01*
X138889618Y-113686167D01*
X138950095Y-113655929D01*
X139071047Y-113655929D01*
X139131523Y-113686167D01*
X139161761Y-113746643D01*
X139161761Y-113807119D01*
X138859380Y-113867595D01*
X139524619Y-114079262D02*
X139464143Y-114049024D01*
X139433904Y-113988548D01*
X139433904Y-113444262D01*
X140008428Y-114049024D02*
X139947952Y-114079262D01*
X139827000Y-114079262D01*
X139766523Y-114049024D01*
X139736285Y-113988548D01*
X139736285Y-113746643D01*
X139766523Y-113686167D01*
X139827000Y-113655929D01*
X139947952Y-113655929D01*
X140008428Y-113686167D01*
X140038666Y-113746643D01*
X140038666Y-113807119D01*
X139736285Y-113867595D01*
X140582952Y-114049024D02*
X140522476Y-114079262D01*
X140401524Y-114079262D01*
X140341048Y-114049024D01*
X140310809Y-114018786D01*
X140280571Y-113958310D01*
X140280571Y-113776881D01*
X140310809Y-113716405D01*
X140341048Y-113686167D01*
X140401524Y-113655929D01*
X140522476Y-113655929D01*
X140582952Y-113686167D01*
X140764381Y-113655929D02*
X141006286Y-113655929D01*
X140855095Y-113444262D02*
X140855095Y-113988548D01*
X140885334Y-114049024D01*
X140945810Y-114079262D01*
X141006286Y-114079262D01*
X141217952Y-114079262D02*
X141217952Y-113655929D01*
X141217952Y-113776881D02*
X141248191Y-113716405D01*
X141278429Y-113686167D01*
X141338905Y-113655929D01*
X141399381Y-113655929D01*
X141701762Y-114079262D02*
X141641286Y-114049024D01*
X141611047Y-114018786D01*
X141580809Y-113958310D01*
X141580809Y-113776881D01*
X141611047Y-113716405D01*
X141641286Y-113686167D01*
X141701762Y-113655929D01*
X141792476Y-113655929D01*
X141852952Y-113686167D01*
X141883190Y-113716405D01*
X141913428Y-113776881D01*
X141913428Y-113958310D01*
X141883190Y-114018786D01*
X141852952Y-114049024D01*
X141792476Y-114079262D01*
X141701762Y-114079262D01*
X142185571Y-113655929D02*
X142185571Y-114079262D01*
X142185571Y-113716405D02*
X142215810Y-113686167D01*
X142276286Y-113655929D01*
X142367000Y-113655929D01*
X142427476Y-113686167D01*
X142457714Y-113746643D01*
X142457714Y-114079262D01*
X143032238Y-113655929D02*
X143032238Y-114079262D01*
X142760095Y-113655929D02*
X142760095Y-113988548D01*
X142790334Y-114049024D01*
X142850810Y-114079262D01*
X142941524Y-114079262D01*
X143002000Y-114049024D01*
X143032238Y-114018786D01*
X143243905Y-113655929D02*
X143485810Y-113655929D01*
X143334619Y-113444262D02*
X143334619Y-113988548D01*
X143364858Y-114049024D01*
X143425334Y-114079262D01*
X143485810Y-114079262D01*
X143697476Y-114018786D02*
X143727715Y-114049024D01*
X143697476Y-114079262D01*
X143667238Y-114049024D01*
X143697476Y-114018786D01*
X143697476Y-114079262D01*
X143999857Y-114079262D02*
X143999857Y-113655929D01*
X143999857Y-113444262D02*
X143969619Y-113474500D01*
X143999857Y-113504738D01*
X144030096Y-113474500D01*
X143999857Y-113444262D01*
X143999857Y-113504738D01*
X144302238Y-113655929D02*
X144302238Y-114079262D01*
X144302238Y-113716405D02*
X144332477Y-113686167D01*
X144392953Y-113655929D01*
X144483667Y-113655929D01*
X144544143Y-113686167D01*
X144574381Y-113746643D01*
X144574381Y-114079262D01*
X120763014Y-99825024D02*
X120819711Y-99855262D01*
X120940663Y-99855262D01*
X121004919Y-99825024D01*
X121042716Y-99764548D01*
X121046496Y-99734310D01*
X121023817Y-99673833D01*
X120967121Y-99643595D01*
X120876407Y-99643595D01*
X120819710Y-99613357D01*
X120797031Y-99552881D01*
X120800811Y-99522643D01*
X120838609Y-99462167D01*
X120902865Y-99431929D01*
X120993579Y-99431929D01*
X121050276Y-99462167D01*
X121356436Y-99431929D02*
X121303520Y-99855262D01*
X121348877Y-99492405D02*
X121382896Y-99462167D01*
X121447151Y-99431929D01*
X121537865Y-99431929D01*
X121594562Y-99462167D01*
X121617240Y-99522643D01*
X121575663Y-99855262D01*
X122150187Y-99855262D02*
X122191764Y-99522643D01*
X122169086Y-99462167D01*
X122112389Y-99431929D01*
X121991437Y-99431929D01*
X121927181Y-99462167D01*
X122153967Y-99825024D02*
X122089711Y-99855262D01*
X121938521Y-99855262D01*
X121881824Y-99825024D01*
X121859145Y-99764548D01*
X121866705Y-99704071D01*
X121904502Y-99643595D01*
X121968759Y-99613357D01*
X122119949Y-99613357D01*
X122184205Y-99583119D01*
X122505484Y-99431929D02*
X122426109Y-100066929D01*
X122501705Y-99462167D02*
X122565961Y-99431929D01*
X122686913Y-99431929D01*
X122743610Y-99462167D01*
X122770068Y-99492405D01*
X122792746Y-99552881D01*
X122770068Y-99734310D01*
X122732270Y-99794786D01*
X122698253Y-99825024D01*
X122633997Y-99855262D01*
X122513045Y-99855262D01*
X122456348Y-99825024D01*
X123015753Y-99220262D02*
X123148045Y-99855262D01*
X123439087Y-99220262D01*
X123941795Y-99794786D02*
X123907778Y-99825024D01*
X123813283Y-99855262D01*
X123752807Y-99855262D01*
X123665873Y-99825024D01*
X123612956Y-99764548D01*
X123590277Y-99704071D01*
X123575158Y-99583119D01*
X123586497Y-99492405D01*
X123631854Y-99371452D01*
X123669653Y-99310976D01*
X123737688Y-99250500D01*
X123832182Y-99220262D01*
X123892658Y-99220262D01*
X123979593Y-99250500D01*
X124006051Y-99280738D01*
X124576795Y-99794786D02*
X124542778Y-99825024D01*
X124448283Y-99855262D01*
X124387807Y-99855262D01*
X124300873Y-99825024D01*
X124247956Y-99764548D01*
X124225277Y-99704071D01*
X124210158Y-99583119D01*
X124221497Y-99492405D01*
X124266854Y-99371452D01*
X124304653Y-99310976D01*
X124372688Y-99250500D01*
X124467182Y-99220262D01*
X124527658Y-99220262D01*
X124614593Y-99250500D01*
X124641051Y-99280738D01*
X125657808Y-99855262D02*
X125294950Y-99855262D01*
X125476379Y-99855262D02*
X125555754Y-99220262D01*
X125483939Y-99310976D01*
X125415903Y-99371452D01*
X125351646Y-99401690D01*
X125937509Y-99794786D02*
X125963969Y-99825024D01*
X125929950Y-99855262D01*
X125903492Y-99825024D01*
X125937509Y-99794786D01*
X125929950Y-99855262D01*
X126432659Y-99220262D02*
X126493135Y-99220262D01*
X126549831Y-99250500D01*
X126576289Y-99280738D01*
X126598968Y-99341214D01*
X126614088Y-99462167D01*
X126595189Y-99613357D01*
X126549831Y-99734310D01*
X126512033Y-99794786D01*
X126478016Y-99825024D01*
X126413760Y-99855262D01*
X126353284Y-99855262D01*
X126296588Y-99825024D01*
X126270129Y-99794786D01*
X126247450Y-99734310D01*
X126232331Y-99613357D01*
X126251230Y-99462167D01*
X126296587Y-99341214D01*
X126334385Y-99280738D01*
X126368403Y-99250500D01*
X126432659Y-99220262D01*
X126301500Y-111887000D02*
X126682500Y-111887000D01*
X127952500Y-111506000D02*
X127952500Y-110617000D01*
X127952500Y-110617000D02*
X127190500Y-110617000D01*
X125793500Y-110617000D02*
X125031500Y-110617000D01*
X125031500Y-110617000D02*
X125031500Y-111506000D01*
D14*
G36*
X141325600Y-110553500D02*
X140868400Y-110553500D01*
X140868400Y-111315500D01*
X141325600Y-111315500D01*
X141325600Y-110553500D01*
G37*
X141325600Y-110553500D02*
X140868400Y-110553500D01*
X140868400Y-111315500D01*
X141325600Y-111315500D01*
X141325600Y-110553500D01*
G36*
X134366000Y-101244400D02*
X134366000Y-101701600D01*
X135128000Y-101701600D01*
X135128000Y-101244400D01*
X134366000Y-101244400D01*
G37*
X134366000Y-101244400D02*
X134366000Y-101701600D01*
X135128000Y-101701600D01*
X135128000Y-101244400D01*
X134366000Y-101244400D01*
G36*
X136525000Y-101701600D02*
X136525000Y-101244400D01*
X135763000Y-101244400D01*
X135763000Y-101701600D01*
X136525000Y-101701600D01*
G37*
X136525000Y-101701600D02*
X136525000Y-101244400D01*
X135763000Y-101244400D01*
X135763000Y-101701600D01*
X136525000Y-101701600D01*
G36*
X138557000Y-101244400D02*
X138557000Y-101701600D01*
X139319000Y-101701600D01*
X139319000Y-101244400D01*
X138557000Y-101244400D01*
G37*
X138557000Y-101244400D02*
X138557000Y-101701600D01*
X139319000Y-101701600D01*
X139319000Y-101244400D01*
X138557000Y-101244400D01*
G36*
X142621000Y-107543600D02*
X142621000Y-107086400D01*
X141859000Y-107086400D01*
X141859000Y-107543600D01*
X142621000Y-107543600D01*
G37*
X142621000Y-107543600D02*
X142621000Y-107086400D01*
X141859000Y-107086400D01*
X141859000Y-107543600D01*
X142621000Y-107543600D01*
D15*
X133441500Y-110208000D02*
X133691500Y-109958000D01*
X133540500Y-106959400D02*
X133540500Y-107458000D01*
X136842500Y-106959400D02*
X136842500Y-107458000D01*
X136842500Y-109458000D02*
X136842500Y-109931200D01*
D14*
X144314000Y-108288000D02*
X144314000Y-106388000D01*
X143214000Y-108288000D02*
X143214000Y-106388000D01*
X143764000Y-107388000D02*
X143764000Y-106938000D01*
X143514000Y-107438000D02*
X144014000Y-107438000D01*
X143764000Y-107438000D02*
X143514000Y-107188000D01*
X143514000Y-107188000D02*
X144014000Y-107188000D01*
X144014000Y-107188000D02*
X143764000Y-107438000D01*
X132238500Y-109021500D02*
X132238500Y-108021500D01*
X128238500Y-109021500D02*
X128238500Y-108021500D01*
D10*
G36*
X121372942Y-101703422D02*
X121432761Y-101707473D01*
X121490648Y-101734447D01*
X121521361Y-101761582D01*
X121551038Y-101799455D01*
X121379591Y-101799455D01*
X121340768Y-101814983D01*
X121335397Y-101819730D01*
X121315761Y-101856644D01*
X121315914Y-101899641D01*
X121334965Y-101936585D01*
X121344584Y-101944922D01*
X121389439Y-101964956D01*
X121429781Y-101957593D01*
X121454334Y-101938667D01*
X121478926Y-101897455D01*
X121477365Y-101853547D01*
X121459202Y-101823361D01*
X121423542Y-101802380D01*
X121379591Y-101799455D01*
X121551038Y-101799455D01*
X121551650Y-101800235D01*
X121564867Y-101837750D01*
X121567222Y-101875456D01*
X121555981Y-101946779D01*
X121522308Y-102001045D01*
X121480460Y-102031473D01*
X121440222Y-102052281D01*
X121440222Y-103353713D01*
X121440222Y-104655146D01*
X121651415Y-104775046D01*
X121862607Y-104894945D01*
X121863081Y-105010207D01*
X121864181Y-105066450D01*
X121866678Y-105112959D01*
X121870086Y-105141545D01*
X121871053Y-105145009D01*
X121869617Y-105157602D01*
X121848245Y-105160448D01*
X121828720Y-105158730D01*
X121778889Y-105152913D01*
X121778889Y-105225012D01*
X121778889Y-105297111D01*
X122018778Y-105297111D01*
X122258667Y-105297111D01*
X122258667Y-105227408D01*
X122258667Y-105157704D01*
X122205750Y-105151642D01*
X122152834Y-105145580D01*
X122209278Y-105147262D01*
X122265722Y-105148945D01*
X122269988Y-105223028D01*
X122274253Y-105297111D01*
X122405500Y-105297111D01*
X122536748Y-105297111D01*
X122545874Y-105189149D01*
X122550588Y-105120612D01*
X122553885Y-105048302D01*
X122555000Y-104992977D01*
X122555000Y-104904768D01*
X122765181Y-104783378D01*
X122834805Y-104742197D01*
X122895704Y-104704340D01*
X122943668Y-104672572D01*
X122974484Y-104649659D01*
X122983903Y-104639729D01*
X122985158Y-104622625D01*
X122986358Y-104579333D01*
X122987488Y-104511886D01*
X122988536Y-104422318D01*
X122989489Y-104312661D01*
X122990332Y-104184950D01*
X122991053Y-104041219D01*
X122991638Y-103883500D01*
X122992074Y-103713827D01*
X122992347Y-103534234D01*
X122992445Y-103346755D01*
X122992445Y-103341931D01*
X122992445Y-102066392D01*
X122951357Y-102045145D01*
X122894638Y-102002474D01*
X122860504Y-101946667D01*
X122851334Y-101893730D01*
X122862950Y-101821073D01*
X122896418Y-101765422D01*
X122949662Y-101728814D01*
X123020607Y-101713288D01*
X123035488Y-101712889D01*
X123079014Y-101717501D01*
X123113817Y-101735440D01*
X123141191Y-101760035D01*
X123172351Y-101797605D01*
X123174630Y-101801551D01*
X123025769Y-101801551D01*
X122986317Y-101809037D01*
X122956126Y-101833644D01*
X122940719Y-101869851D01*
X122945620Y-101912135D01*
X122955153Y-101930518D01*
X122989581Y-101960100D01*
X123035089Y-101966325D01*
X123078039Y-101952282D01*
X123100965Y-101926049D01*
X123106853Y-101888052D01*
X123096386Y-101848492D01*
X123070248Y-101817571D01*
X123068962Y-101816708D01*
X123025769Y-101801551D01*
X123174630Y-101801551D01*
X123194352Y-101835694D01*
X123198412Y-101847326D01*
X123199695Y-101903575D01*
X123180846Y-101962058D01*
X123146498Y-102011470D01*
X123123516Y-102030162D01*
X123078198Y-102058611D01*
X123077180Y-103385056D01*
X123076163Y-104711500D01*
X122864970Y-104831399D01*
X122653778Y-104951299D01*
X122653778Y-105057872D01*
X122653778Y-105164444D01*
X122604389Y-105158678D01*
X122555000Y-105152913D01*
X122555000Y-105225012D01*
X122555000Y-105297111D01*
X122605784Y-105297111D01*
X122668495Y-105306751D01*
X122725060Y-105332503D01*
X122766090Y-105369612D01*
X122773975Y-105382266D01*
X122781894Y-105395889D01*
X122218785Y-105395889D01*
X122093437Y-105396025D01*
X121993292Y-105396530D01*
X121915334Y-105397557D01*
X121856545Y-105399253D01*
X121813908Y-105401769D01*
X121784404Y-105405255D01*
X121765017Y-105409860D01*
X121752730Y-105415734D01*
X121748250Y-105419243D01*
X121740989Y-105427495D01*
X121735228Y-105439697D01*
X121732313Y-105452334D01*
X121561354Y-105452334D01*
X121560167Y-105452334D01*
X121515798Y-105453044D01*
X121492704Y-105457703D01*
X121483939Y-105470098D01*
X121482556Y-105494020D01*
X121482556Y-105494667D01*
X121483859Y-105518868D01*
X121492400Y-105531465D01*
X121515125Y-105536246D01*
X121558980Y-105537000D01*
X121560167Y-105537000D01*
X121604536Y-105536289D01*
X121627630Y-105531631D01*
X121636395Y-105519235D01*
X121637778Y-105495314D01*
X121637778Y-105494667D01*
X121636475Y-105470466D01*
X121627934Y-105457869D01*
X121605209Y-105453088D01*
X121561354Y-105452334D01*
X121732313Y-105452334D01*
X121730794Y-105458920D01*
X121727516Y-105488235D01*
X121725222Y-105530713D01*
X121723739Y-105589426D01*
X121722897Y-105667445D01*
X121722523Y-105767841D01*
X121722445Y-105880271D01*
X121722583Y-106004548D01*
X121723102Y-106103648D01*
X121724153Y-106180614D01*
X121725588Y-106228445D01*
X121561354Y-106228445D01*
X121560167Y-106228445D01*
X121515798Y-106229156D01*
X121492704Y-106233814D01*
X121483939Y-106246210D01*
X121482556Y-106270131D01*
X121482556Y-106270778D01*
X121483859Y-106294979D01*
X121492400Y-106307576D01*
X121515125Y-106312357D01*
X121558980Y-106313111D01*
X121560167Y-106313111D01*
X121604536Y-106312401D01*
X121627630Y-106307742D01*
X121636395Y-106295347D01*
X121637778Y-106271425D01*
X121637778Y-106270778D01*
X121636475Y-106246577D01*
X121627934Y-106233980D01*
X121605209Y-106229199D01*
X121561354Y-106228445D01*
X121725588Y-106228445D01*
X121725890Y-106238490D01*
X121728468Y-106280320D01*
X121732038Y-106309149D01*
X121736755Y-106328019D01*
X121742771Y-106339975D01*
X121745798Y-106343750D01*
X121753987Y-106350959D01*
X121766097Y-106356690D01*
X121785172Y-106361113D01*
X121814259Y-106364394D01*
X121856400Y-106366702D01*
X121914640Y-106368204D01*
X121992025Y-106369069D01*
X122091598Y-106369463D01*
X122213882Y-106369556D01*
X122339230Y-106369420D01*
X122439375Y-106368915D01*
X122517333Y-106367888D01*
X122576122Y-106366192D01*
X122618759Y-106363676D01*
X122648263Y-106360190D01*
X122667650Y-106355585D01*
X122679937Y-106349711D01*
X122684417Y-106346202D01*
X122691678Y-106337950D01*
X122697439Y-106325748D01*
X122701873Y-106306525D01*
X122705151Y-106277210D01*
X122707445Y-106234732D01*
X122708928Y-106176019D01*
X122709770Y-106098000D01*
X122710144Y-105997604D01*
X122710222Y-105885174D01*
X122710084Y-105760897D01*
X122709565Y-105661797D01*
X122708514Y-105584831D01*
X122706777Y-105526955D01*
X122704199Y-105485125D01*
X122700629Y-105456296D01*
X122695912Y-105437426D01*
X122689896Y-105425470D01*
X122686869Y-105421695D01*
X122678680Y-105414486D01*
X122666570Y-105408755D01*
X122647495Y-105404332D01*
X122618408Y-105401051D01*
X122576267Y-105398743D01*
X122518027Y-105397241D01*
X122440642Y-105396376D01*
X122341069Y-105395982D01*
X122218785Y-105395889D01*
X122781894Y-105395889D01*
X122783699Y-105398993D01*
X122795946Y-105410482D01*
X122816085Y-105418166D01*
X122849484Y-105423480D01*
X122901510Y-105427859D01*
X122958356Y-105431541D01*
X123065281Y-105438222D01*
X122865445Y-105438222D01*
X122823677Y-105439147D01*
X122802850Y-105444834D01*
X122795681Y-105459651D01*
X122794889Y-105480556D01*
X122796431Y-105505616D01*
X122805908Y-105518113D01*
X122830603Y-105522414D01*
X122865445Y-105522889D01*
X122907212Y-105521964D01*
X122928040Y-105516278D01*
X122935208Y-105501461D01*
X122936000Y-105480556D01*
X122934459Y-105455496D01*
X122924981Y-105442999D01*
X122900287Y-105438698D01*
X122865445Y-105438222D01*
X123065281Y-105438222D01*
X123122562Y-105441801D01*
X123322263Y-105242456D01*
X123521964Y-105043111D01*
X123634677Y-105042568D01*
X123690957Y-105041841D01*
X123726256Y-105038759D01*
X123747812Y-105030964D01*
X123762866Y-105016101D01*
X123775611Y-104996707D01*
X123819996Y-104948255D01*
X123877751Y-104917192D01*
X123939890Y-104907770D01*
X123958867Y-104909951D01*
X124017668Y-104933591D01*
X124063963Y-104976131D01*
X124078288Y-105002336D01*
X123910940Y-105002336D01*
X123875189Y-105014919D01*
X123866709Y-105022697D01*
X123848112Y-105063236D01*
X123850706Y-105106206D01*
X123871008Y-105143350D01*
X123905537Y-105166416D01*
X123928892Y-105170111D01*
X123967802Y-105158043D01*
X123995234Y-105127640D01*
X124007793Y-105087608D01*
X124002085Y-105046654D01*
X123986270Y-105022953D01*
X123952434Y-105005024D01*
X123910940Y-105002336D01*
X124078288Y-105002336D01*
X124093900Y-105030892D01*
X124103630Y-105091197D01*
X124092896Y-105142410D01*
X124057000Y-105198200D01*
X124007085Y-105235536D01*
X123949217Y-105253930D01*
X123889459Y-105252894D01*
X123833878Y-105231940D01*
X123788540Y-105190581D01*
X123774528Y-105168016D01*
X123761538Y-105146527D01*
X123745421Y-105134467D01*
X123718398Y-105129128D01*
X123672692Y-105127801D01*
X123659009Y-105127778D01*
X123564298Y-105127778D01*
X123366566Y-105323782D01*
X123168834Y-105519786D01*
X123027722Y-105528236D01*
X122961912Y-105531919D01*
X122901813Y-105534825D01*
X122856255Y-105536548D01*
X122840750Y-105536843D01*
X122794889Y-105537000D01*
X122794889Y-105676020D01*
X122794889Y-105815039D01*
X122911306Y-105824102D01*
X122958352Y-105826639D01*
X123028116Y-105828909D01*
X123115093Y-105830807D01*
X123213781Y-105832227D01*
X123318675Y-105833065D01*
X123390133Y-105833249D01*
X123500617Y-105833185D01*
X123586168Y-105832774D01*
X123650073Y-105831770D01*
X123695622Y-105829931D01*
X123726103Y-105827013D01*
X123744804Y-105822771D01*
X123755013Y-105816962D01*
X123760020Y-105809343D01*
X123761303Y-105805731D01*
X123784279Y-105769432D01*
X123824840Y-105734148D01*
X123873107Y-105707382D01*
X123902762Y-105698319D01*
X123963120Y-105700079D01*
X124018652Y-105724619D01*
X124064013Y-105766500D01*
X124078646Y-105792868D01*
X123949075Y-105792868D01*
X123907721Y-105794319D01*
X123870364Y-105813889D01*
X123855971Y-105833334D01*
X122865445Y-105833334D01*
X122823677Y-105834258D01*
X122802850Y-105839945D01*
X122795681Y-105854762D01*
X122794889Y-105875667D01*
X122796431Y-105900727D01*
X122805908Y-105913224D01*
X122830603Y-105917525D01*
X122865445Y-105918000D01*
X122907212Y-105917075D01*
X122928040Y-105911389D01*
X122935208Y-105896572D01*
X122936000Y-105875667D01*
X122934459Y-105850607D01*
X122924981Y-105838110D01*
X122900287Y-105833809D01*
X122865445Y-105833334D01*
X123855971Y-105833334D01*
X123845159Y-105847943D01*
X123839111Y-105878807D01*
X123851079Y-105911928D01*
X123880022Y-105941967D01*
X123915496Y-105959147D01*
X123926195Y-105960334D01*
X123966626Y-105948302D01*
X123995108Y-105917944D01*
X124008128Y-105877864D01*
X124002173Y-105836668D01*
X123986270Y-105813175D01*
X123949075Y-105792868D01*
X124078646Y-105792868D01*
X124093861Y-105820283D01*
X124102850Y-105880530D01*
X124100575Y-105899622D01*
X124081359Y-105948507D01*
X124046299Y-105995819D01*
X124044021Y-105998135D01*
X124006940Y-106029389D01*
X123970847Y-106042851D01*
X123938599Y-106045000D01*
X123866962Y-106034148D01*
X123810151Y-106003182D01*
X123775488Y-105960095D01*
X123753720Y-105918000D01*
X123390721Y-105918085D01*
X123284677Y-105918470D01*
X123181137Y-105919508D01*
X123085597Y-105921093D01*
X123003553Y-105923121D01*
X122940501Y-105925486D01*
X122911306Y-105927232D01*
X122794889Y-105936294D01*
X122794889Y-106066167D01*
X122794889Y-106196039D01*
X122911306Y-106205102D01*
X122975748Y-106209504D01*
X123038300Y-106212752D01*
X123086672Y-106214221D01*
X123091411Y-106214249D01*
X123113685Y-106214813D01*
X123133142Y-106218170D01*
X123153215Y-106226923D01*
X123177337Y-106243671D01*
X123208939Y-106271013D01*
X123251453Y-106311551D01*
X123308311Y-106367884D01*
X123352278Y-106411889D01*
X123549455Y-106609445D01*
X123646505Y-106609445D01*
X123698311Y-106608714D01*
X123731488Y-106604031D01*
X123755628Y-106591659D01*
X123780323Y-106567862D01*
X123794861Y-106551654D01*
X123831431Y-106515221D01*
X123865100Y-106496091D01*
X123907820Y-106487573D01*
X123909667Y-106487380D01*
X123978900Y-106492719D01*
X124037016Y-106521825D01*
X124079140Y-106571928D01*
X124079354Y-106572375D01*
X123929400Y-106572375D01*
X123903407Y-106578079D01*
X123888819Y-106586772D01*
X123853713Y-106622385D01*
X123844801Y-106663827D01*
X123858732Y-106700788D01*
X123894459Y-106736100D01*
X123936087Y-106744643D01*
X123974659Y-106729709D01*
X123998897Y-106707657D01*
X124006598Y-106677999D01*
X124005718Y-106654556D01*
X123997044Y-106614669D01*
X123974899Y-106590804D01*
X123961832Y-106583720D01*
X123929400Y-106572375D01*
X124079354Y-106572375D01*
X124086905Y-106588134D01*
X124103544Y-106639408D01*
X124103206Y-106682977D01*
X124086301Y-106732639D01*
X124049885Y-106785265D01*
X123998963Y-106818680D01*
X123940011Y-106832549D01*
X123879504Y-106826538D01*
X123823917Y-106800311D01*
X123779725Y-106753535D01*
X123776726Y-106748643D01*
X123763582Y-106728740D01*
X123748515Y-106716748D01*
X123724611Y-106710665D01*
X123684952Y-106708492D01*
X123637048Y-106708222D01*
X123521246Y-106708222D01*
X123316818Y-106502852D01*
X123112389Y-106297481D01*
X123024165Y-106301769D01*
X122935941Y-106306056D01*
X122935971Y-106260195D01*
X122934706Y-106233069D01*
X122926014Y-106219533D01*
X122902617Y-106214863D01*
X122865331Y-106214334D01*
X122794661Y-106214334D01*
X122796932Y-106274364D01*
X122788260Y-106345958D01*
X122757988Y-106403852D01*
X122708462Y-106443666D01*
X122705353Y-106445184D01*
X122656906Y-106468173D01*
X122656896Y-106468334D01*
X122597981Y-106468334D01*
X122597334Y-106468334D01*
X122573132Y-106469637D01*
X122560536Y-106478178D01*
X122555755Y-106500902D01*
X122555000Y-106544758D01*
X122555000Y-106545945D01*
X122555711Y-106590314D01*
X122560370Y-106613408D01*
X122572765Y-106622173D01*
X122596686Y-106623556D01*
X122597334Y-106623556D01*
X122621535Y-106622253D01*
X122634131Y-106613712D01*
X122638912Y-106590987D01*
X122639667Y-106547132D01*
X122639667Y-106545945D01*
X122638956Y-106501576D01*
X122634297Y-106478482D01*
X122621902Y-106469717D01*
X122597981Y-106468334D01*
X122656896Y-106468334D01*
X122646564Y-106640296D01*
X122642329Y-106701931D01*
X122639986Y-106748603D01*
X122642388Y-106784236D01*
X122652385Y-106812755D01*
X122672829Y-106838085D01*
X122706573Y-106864150D01*
X122756466Y-106894875D01*
X122825361Y-106934185D01*
X122884543Y-106967836D01*
X123077111Y-107078108D01*
X123077111Y-109828086D01*
X123077111Y-112578065D01*
X123130028Y-112626559D01*
X123162410Y-112659514D01*
X123166126Y-112666481D01*
X123030829Y-112666481D01*
X122988003Y-112667977D01*
X122950111Y-112691334D01*
X122926002Y-112730119D01*
X122925166Y-112768580D01*
X122943052Y-112801660D01*
X122975112Y-112824300D01*
X123016795Y-112831445D01*
X123063551Y-112818038D01*
X123063928Y-112817837D01*
X123084684Y-112792555D01*
X123091071Y-112753911D01*
X123082748Y-112713034D01*
X123067869Y-112688917D01*
X123030829Y-112666481D01*
X123166126Y-112666481D01*
X123178017Y-112688770D01*
X123182757Y-112727417D01*
X123182945Y-112743787D01*
X123172299Y-112817071D01*
X123140113Y-112872306D01*
X123086010Y-112910113D01*
X123080788Y-112912377D01*
X123014933Y-112926443D01*
X122952316Y-112916040D01*
X122898644Y-112884455D01*
X122859624Y-112834979D01*
X122841319Y-112774353D01*
X122844624Y-112702293D01*
X122871143Y-112643786D01*
X122919448Y-112601710D01*
X122929582Y-112596465D01*
X122978334Y-112573218D01*
X122978194Y-109848859D01*
X122978055Y-107124500D01*
X122766994Y-107004556D01*
X122555934Y-106884611D01*
X122555382Y-106792889D01*
X122553895Y-106731616D01*
X122550512Y-106657836D01*
X122545953Y-106587144D01*
X122545769Y-106584750D01*
X122536706Y-106468334D01*
X122349002Y-106468334D01*
X122161297Y-106468334D01*
X122156206Y-106549472D01*
X122151114Y-106630611D01*
X122148446Y-106549472D01*
X122145778Y-106468334D01*
X122013114Y-106468334D01*
X121880451Y-106468334D01*
X121821222Y-106468334D01*
X121796162Y-106469875D01*
X121783665Y-106479353D01*
X121779364Y-106504047D01*
X121778889Y-106538889D01*
X121779814Y-106580656D01*
X121785501Y-106601484D01*
X121800317Y-106608652D01*
X121821222Y-106609445D01*
X121846283Y-106607903D01*
X121858779Y-106598425D01*
X121863080Y-106573731D01*
X121863556Y-106538889D01*
X121862631Y-106497122D01*
X121856944Y-106476294D01*
X121842128Y-106469126D01*
X121821222Y-106468334D01*
X121880451Y-106468334D01*
X121871342Y-106634139D01*
X121867475Y-106703128D01*
X121863884Y-106764665D01*
X121860998Y-106811577D01*
X121859367Y-106835222D01*
X121854857Y-106850405D01*
X121841588Y-106867119D01*
X121816238Y-106887801D01*
X121775486Y-106914890D01*
X121716010Y-106950823D01*
X121648361Y-106990078D01*
X121440222Y-107109655D01*
X121440222Y-109836043D01*
X121440230Y-110162126D01*
X121440258Y-110461160D01*
X121440320Y-110734318D01*
X121440425Y-110982774D01*
X121440584Y-111207700D01*
X121440810Y-111410270D01*
X121441112Y-111591658D01*
X121441503Y-111753037D01*
X121441992Y-111895579D01*
X121442591Y-112020459D01*
X121443311Y-112128849D01*
X121444163Y-112221922D01*
X121445158Y-112300853D01*
X121446308Y-112366814D01*
X121447622Y-112420978D01*
X121449113Y-112464519D01*
X121450791Y-112498610D01*
X121452667Y-112524424D01*
X121454752Y-112543135D01*
X121457058Y-112555915D01*
X121459596Y-112563939D01*
X121462375Y-112568378D01*
X121465409Y-112570408D01*
X121465960Y-112570601D01*
X121510156Y-112597434D01*
X121547968Y-112643006D01*
X121551987Y-112652014D01*
X121416415Y-112652014D01*
X121376016Y-112660014D01*
X121338149Y-112692807D01*
X121336095Y-112695508D01*
X121317361Y-112724521D01*
X121315674Y-112746476D01*
X121328164Y-112773119D01*
X121348479Y-112799189D01*
X121377166Y-112809848D01*
X121405069Y-112811278D01*
X121445356Y-112807299D01*
X121468372Y-112792244D01*
X121476979Y-112778337D01*
X121487352Y-112730800D01*
X121469927Y-112687074D01*
X121454090Y-112669947D01*
X121416415Y-112652014D01*
X121551987Y-112652014D01*
X121572438Y-112697841D01*
X121577136Y-112722011D01*
X121571762Y-112787133D01*
X121544128Y-112842651D01*
X121499505Y-112884458D01*
X121443165Y-112908445D01*
X121380379Y-112910505D01*
X121346821Y-112901504D01*
X121291877Y-112867395D01*
X121250922Y-112816306D01*
X121230020Y-112756682D01*
X121228556Y-112736774D01*
X121236983Y-112688583D01*
X121258558Y-112640487D01*
X121287719Y-112602358D01*
X121313923Y-112585278D01*
X121317195Y-112583857D01*
X121320197Y-112580980D01*
X121322940Y-112575478D01*
X121325437Y-112566181D01*
X121327698Y-112551921D01*
X121329736Y-112531527D01*
X121331562Y-112503831D01*
X121333187Y-112467662D01*
X121334624Y-112421853D01*
X121335883Y-112365234D01*
X121336977Y-112296635D01*
X121337918Y-112214887D01*
X121338716Y-112118821D01*
X121339384Y-112007267D01*
X121339933Y-111879057D01*
X121340375Y-111733021D01*
X121340721Y-111567989D01*
X121340983Y-111382792D01*
X121341173Y-111176262D01*
X121341302Y-110947228D01*
X121341382Y-110694522D01*
X121341425Y-110416974D01*
X121341442Y-110113415D01*
X121341445Y-109820082D01*
X121341445Y-107063620D01*
X121553111Y-106941056D01*
X121764778Y-106818491D01*
X121764778Y-106636357D01*
X121764216Y-106559300D01*
X121762247Y-106506507D01*
X121758443Y-106474039D01*
X121752379Y-106457955D01*
X121745073Y-106454222D01*
X121725539Y-106444226D01*
X121697166Y-106419712D01*
X121667845Y-106388892D01*
X121645466Y-106359981D01*
X121637778Y-106342534D01*
X121624604Y-106337042D01*
X121588768Y-106330990D01*
X121535802Y-106325128D01*
X121473659Y-106320352D01*
X121309540Y-106310097D01*
X121110121Y-106509160D01*
X120910703Y-106708222D01*
X120795856Y-106708222D01*
X120681010Y-106708222D01*
X120653372Y-106755065D01*
X120619865Y-106793673D01*
X120573101Y-106826513D01*
X120524492Y-106846442D01*
X120502775Y-106849334D01*
X120452499Y-106838226D01*
X120400875Y-106809759D01*
X120360312Y-106771220D01*
X120354029Y-106761988D01*
X120329235Y-106696039D01*
X120330438Y-106626890D01*
X120346850Y-106580761D01*
X120384236Y-106535578D01*
X120435940Y-106507873D01*
X120494980Y-106497563D01*
X120554373Y-106504567D01*
X120607136Y-106528800D01*
X120646286Y-106570181D01*
X120653667Y-106584396D01*
X120653770Y-106584592D01*
X120519051Y-106584592D01*
X120476225Y-106586089D01*
X120438334Y-106609445D01*
X120414224Y-106648230D01*
X120413388Y-106686691D01*
X120431274Y-106719771D01*
X120463334Y-106742411D01*
X120505017Y-106749556D01*
X120551774Y-106736149D01*
X120552150Y-106735948D01*
X120572906Y-106710666D01*
X120579293Y-106672022D01*
X120570971Y-106631145D01*
X120556091Y-106607028D01*
X120519051Y-106584592D01*
X120653770Y-106584592D01*
X120664468Y-106604914D01*
X120678952Y-106616635D01*
X120704409Y-106622012D01*
X120748133Y-106623500D01*
X120770051Y-106623556D01*
X120869100Y-106623556D01*
X121066278Y-106426000D01*
X121134019Y-106358380D01*
X121185319Y-106308247D01*
X121223547Y-106272991D01*
X121252077Y-106250001D01*
X121274280Y-106236668D01*
X121293527Y-106230380D01*
X121313190Y-106228528D01*
X121321449Y-106228445D01*
X121362404Y-106227422D01*
X121420950Y-106224697D01*
X121486544Y-106220786D01*
X121508610Y-106219276D01*
X121637778Y-106210108D01*
X121637778Y-106080257D01*
X121637778Y-105950406D01*
X121521361Y-105941343D01*
X121474588Y-105938827D01*
X121405023Y-105936572D01*
X121318098Y-105934681D01*
X121219242Y-105933257D01*
X121113885Y-105932402D01*
X121036793Y-105932196D01*
X120668641Y-105932111D01*
X120652553Y-105967422D01*
X120621954Y-106006546D01*
X120574462Y-106038709D01*
X120521404Y-106057090D01*
X120500393Y-106059059D01*
X120450866Y-106047973D01*
X120399333Y-106019495D01*
X120357394Y-105980958D01*
X120343497Y-105959910D01*
X120331541Y-105922001D01*
X120325747Y-105875669D01*
X120325653Y-105870479D01*
X120329663Y-105832540D01*
X120345636Y-105800115D01*
X120378978Y-105762372D01*
X120380229Y-105761118D01*
X120416546Y-105728158D01*
X120447294Y-105711804D01*
X120484454Y-105706562D01*
X120499682Y-105706334D01*
X120548844Y-105711014D01*
X120587800Y-105729127D01*
X120614231Y-105750129D01*
X120643979Y-105780162D01*
X120651542Y-105791000D01*
X120501834Y-105791000D01*
X120475763Y-105801256D01*
X120445233Y-105825739D01*
X120420077Y-105855020D01*
X120410111Y-105878941D01*
X120420924Y-105911548D01*
X120446445Y-105944014D01*
X120476298Y-105963266D01*
X120477234Y-105963524D01*
X120521048Y-105962532D01*
X120559916Y-105941329D01*
X120578882Y-105914804D01*
X120590170Y-105881399D01*
X120587295Y-105858913D01*
X120567293Y-105834104D01*
X120558919Y-105825637D01*
X120529182Y-105801985D01*
X120503473Y-105791083D01*
X120501834Y-105791000D01*
X120651542Y-105791000D01*
X120661823Y-105805731D01*
X120664111Y-105813629D01*
X120668115Y-105819441D01*
X120681976Y-105824027D01*
X120708472Y-105827523D01*
X120750382Y-105830060D01*
X120810481Y-105831774D01*
X120891548Y-105832798D01*
X120996359Y-105833265D01*
X121073334Y-105833334D01*
X121482556Y-105833334D01*
X121482556Y-105882722D01*
X121482556Y-105932111D01*
X121559150Y-105932111D01*
X121635743Y-105932111D01*
X121636858Y-105743710D01*
X121637973Y-105555309D01*
X121521459Y-105546239D01*
X121455594Y-105541805D01*
X121390275Y-105538548D01*
X121338556Y-105537105D01*
X121334200Y-105537085D01*
X121263455Y-105537000D01*
X121066278Y-105339445D01*
X120869100Y-105141889D01*
X120770134Y-105141978D01*
X120717789Y-105142747D01*
X120685945Y-105146674D01*
X120666886Y-105156363D01*
X120652895Y-105174419D01*
X120647701Y-105183314D01*
X120606509Y-105231782D01*
X120554605Y-105258743D01*
X120497534Y-105265759D01*
X120440842Y-105254392D01*
X120390071Y-105226205D01*
X120350769Y-105182761D01*
X120328478Y-105125622D01*
X120325445Y-105092500D01*
X120338301Y-105025881D01*
X120373889Y-104971700D01*
X120427742Y-104934873D01*
X120481152Y-104921192D01*
X120549033Y-104924091D01*
X120601921Y-104949471D01*
X120642917Y-104997110D01*
X120649631Y-105006966D01*
X120502745Y-105006966D01*
X120464170Y-105015689D01*
X120433703Y-105040690D01*
X120417180Y-105076220D01*
X120420440Y-105116533D01*
X120428900Y-105133185D01*
X120464821Y-105169222D01*
X120506200Y-105178523D01*
X120544858Y-105163901D01*
X120573278Y-105130577D01*
X120581176Y-105088055D01*
X120568641Y-105046416D01*
X120543589Y-105020268D01*
X120502745Y-105006966D01*
X120649631Y-105006966D01*
X120658127Y-105019435D01*
X120673898Y-105032813D01*
X120697477Y-105039580D01*
X120736111Y-105042074D01*
X120783885Y-105042568D01*
X120896603Y-105043111D01*
X121103066Y-105249230D01*
X121309528Y-105455349D01*
X121473653Y-105445094D01*
X121537904Y-105440122D01*
X121590359Y-105434240D01*
X121625488Y-105428195D01*
X121637778Y-105422911D01*
X121647187Y-105403221D01*
X121670247Y-105373987D01*
X121699208Y-105343435D01*
X121726319Y-105319795D01*
X121742982Y-105311222D01*
X121752165Y-105297998D01*
X121760876Y-105261872D01*
X121768477Y-105208164D01*
X121774330Y-105142194D01*
X121777800Y-105069282D01*
X121778462Y-105014889D01*
X121778204Y-104951389D01*
X121567059Y-104831445D01*
X121355914Y-104711500D01*
X121355646Y-103385056D01*
X121355377Y-102058611D01*
X121314344Y-102035268D01*
X121260647Y-101989743D01*
X121229570Y-101929280D01*
X121222784Y-101875182D01*
X121236110Y-101808173D01*
X121269193Y-101755835D01*
X121316612Y-101720230D01*
X121372942Y-101703422D01*
X121372942Y-101703422D01*
X121372942Y-101703422D01*
G37*
X121372942Y-101703422D02*
X121432761Y-101707473D01*
X121490648Y-101734447D01*
X121521361Y-101761582D01*
X121551038Y-101799455D01*
X121379591Y-101799455D01*
X121340768Y-101814983D01*
X121335397Y-101819730D01*
X121315761Y-101856644D01*
X121315914Y-101899641D01*
X121334965Y-101936585D01*
X121344584Y-101944922D01*
X121389439Y-101964956D01*
X121429781Y-101957593D01*
X121454334Y-101938667D01*
X121478926Y-101897455D01*
X121477365Y-101853547D01*
X121459202Y-101823361D01*
X121423542Y-101802380D01*
X121379591Y-101799455D01*
X121551038Y-101799455D01*
X121551650Y-101800235D01*
X121564867Y-101837750D01*
X121567222Y-101875456D01*
X121555981Y-101946779D01*
X121522308Y-102001045D01*
X121480460Y-102031473D01*
X121440222Y-102052281D01*
X121440222Y-103353713D01*
X121440222Y-104655146D01*
X121651415Y-104775046D01*
X121862607Y-104894945D01*
X121863081Y-105010207D01*
X121864181Y-105066450D01*
X121866678Y-105112959D01*
X121870086Y-105141545D01*
X121871053Y-105145009D01*
X121869617Y-105157602D01*
X121848245Y-105160448D01*
X121828720Y-105158730D01*
X121778889Y-105152913D01*
X121778889Y-105225012D01*
X121778889Y-105297111D01*
X122018778Y-105297111D01*
X122258667Y-105297111D01*
X122258667Y-105227408D01*
X122258667Y-105157704D01*
X122205750Y-105151642D01*
X122152834Y-105145580D01*
X122209278Y-105147262D01*
X122265722Y-105148945D01*
X122269988Y-105223028D01*
X122274253Y-105297111D01*
X122405500Y-105297111D01*
X122536748Y-105297111D01*
X122545874Y-105189149D01*
X122550588Y-105120612D01*
X122553885Y-105048302D01*
X122555000Y-104992977D01*
X122555000Y-104904768D01*
X122765181Y-104783378D01*
X122834805Y-104742197D01*
X122895704Y-104704340D01*
X122943668Y-104672572D01*
X122974484Y-104649659D01*
X122983903Y-104639729D01*
X122985158Y-104622625D01*
X122986358Y-104579333D01*
X122987488Y-104511886D01*
X122988536Y-104422318D01*
X122989489Y-104312661D01*
X122990332Y-104184950D01*
X122991053Y-104041219D01*
X122991638Y-103883500D01*
X122992074Y-103713827D01*
X122992347Y-103534234D01*
X122992445Y-103346755D01*
X122992445Y-103341931D01*
X122992445Y-102066392D01*
X122951357Y-102045145D01*
X122894638Y-102002474D01*
X122860504Y-101946667D01*
X122851334Y-101893730D01*
X122862950Y-101821073D01*
X122896418Y-101765422D01*
X122949662Y-101728814D01*
X123020607Y-101713288D01*
X123035488Y-101712889D01*
X123079014Y-101717501D01*
X123113817Y-101735440D01*
X123141191Y-101760035D01*
X123172351Y-101797605D01*
X123174630Y-101801551D01*
X123025769Y-101801551D01*
X122986317Y-101809037D01*
X122956126Y-101833644D01*
X122940719Y-101869851D01*
X122945620Y-101912135D01*
X122955153Y-101930518D01*
X122989581Y-101960100D01*
X123035089Y-101966325D01*
X123078039Y-101952282D01*
X123100965Y-101926049D01*
X123106853Y-101888052D01*
X123096386Y-101848492D01*
X123070248Y-101817571D01*
X123068962Y-101816708D01*
X123025769Y-101801551D01*
X123174630Y-101801551D01*
X123194352Y-101835694D01*
X123198412Y-101847326D01*
X123199695Y-101903575D01*
X123180846Y-101962058D01*
X123146498Y-102011470D01*
X123123516Y-102030162D01*
X123078198Y-102058611D01*
X123077180Y-103385056D01*
X123076163Y-104711500D01*
X122864970Y-104831399D01*
X122653778Y-104951299D01*
X122653778Y-105057872D01*
X122653778Y-105164444D01*
X122604389Y-105158678D01*
X122555000Y-105152913D01*
X122555000Y-105225012D01*
X122555000Y-105297111D01*
X122605784Y-105297111D01*
X122668495Y-105306751D01*
X122725060Y-105332503D01*
X122766090Y-105369612D01*
X122773975Y-105382266D01*
X122781894Y-105395889D01*
X122218785Y-105395889D01*
X122093437Y-105396025D01*
X121993292Y-105396530D01*
X121915334Y-105397557D01*
X121856545Y-105399253D01*
X121813908Y-105401769D01*
X121784404Y-105405255D01*
X121765017Y-105409860D01*
X121752730Y-105415734D01*
X121748250Y-105419243D01*
X121740989Y-105427495D01*
X121735228Y-105439697D01*
X121732313Y-105452334D01*
X121561354Y-105452334D01*
X121560167Y-105452334D01*
X121515798Y-105453044D01*
X121492704Y-105457703D01*
X121483939Y-105470098D01*
X121482556Y-105494020D01*
X121482556Y-105494667D01*
X121483859Y-105518868D01*
X121492400Y-105531465D01*
X121515125Y-105536246D01*
X121558980Y-105537000D01*
X121560167Y-105537000D01*
X121604536Y-105536289D01*
X121627630Y-105531631D01*
X121636395Y-105519235D01*
X121637778Y-105495314D01*
X121637778Y-105494667D01*
X121636475Y-105470466D01*
X121627934Y-105457869D01*
X121605209Y-105453088D01*
X121561354Y-105452334D01*
X121732313Y-105452334D01*
X121730794Y-105458920D01*
X121727516Y-105488235D01*
X121725222Y-105530713D01*
X121723739Y-105589426D01*
X121722897Y-105667445D01*
X121722523Y-105767841D01*
X121722445Y-105880271D01*
X121722583Y-106004548D01*
X121723102Y-106103648D01*
X121724153Y-106180614D01*
X121725588Y-106228445D01*
X121561354Y-106228445D01*
X121560167Y-106228445D01*
X121515798Y-106229156D01*
X121492704Y-106233814D01*
X121483939Y-106246210D01*
X121482556Y-106270131D01*
X121482556Y-106270778D01*
X121483859Y-106294979D01*
X121492400Y-106307576D01*
X121515125Y-106312357D01*
X121558980Y-106313111D01*
X121560167Y-106313111D01*
X121604536Y-106312401D01*
X121627630Y-106307742D01*
X121636395Y-106295347D01*
X121637778Y-106271425D01*
X121637778Y-106270778D01*
X121636475Y-106246577D01*
X121627934Y-106233980D01*
X121605209Y-106229199D01*
X121561354Y-106228445D01*
X121725588Y-106228445D01*
X121725890Y-106238490D01*
X121728468Y-106280320D01*
X121732038Y-106309149D01*
X121736755Y-106328019D01*
X121742771Y-106339975D01*
X121745798Y-106343750D01*
X121753987Y-106350959D01*
X121766097Y-106356690D01*
X121785172Y-106361113D01*
X121814259Y-106364394D01*
X121856400Y-106366702D01*
X121914640Y-106368204D01*
X121992025Y-106369069D01*
X122091598Y-106369463D01*
X122213882Y-106369556D01*
X122339230Y-106369420D01*
X122439375Y-106368915D01*
X122517333Y-106367888D01*
X122576122Y-106366192D01*
X122618759Y-106363676D01*
X122648263Y-106360190D01*
X122667650Y-106355585D01*
X122679937Y-106349711D01*
X122684417Y-106346202D01*
X122691678Y-106337950D01*
X122697439Y-106325748D01*
X122701873Y-106306525D01*
X122705151Y-106277210D01*
X122707445Y-106234732D01*
X122708928Y-106176019D01*
X122709770Y-106098000D01*
X122710144Y-105997604D01*
X122710222Y-105885174D01*
X122710084Y-105760897D01*
X122709565Y-105661797D01*
X122708514Y-105584831D01*
X122706777Y-105526955D01*
X122704199Y-105485125D01*
X122700629Y-105456296D01*
X122695912Y-105437426D01*
X122689896Y-105425470D01*
X122686869Y-105421695D01*
X122678680Y-105414486D01*
X122666570Y-105408755D01*
X122647495Y-105404332D01*
X122618408Y-105401051D01*
X122576267Y-105398743D01*
X122518027Y-105397241D01*
X122440642Y-105396376D01*
X122341069Y-105395982D01*
X122218785Y-105395889D01*
X122781894Y-105395889D01*
X122783699Y-105398993D01*
X122795946Y-105410482D01*
X122816085Y-105418166D01*
X122849484Y-105423480D01*
X122901510Y-105427859D01*
X122958356Y-105431541D01*
X123065281Y-105438222D01*
X122865445Y-105438222D01*
X122823677Y-105439147D01*
X122802850Y-105444834D01*
X122795681Y-105459651D01*
X122794889Y-105480556D01*
X122796431Y-105505616D01*
X122805908Y-105518113D01*
X122830603Y-105522414D01*
X122865445Y-105522889D01*
X122907212Y-105521964D01*
X122928040Y-105516278D01*
X122935208Y-105501461D01*
X122936000Y-105480556D01*
X122934459Y-105455496D01*
X122924981Y-105442999D01*
X122900287Y-105438698D01*
X122865445Y-105438222D01*
X123065281Y-105438222D01*
X123122562Y-105441801D01*
X123322263Y-105242456D01*
X123521964Y-105043111D01*
X123634677Y-105042568D01*
X123690957Y-105041841D01*
X123726256Y-105038759D01*
X123747812Y-105030964D01*
X123762866Y-105016101D01*
X123775611Y-104996707D01*
X123819996Y-104948255D01*
X123877751Y-104917192D01*
X123939890Y-104907770D01*
X123958867Y-104909951D01*
X124017668Y-104933591D01*
X124063963Y-104976131D01*
X124078288Y-105002336D01*
X123910940Y-105002336D01*
X123875189Y-105014919D01*
X123866709Y-105022697D01*
X123848112Y-105063236D01*
X123850706Y-105106206D01*
X123871008Y-105143350D01*
X123905537Y-105166416D01*
X123928892Y-105170111D01*
X123967802Y-105158043D01*
X123995234Y-105127640D01*
X124007793Y-105087608D01*
X124002085Y-105046654D01*
X123986270Y-105022953D01*
X123952434Y-105005024D01*
X123910940Y-105002336D01*
X124078288Y-105002336D01*
X124093900Y-105030892D01*
X124103630Y-105091197D01*
X124092896Y-105142410D01*
X124057000Y-105198200D01*
X124007085Y-105235536D01*
X123949217Y-105253930D01*
X123889459Y-105252894D01*
X123833878Y-105231940D01*
X123788540Y-105190581D01*
X123774528Y-105168016D01*
X123761538Y-105146527D01*
X123745421Y-105134467D01*
X123718398Y-105129128D01*
X123672692Y-105127801D01*
X123659009Y-105127778D01*
X123564298Y-105127778D01*
X123366566Y-105323782D01*
X123168834Y-105519786D01*
X123027722Y-105528236D01*
X122961912Y-105531919D01*
X122901813Y-105534825D01*
X122856255Y-105536548D01*
X122840750Y-105536843D01*
X122794889Y-105537000D01*
X122794889Y-105676020D01*
X122794889Y-105815039D01*
X122911306Y-105824102D01*
X122958352Y-105826639D01*
X123028116Y-105828909D01*
X123115093Y-105830807D01*
X123213781Y-105832227D01*
X123318675Y-105833065D01*
X123390133Y-105833249D01*
X123500617Y-105833185D01*
X123586168Y-105832774D01*
X123650073Y-105831770D01*
X123695622Y-105829931D01*
X123726103Y-105827013D01*
X123744804Y-105822771D01*
X123755013Y-105816962D01*
X123760020Y-105809343D01*
X123761303Y-105805731D01*
X123784279Y-105769432D01*
X123824840Y-105734148D01*
X123873107Y-105707382D01*
X123902762Y-105698319D01*
X123963120Y-105700079D01*
X124018652Y-105724619D01*
X124064013Y-105766500D01*
X124078646Y-105792868D01*
X123949075Y-105792868D01*
X123907721Y-105794319D01*
X123870364Y-105813889D01*
X123855971Y-105833334D01*
X122865445Y-105833334D01*
X122823677Y-105834258D01*
X122802850Y-105839945D01*
X122795681Y-105854762D01*
X122794889Y-105875667D01*
X122796431Y-105900727D01*
X122805908Y-105913224D01*
X122830603Y-105917525D01*
X122865445Y-105918000D01*
X122907212Y-105917075D01*
X122928040Y-105911389D01*
X122935208Y-105896572D01*
X122936000Y-105875667D01*
X122934459Y-105850607D01*
X122924981Y-105838110D01*
X122900287Y-105833809D01*
X122865445Y-105833334D01*
X123855971Y-105833334D01*
X123845159Y-105847943D01*
X123839111Y-105878807D01*
X123851079Y-105911928D01*
X123880022Y-105941967D01*
X123915496Y-105959147D01*
X123926195Y-105960334D01*
X123966626Y-105948302D01*
X123995108Y-105917944D01*
X124008128Y-105877864D01*
X124002173Y-105836668D01*
X123986270Y-105813175D01*
X123949075Y-105792868D01*
X124078646Y-105792868D01*
X124093861Y-105820283D01*
X124102850Y-105880530D01*
X124100575Y-105899622D01*
X124081359Y-105948507D01*
X124046299Y-105995819D01*
X124044021Y-105998135D01*
X124006940Y-106029389D01*
X123970847Y-106042851D01*
X123938599Y-106045000D01*
X123866962Y-106034148D01*
X123810151Y-106003182D01*
X123775488Y-105960095D01*
X123753720Y-105918000D01*
X123390721Y-105918085D01*
X123284677Y-105918470D01*
X123181137Y-105919508D01*
X123085597Y-105921093D01*
X123003553Y-105923121D01*
X122940501Y-105925486D01*
X122911306Y-105927232D01*
X122794889Y-105936294D01*
X122794889Y-106066167D01*
X122794889Y-106196039D01*
X122911306Y-106205102D01*
X122975748Y-106209504D01*
X123038300Y-106212752D01*
X123086672Y-106214221D01*
X123091411Y-106214249D01*
X123113685Y-106214813D01*
X123133142Y-106218170D01*
X123153215Y-106226923D01*
X123177337Y-106243671D01*
X123208939Y-106271013D01*
X123251453Y-106311551D01*
X123308311Y-106367884D01*
X123352278Y-106411889D01*
X123549455Y-106609445D01*
X123646505Y-106609445D01*
X123698311Y-106608714D01*
X123731488Y-106604031D01*
X123755628Y-106591659D01*
X123780323Y-106567862D01*
X123794861Y-106551654D01*
X123831431Y-106515221D01*
X123865100Y-106496091D01*
X123907820Y-106487573D01*
X123909667Y-106487380D01*
X123978900Y-106492719D01*
X124037016Y-106521825D01*
X124079140Y-106571928D01*
X124079354Y-106572375D01*
X123929400Y-106572375D01*
X123903407Y-106578079D01*
X123888819Y-106586772D01*
X123853713Y-106622385D01*
X123844801Y-106663827D01*
X123858732Y-106700788D01*
X123894459Y-106736100D01*
X123936087Y-106744643D01*
X123974659Y-106729709D01*
X123998897Y-106707657D01*
X124006598Y-106677999D01*
X124005718Y-106654556D01*
X123997044Y-106614669D01*
X123974899Y-106590804D01*
X123961832Y-106583720D01*
X123929400Y-106572375D01*
X124079354Y-106572375D01*
X124086905Y-106588134D01*
X124103544Y-106639408D01*
X124103206Y-106682977D01*
X124086301Y-106732639D01*
X124049885Y-106785265D01*
X123998963Y-106818680D01*
X123940011Y-106832549D01*
X123879504Y-106826538D01*
X123823917Y-106800311D01*
X123779725Y-106753535D01*
X123776726Y-106748643D01*
X123763582Y-106728740D01*
X123748515Y-106716748D01*
X123724611Y-106710665D01*
X123684952Y-106708492D01*
X123637048Y-106708222D01*
X123521246Y-106708222D01*
X123316818Y-106502852D01*
X123112389Y-106297481D01*
X123024165Y-106301769D01*
X122935941Y-106306056D01*
X122935971Y-106260195D01*
X122934706Y-106233069D01*
X122926014Y-106219533D01*
X122902617Y-106214863D01*
X122865331Y-106214334D01*
X122794661Y-106214334D01*
X122796932Y-106274364D01*
X122788260Y-106345958D01*
X122757988Y-106403852D01*
X122708462Y-106443666D01*
X122705353Y-106445184D01*
X122656906Y-106468173D01*
X122656896Y-106468334D01*
X122597981Y-106468334D01*
X122597334Y-106468334D01*
X122573132Y-106469637D01*
X122560536Y-106478178D01*
X122555755Y-106500902D01*
X122555000Y-106544758D01*
X122555000Y-106545945D01*
X122555711Y-106590314D01*
X122560370Y-106613408D01*
X122572765Y-106622173D01*
X122596686Y-106623556D01*
X122597334Y-106623556D01*
X122621535Y-106622253D01*
X122634131Y-106613712D01*
X122638912Y-106590987D01*
X122639667Y-106547132D01*
X122639667Y-106545945D01*
X122638956Y-106501576D01*
X122634297Y-106478482D01*
X122621902Y-106469717D01*
X122597981Y-106468334D01*
X122656896Y-106468334D01*
X122646564Y-106640296D01*
X122642329Y-106701931D01*
X122639986Y-106748603D01*
X122642388Y-106784236D01*
X122652385Y-106812755D01*
X122672829Y-106838085D01*
X122706573Y-106864150D01*
X122756466Y-106894875D01*
X122825361Y-106934185D01*
X122884543Y-106967836D01*
X123077111Y-107078108D01*
X123077111Y-109828086D01*
X123077111Y-112578065D01*
X123130028Y-112626559D01*
X123162410Y-112659514D01*
X123166126Y-112666481D01*
X123030829Y-112666481D01*
X122988003Y-112667977D01*
X122950111Y-112691334D01*
X122926002Y-112730119D01*
X122925166Y-112768580D01*
X122943052Y-112801660D01*
X122975112Y-112824300D01*
X123016795Y-112831445D01*
X123063551Y-112818038D01*
X123063928Y-112817837D01*
X123084684Y-112792555D01*
X123091071Y-112753911D01*
X123082748Y-112713034D01*
X123067869Y-112688917D01*
X123030829Y-112666481D01*
X123166126Y-112666481D01*
X123178017Y-112688770D01*
X123182757Y-112727417D01*
X123182945Y-112743787D01*
X123172299Y-112817071D01*
X123140113Y-112872306D01*
X123086010Y-112910113D01*
X123080788Y-112912377D01*
X123014933Y-112926443D01*
X122952316Y-112916040D01*
X122898644Y-112884455D01*
X122859624Y-112834979D01*
X122841319Y-112774353D01*
X122844624Y-112702293D01*
X122871143Y-112643786D01*
X122919448Y-112601710D01*
X122929582Y-112596465D01*
X122978334Y-112573218D01*
X122978194Y-109848859D01*
X122978055Y-107124500D01*
X122766994Y-107004556D01*
X122555934Y-106884611D01*
X122555382Y-106792889D01*
X122553895Y-106731616D01*
X122550512Y-106657836D01*
X122545953Y-106587144D01*
X122545769Y-106584750D01*
X122536706Y-106468334D01*
X122349002Y-106468334D01*
X122161297Y-106468334D01*
X122156206Y-106549472D01*
X122151114Y-106630611D01*
X122148446Y-106549472D01*
X122145778Y-106468334D01*
X122013114Y-106468334D01*
X121880451Y-106468334D01*
X121821222Y-106468334D01*
X121796162Y-106469875D01*
X121783665Y-106479353D01*
X121779364Y-106504047D01*
X121778889Y-106538889D01*
X121779814Y-106580656D01*
X121785501Y-106601484D01*
X121800317Y-106608652D01*
X121821222Y-106609445D01*
X121846283Y-106607903D01*
X121858779Y-106598425D01*
X121863080Y-106573731D01*
X121863556Y-106538889D01*
X121862631Y-106497122D01*
X121856944Y-106476294D01*
X121842128Y-106469126D01*
X121821222Y-106468334D01*
X121880451Y-106468334D01*
X121871342Y-106634139D01*
X121867475Y-106703128D01*
X121863884Y-106764665D01*
X121860998Y-106811577D01*
X121859367Y-106835222D01*
X121854857Y-106850405D01*
X121841588Y-106867119D01*
X121816238Y-106887801D01*
X121775486Y-106914890D01*
X121716010Y-106950823D01*
X121648361Y-106990078D01*
X121440222Y-107109655D01*
X121440222Y-109836043D01*
X121440230Y-110162126D01*
X121440258Y-110461160D01*
X121440320Y-110734318D01*
X121440425Y-110982774D01*
X121440584Y-111207700D01*
X121440810Y-111410270D01*
X121441112Y-111591658D01*
X121441503Y-111753037D01*
X121441992Y-111895579D01*
X121442591Y-112020459D01*
X121443311Y-112128849D01*
X121444163Y-112221922D01*
X121445158Y-112300853D01*
X121446308Y-112366814D01*
X121447622Y-112420978D01*
X121449113Y-112464519D01*
X121450791Y-112498610D01*
X121452667Y-112524424D01*
X121454752Y-112543135D01*
X121457058Y-112555915D01*
X121459596Y-112563939D01*
X121462375Y-112568378D01*
X121465409Y-112570408D01*
X121465960Y-112570601D01*
X121510156Y-112597434D01*
X121547968Y-112643006D01*
X121551987Y-112652014D01*
X121416415Y-112652014D01*
X121376016Y-112660014D01*
X121338149Y-112692807D01*
X121336095Y-112695508D01*
X121317361Y-112724521D01*
X121315674Y-112746476D01*
X121328164Y-112773119D01*
X121348479Y-112799189D01*
X121377166Y-112809848D01*
X121405069Y-112811278D01*
X121445356Y-112807299D01*
X121468372Y-112792244D01*
X121476979Y-112778337D01*
X121487352Y-112730800D01*
X121469927Y-112687074D01*
X121454090Y-112669947D01*
X121416415Y-112652014D01*
X121551987Y-112652014D01*
X121572438Y-112697841D01*
X121577136Y-112722011D01*
X121571762Y-112787133D01*
X121544128Y-112842651D01*
X121499505Y-112884458D01*
X121443165Y-112908445D01*
X121380379Y-112910505D01*
X121346821Y-112901504D01*
X121291877Y-112867395D01*
X121250922Y-112816306D01*
X121230020Y-112756682D01*
X121228556Y-112736774D01*
X121236983Y-112688583D01*
X121258558Y-112640487D01*
X121287719Y-112602358D01*
X121313923Y-112585278D01*
X121317195Y-112583857D01*
X121320197Y-112580980D01*
X121322940Y-112575478D01*
X121325437Y-112566181D01*
X121327698Y-112551921D01*
X121329736Y-112531527D01*
X121331562Y-112503831D01*
X121333187Y-112467662D01*
X121334624Y-112421853D01*
X121335883Y-112365234D01*
X121336977Y-112296635D01*
X121337918Y-112214887D01*
X121338716Y-112118821D01*
X121339384Y-112007267D01*
X121339933Y-111879057D01*
X121340375Y-111733021D01*
X121340721Y-111567989D01*
X121340983Y-111382792D01*
X121341173Y-111176262D01*
X121341302Y-110947228D01*
X121341382Y-110694522D01*
X121341425Y-110416974D01*
X121341442Y-110113415D01*
X121341445Y-109820082D01*
X121341445Y-107063620D01*
X121553111Y-106941056D01*
X121764778Y-106818491D01*
X121764778Y-106636357D01*
X121764216Y-106559300D01*
X121762247Y-106506507D01*
X121758443Y-106474039D01*
X121752379Y-106457955D01*
X121745073Y-106454222D01*
X121725539Y-106444226D01*
X121697166Y-106419712D01*
X121667845Y-106388892D01*
X121645466Y-106359981D01*
X121637778Y-106342534D01*
X121624604Y-106337042D01*
X121588768Y-106330990D01*
X121535802Y-106325128D01*
X121473659Y-106320352D01*
X121309540Y-106310097D01*
X121110121Y-106509160D01*
X120910703Y-106708222D01*
X120795856Y-106708222D01*
X120681010Y-106708222D01*
X120653372Y-106755065D01*
X120619865Y-106793673D01*
X120573101Y-106826513D01*
X120524492Y-106846442D01*
X120502775Y-106849334D01*
X120452499Y-106838226D01*
X120400875Y-106809759D01*
X120360312Y-106771220D01*
X120354029Y-106761988D01*
X120329235Y-106696039D01*
X120330438Y-106626890D01*
X120346850Y-106580761D01*
X120384236Y-106535578D01*
X120435940Y-106507873D01*
X120494980Y-106497563D01*
X120554373Y-106504567D01*
X120607136Y-106528800D01*
X120646286Y-106570181D01*
X120653667Y-106584396D01*
X120653770Y-106584592D01*
X120519051Y-106584592D01*
X120476225Y-106586089D01*
X120438334Y-106609445D01*
X120414224Y-106648230D01*
X120413388Y-106686691D01*
X120431274Y-106719771D01*
X120463334Y-106742411D01*
X120505017Y-106749556D01*
X120551774Y-106736149D01*
X120552150Y-106735948D01*
X120572906Y-106710666D01*
X120579293Y-106672022D01*
X120570971Y-106631145D01*
X120556091Y-106607028D01*
X120519051Y-106584592D01*
X120653770Y-106584592D01*
X120664468Y-106604914D01*
X120678952Y-106616635D01*
X120704409Y-106622012D01*
X120748133Y-106623500D01*
X120770051Y-106623556D01*
X120869100Y-106623556D01*
X121066278Y-106426000D01*
X121134019Y-106358380D01*
X121185319Y-106308247D01*
X121223547Y-106272991D01*
X121252077Y-106250001D01*
X121274280Y-106236668D01*
X121293527Y-106230380D01*
X121313190Y-106228528D01*
X121321449Y-106228445D01*
X121362404Y-106227422D01*
X121420950Y-106224697D01*
X121486544Y-106220786D01*
X121508610Y-106219276D01*
X121637778Y-106210108D01*
X121637778Y-106080257D01*
X121637778Y-105950406D01*
X121521361Y-105941343D01*
X121474588Y-105938827D01*
X121405023Y-105936572D01*
X121318098Y-105934681D01*
X121219242Y-105933257D01*
X121113885Y-105932402D01*
X121036793Y-105932196D01*
X120668641Y-105932111D01*
X120652553Y-105967422D01*
X120621954Y-106006546D01*
X120574462Y-106038709D01*
X120521404Y-106057090D01*
X120500393Y-106059059D01*
X120450866Y-106047973D01*
X120399333Y-106019495D01*
X120357394Y-105980958D01*
X120343497Y-105959910D01*
X120331541Y-105922001D01*
X120325747Y-105875669D01*
X120325653Y-105870479D01*
X120329663Y-105832540D01*
X120345636Y-105800115D01*
X120378978Y-105762372D01*
X120380229Y-105761118D01*
X120416546Y-105728158D01*
X120447294Y-105711804D01*
X120484454Y-105706562D01*
X120499682Y-105706334D01*
X120548844Y-105711014D01*
X120587800Y-105729127D01*
X120614231Y-105750129D01*
X120643979Y-105780162D01*
X120651542Y-105791000D01*
X120501834Y-105791000D01*
X120475763Y-105801256D01*
X120445233Y-105825739D01*
X120420077Y-105855020D01*
X120410111Y-105878941D01*
X120420924Y-105911548D01*
X120446445Y-105944014D01*
X120476298Y-105963266D01*
X120477234Y-105963524D01*
X120521048Y-105962532D01*
X120559916Y-105941329D01*
X120578882Y-105914804D01*
X120590170Y-105881399D01*
X120587295Y-105858913D01*
X120567293Y-105834104D01*
X120558919Y-105825637D01*
X120529182Y-105801985D01*
X120503473Y-105791083D01*
X120501834Y-105791000D01*
X120651542Y-105791000D01*
X120661823Y-105805731D01*
X120664111Y-105813629D01*
X120668115Y-105819441D01*
X120681976Y-105824027D01*
X120708472Y-105827523D01*
X120750382Y-105830060D01*
X120810481Y-105831774D01*
X120891548Y-105832798D01*
X120996359Y-105833265D01*
X121073334Y-105833334D01*
X121482556Y-105833334D01*
X121482556Y-105882722D01*
X121482556Y-105932111D01*
X121559150Y-105932111D01*
X121635743Y-105932111D01*
X121636858Y-105743710D01*
X121637973Y-105555309D01*
X121521459Y-105546239D01*
X121455594Y-105541805D01*
X121390275Y-105538548D01*
X121338556Y-105537105D01*
X121334200Y-105537085D01*
X121263455Y-105537000D01*
X121066278Y-105339445D01*
X120869100Y-105141889D01*
X120770134Y-105141978D01*
X120717789Y-105142747D01*
X120685945Y-105146674D01*
X120666886Y-105156363D01*
X120652895Y-105174419D01*
X120647701Y-105183314D01*
X120606509Y-105231782D01*
X120554605Y-105258743D01*
X120497534Y-105265759D01*
X120440842Y-105254392D01*
X120390071Y-105226205D01*
X120350769Y-105182761D01*
X120328478Y-105125622D01*
X120325445Y-105092500D01*
X120338301Y-105025881D01*
X120373889Y-104971700D01*
X120427742Y-104934873D01*
X120481152Y-104921192D01*
X120549033Y-104924091D01*
X120601921Y-104949471D01*
X120642917Y-104997110D01*
X120649631Y-105006966D01*
X120502745Y-105006966D01*
X120464170Y-105015689D01*
X120433703Y-105040690D01*
X120417180Y-105076220D01*
X120420440Y-105116533D01*
X120428900Y-105133185D01*
X120464821Y-105169222D01*
X120506200Y-105178523D01*
X120544858Y-105163901D01*
X120573278Y-105130577D01*
X120581176Y-105088055D01*
X120568641Y-105046416D01*
X120543589Y-105020268D01*
X120502745Y-105006966D01*
X120649631Y-105006966D01*
X120658127Y-105019435D01*
X120673898Y-105032813D01*
X120697477Y-105039580D01*
X120736111Y-105042074D01*
X120783885Y-105042568D01*
X120896603Y-105043111D01*
X121103066Y-105249230D01*
X121309528Y-105455349D01*
X121473653Y-105445094D01*
X121537904Y-105440122D01*
X121590359Y-105434240D01*
X121625488Y-105428195D01*
X121637778Y-105422911D01*
X121647187Y-105403221D01*
X121670247Y-105373987D01*
X121699208Y-105343435D01*
X121726319Y-105319795D01*
X121742982Y-105311222D01*
X121752165Y-105297998D01*
X121760876Y-105261872D01*
X121768477Y-105208164D01*
X121774330Y-105142194D01*
X121777800Y-105069282D01*
X121778462Y-105014889D01*
X121778204Y-104951389D01*
X121567059Y-104831445D01*
X121355914Y-104711500D01*
X121355646Y-103385056D01*
X121355377Y-102058611D01*
X121314344Y-102035268D01*
X121260647Y-101989743D01*
X121229570Y-101929280D01*
X121222784Y-101875182D01*
X121236110Y-101808173D01*
X121269193Y-101755835D01*
X121316612Y-101720230D01*
X121372942Y-101703422D01*
X121372942Y-101703422D01*
G36*
X122301000Y-112126889D02*
X122301000Y-112338556D01*
X122075222Y-112338556D01*
X122063882Y-112340065D01*
X122056068Y-112347535D01*
X122051128Y-112365383D01*
X122048405Y-112398022D01*
X122047248Y-112449869D01*
X122047000Y-112525337D01*
X122047000Y-112529056D01*
X122047224Y-112605604D01*
X122048330Y-112658345D01*
X122050975Y-112691696D01*
X122055810Y-112710071D01*
X122063491Y-112717885D01*
X122074672Y-112719554D01*
X122075222Y-112719556D01*
X122086563Y-112718047D01*
X122094376Y-112710576D01*
X122099317Y-112692729D01*
X122102039Y-112660089D01*
X122103197Y-112608243D01*
X122103444Y-112532774D01*
X122103445Y-112529056D01*
X122103221Y-112452508D01*
X122102114Y-112399767D01*
X122099470Y-112366416D01*
X122094635Y-112348041D01*
X122086954Y-112340226D01*
X122075773Y-112338557D01*
X122075222Y-112338556D01*
X122301000Y-112338556D01*
X122301000Y-112423222D01*
X122301000Y-112719556D01*
X122343334Y-112719556D01*
X122385667Y-112719556D01*
X122385667Y-112458500D01*
X122385667Y-112197445D01*
X122484445Y-112197445D01*
X122583222Y-112197445D01*
X122583222Y-112498747D01*
X122583099Y-112598697D01*
X122582477Y-112674539D01*
X122580977Y-112730387D01*
X122578219Y-112770356D01*
X122573824Y-112798560D01*
X122567414Y-112819112D01*
X122558608Y-112836128D01*
X122551049Y-112847791D01*
X122530309Y-112875909D01*
X122508381Y-112896872D01*
X122480917Y-112911728D01*
X122443570Y-112921521D01*
X122391995Y-112927296D01*
X122321845Y-112930099D01*
X122228772Y-112930976D01*
X122205049Y-112931014D01*
X122101825Y-112930256D01*
X122022937Y-112927260D01*
X121964539Y-112921241D01*
X121922784Y-112911415D01*
X121893823Y-112896996D01*
X121873810Y-112877201D01*
X121863974Y-112861449D01*
X121859052Y-112838062D01*
X121854977Y-112790088D01*
X121851918Y-112721153D01*
X121850039Y-112634885D01*
X121849497Y-112547622D01*
X121849719Y-112449481D01*
X121850587Y-112375313D01*
X121852463Y-112320869D01*
X121855711Y-112281904D01*
X121860696Y-112254168D01*
X121867779Y-112233413D01*
X121877326Y-112215393D01*
X121878029Y-112214234D01*
X121906236Y-112178595D01*
X121943494Y-112153554D01*
X121994551Y-112137599D01*
X122064160Y-112129216D01*
X122152380Y-112126889D01*
X122301000Y-112126889D01*
X122301000Y-112126889D01*
X122301000Y-112126889D01*
G37*
X122301000Y-112126889D02*
X122301000Y-112338556D01*
X122075222Y-112338556D01*
X122063882Y-112340065D01*
X122056068Y-112347535D01*
X122051128Y-112365383D01*
X122048405Y-112398022D01*
X122047248Y-112449869D01*
X122047000Y-112525337D01*
X122047000Y-112529056D01*
X122047224Y-112605604D01*
X122048330Y-112658345D01*
X122050975Y-112691696D01*
X122055810Y-112710071D01*
X122063491Y-112717885D01*
X122074672Y-112719554D01*
X122075222Y-112719556D01*
X122086563Y-112718047D01*
X122094376Y-112710576D01*
X122099317Y-112692729D01*
X122102039Y-112660089D01*
X122103197Y-112608243D01*
X122103444Y-112532774D01*
X122103445Y-112529056D01*
X122103221Y-112452508D01*
X122102114Y-112399767D01*
X122099470Y-112366416D01*
X122094635Y-112348041D01*
X122086954Y-112340226D01*
X122075773Y-112338557D01*
X122075222Y-112338556D01*
X122301000Y-112338556D01*
X122301000Y-112423222D01*
X122301000Y-112719556D01*
X122343334Y-112719556D01*
X122385667Y-112719556D01*
X122385667Y-112458500D01*
X122385667Y-112197445D01*
X122484445Y-112197445D01*
X122583222Y-112197445D01*
X122583222Y-112498747D01*
X122583099Y-112598697D01*
X122582477Y-112674539D01*
X122580977Y-112730387D01*
X122578219Y-112770356D01*
X122573824Y-112798560D01*
X122567414Y-112819112D01*
X122558608Y-112836128D01*
X122551049Y-112847791D01*
X122530309Y-112875909D01*
X122508381Y-112896872D01*
X122480917Y-112911728D01*
X122443570Y-112921521D01*
X122391995Y-112927296D01*
X122321845Y-112930099D01*
X122228772Y-112930976D01*
X122205049Y-112931014D01*
X122101825Y-112930256D01*
X122022937Y-112927260D01*
X121964539Y-112921241D01*
X121922784Y-112911415D01*
X121893823Y-112896996D01*
X121873810Y-112877201D01*
X121863974Y-112861449D01*
X121859052Y-112838062D01*
X121854977Y-112790088D01*
X121851918Y-112721153D01*
X121850039Y-112634885D01*
X121849497Y-112547622D01*
X121849719Y-112449481D01*
X121850587Y-112375313D01*
X121852463Y-112320869D01*
X121855711Y-112281904D01*
X121860696Y-112254168D01*
X121867779Y-112233413D01*
X121877326Y-112215393D01*
X121878029Y-112214234D01*
X121906236Y-112178595D01*
X121943494Y-112153554D01*
X121994551Y-112137599D01*
X122064160Y-112129216D01*
X122152380Y-112126889D01*
X122301000Y-112126889D01*
X122301000Y-112126889D01*
G36*
X122583222Y-111421334D02*
X122583222Y-111527365D01*
X122583222Y-111633397D01*
X122135195Y-111629671D01*
X121687167Y-111625945D01*
X121683021Y-111523639D01*
X121678875Y-111421334D01*
X122131049Y-111421334D01*
X122583222Y-111421334D01*
X122583222Y-111421334D01*
X122583222Y-111421334D01*
G37*
X122583222Y-111421334D02*
X122583222Y-111527365D01*
X122583222Y-111633397D01*
X122135195Y-111629671D01*
X121687167Y-111625945D01*
X121683021Y-111523639D01*
X121678875Y-111421334D01*
X122131049Y-111421334D01*
X122583222Y-111421334D01*
X122583222Y-111421334D01*
G36*
X122301000Y-110092587D02*
X122301000Y-110306556D01*
X122075222Y-110306556D01*
X122063882Y-110308065D01*
X122056068Y-110315535D01*
X122051128Y-110333383D01*
X122048405Y-110366022D01*
X122047248Y-110417869D01*
X122047000Y-110493337D01*
X122047000Y-110497056D01*
X122047224Y-110573604D01*
X122048330Y-110626345D01*
X122050975Y-110659696D01*
X122055810Y-110678071D01*
X122063491Y-110685885D01*
X122074672Y-110687554D01*
X122075222Y-110687556D01*
X122086563Y-110686047D01*
X122094376Y-110678576D01*
X122099317Y-110660729D01*
X122102039Y-110628089D01*
X122103197Y-110576243D01*
X122103444Y-110500774D01*
X122103445Y-110497056D01*
X122103221Y-110420508D01*
X122102114Y-110367767D01*
X122099470Y-110334416D01*
X122094635Y-110316041D01*
X122086954Y-110308226D01*
X122075773Y-110306557D01*
X122075222Y-110306556D01*
X122301000Y-110306556D01*
X122301000Y-110390072D01*
X122301000Y-110687556D01*
X122343022Y-110687556D01*
X122385044Y-110687556D01*
X122388883Y-110422972D01*
X122392722Y-110158389D01*
X122487972Y-110154217D01*
X122583222Y-110150044D01*
X122583170Y-110457606D01*
X122582960Y-110559744D01*
X122582162Y-110637695D01*
X122580459Y-110695489D01*
X122577536Y-110737160D01*
X122573077Y-110766740D01*
X122566768Y-110788261D01*
X122558291Y-110805756D01*
X122555571Y-110810343D01*
X122534594Y-110840585D01*
X122510813Y-110863149D01*
X122479940Y-110879132D01*
X122437690Y-110889632D01*
X122379774Y-110895748D01*
X122301905Y-110898578D01*
X122208584Y-110899222D01*
X122104592Y-110898195D01*
X122024925Y-110894551D01*
X121965740Y-110887450D01*
X121923194Y-110876048D01*
X121893446Y-110859505D01*
X121872652Y-110836979D01*
X121864782Y-110823902D01*
X121858549Y-110801474D01*
X121854249Y-110759732D01*
X121851798Y-110696474D01*
X121851112Y-110609500D01*
X121852106Y-110496609D01*
X121852156Y-110493170D01*
X121856500Y-110194148D01*
X121902593Y-110148046D01*
X121948686Y-110101945D01*
X122124843Y-110097266D01*
X122301000Y-110092587D01*
X122301000Y-110092587D01*
X122301000Y-110092587D01*
G37*
X122301000Y-110092587D02*
X122301000Y-110306556D01*
X122075222Y-110306556D01*
X122063882Y-110308065D01*
X122056068Y-110315535D01*
X122051128Y-110333383D01*
X122048405Y-110366022D01*
X122047248Y-110417869D01*
X122047000Y-110493337D01*
X122047000Y-110497056D01*
X122047224Y-110573604D01*
X122048330Y-110626345D01*
X122050975Y-110659696D01*
X122055810Y-110678071D01*
X122063491Y-110685885D01*
X122074672Y-110687554D01*
X122075222Y-110687556D01*
X122086563Y-110686047D01*
X122094376Y-110678576D01*
X122099317Y-110660729D01*
X122102039Y-110628089D01*
X122103197Y-110576243D01*
X122103444Y-110500774D01*
X122103445Y-110497056D01*
X122103221Y-110420508D01*
X122102114Y-110367767D01*
X122099470Y-110334416D01*
X122094635Y-110316041D01*
X122086954Y-110308226D01*
X122075773Y-110306557D01*
X122075222Y-110306556D01*
X122301000Y-110306556D01*
X122301000Y-110390072D01*
X122301000Y-110687556D01*
X122343022Y-110687556D01*
X122385044Y-110687556D01*
X122388883Y-110422972D01*
X122392722Y-110158389D01*
X122487972Y-110154217D01*
X122583222Y-110150044D01*
X122583170Y-110457606D01*
X122582960Y-110559744D01*
X122582162Y-110637695D01*
X122580459Y-110695489D01*
X122577536Y-110737160D01*
X122573077Y-110766740D01*
X122566768Y-110788261D01*
X122558291Y-110805756D01*
X122555571Y-110810343D01*
X122534594Y-110840585D01*
X122510813Y-110863149D01*
X122479940Y-110879132D01*
X122437690Y-110889632D01*
X122379774Y-110895748D01*
X122301905Y-110898578D01*
X122208584Y-110899222D01*
X122104592Y-110898195D01*
X122024925Y-110894551D01*
X121965740Y-110887450D01*
X121923194Y-110876048D01*
X121893446Y-110859505D01*
X121872652Y-110836979D01*
X121864782Y-110823902D01*
X121858549Y-110801474D01*
X121854249Y-110759732D01*
X121851798Y-110696474D01*
X121851112Y-110609500D01*
X121852106Y-110496609D01*
X121852156Y-110493170D01*
X121856500Y-110194148D01*
X121902593Y-110148046D01*
X121948686Y-110101945D01*
X122124843Y-110097266D01*
X122301000Y-110092587D01*
X122301000Y-110092587D01*
G36*
X122583222Y-108767155D02*
X122582231Y-109102939D01*
X122581561Y-109198438D01*
X122580217Y-109285207D01*
X122578324Y-109359033D01*
X122576005Y-109415705D01*
X122573387Y-109451008D01*
X122571647Y-109460364D01*
X122539470Y-109512225D01*
X122498135Y-109550916D01*
X122488900Y-109556428D01*
X122460409Y-109563262D01*
X122404621Y-109568293D01*
X122322409Y-109571473D01*
X122214643Y-109572753D01*
X122195009Y-109572778D01*
X121931940Y-109572778D01*
X121890692Y-109531530D01*
X121849445Y-109490282D01*
X121849445Y-109164641D01*
X121849445Y-108839000D01*
X121948222Y-108839000D01*
X122047000Y-108839000D01*
X122047000Y-109100056D01*
X122047000Y-109361111D01*
X122216047Y-109361111D01*
X122385094Y-109361111D01*
X122388908Y-109068306D01*
X122392722Y-108775500D01*
X122487972Y-108771328D01*
X122583222Y-108767155D01*
X122583222Y-108767155D01*
X122583222Y-108767155D01*
G37*
X122583222Y-108767155D02*
X122582231Y-109102939D01*
X122581561Y-109198438D01*
X122580217Y-109285207D01*
X122578324Y-109359033D01*
X122576005Y-109415705D01*
X122573387Y-109451008D01*
X122571647Y-109460364D01*
X122539470Y-109512225D01*
X122498135Y-109550916D01*
X122488900Y-109556428D01*
X122460409Y-109563262D01*
X122404621Y-109568293D01*
X122322409Y-109571473D01*
X122214643Y-109572753D01*
X122195009Y-109572778D01*
X121931940Y-109572778D01*
X121890692Y-109531530D01*
X121849445Y-109490282D01*
X121849445Y-109164641D01*
X121849445Y-108839000D01*
X121948222Y-108839000D01*
X122047000Y-108839000D01*
X122047000Y-109100056D01*
X122047000Y-109361111D01*
X122216047Y-109361111D01*
X122385094Y-109361111D01*
X122388908Y-109068306D01*
X122392722Y-108775500D01*
X122487972Y-108771328D01*
X122583222Y-108767155D01*
X122583222Y-108767155D01*
G36*
X122583222Y-107878155D02*
X122583222Y-108045473D01*
X122582728Y-108118282D01*
X122580701Y-108168538D01*
X122576322Y-108201904D01*
X122568774Y-108224039D01*
X122557238Y-108240604D01*
X122554610Y-108243502D01*
X122519550Y-108270508D01*
X122487582Y-108284968D01*
X122463543Y-108287833D01*
X122415423Y-108290410D01*
X122347363Y-108292593D01*
X122263502Y-108294277D01*
X122167983Y-108295356D01*
X122068167Y-108295722D01*
X121687167Y-108295722D01*
X121683035Y-108194139D01*
X121678904Y-108092556D01*
X121760647Y-108088306D01*
X121842389Y-108084056D01*
X121846535Y-107981750D01*
X121850681Y-107879445D01*
X121948222Y-107879445D01*
X122045764Y-107879445D01*
X122049910Y-107981750D01*
X122054056Y-108084056D01*
X122219234Y-108088026D01*
X122384413Y-108091996D01*
X122388567Y-107989248D01*
X122392722Y-107886500D01*
X122487972Y-107882328D01*
X122583222Y-107878155D01*
X122583222Y-107878155D01*
X122583222Y-107878155D01*
G37*
X122583222Y-107878155D02*
X122583222Y-108045473D01*
X122582728Y-108118282D01*
X122580701Y-108168538D01*
X122576322Y-108201904D01*
X122568774Y-108224039D01*
X122557238Y-108240604D01*
X122554610Y-108243502D01*
X122519550Y-108270508D01*
X122487582Y-108284968D01*
X122463543Y-108287833D01*
X122415423Y-108290410D01*
X122347363Y-108292593D01*
X122263502Y-108294277D01*
X122167983Y-108295356D01*
X122068167Y-108295722D01*
X121687167Y-108295722D01*
X121683035Y-108194139D01*
X121678904Y-108092556D01*
X121760647Y-108088306D01*
X121842389Y-108084056D01*
X121846535Y-107981750D01*
X121850681Y-107879445D01*
X121948222Y-107879445D01*
X122045764Y-107879445D01*
X122049910Y-107981750D01*
X122054056Y-108084056D01*
X122219234Y-108088026D01*
X122384413Y-108091996D01*
X122388567Y-107989248D01*
X122392722Y-107886500D01*
X122487972Y-107882328D01*
X122583222Y-107878155D01*
X122583222Y-107878155D01*
G36*
X122047000Y-106976334D02*
X122047000Y-107082167D01*
X122047000Y-107188000D01*
X122315111Y-107188000D01*
X122583222Y-107188000D01*
X122583222Y-107293834D01*
X122583222Y-107399667D01*
X122216334Y-107399667D01*
X121849445Y-107399667D01*
X121849445Y-107293834D01*
X121851280Y-107238183D01*
X121856358Y-107201351D01*
X121864035Y-107188000D01*
X121864052Y-107188000D01*
X121871452Y-107179362D01*
X121864052Y-107160706D01*
X121855814Y-107131540D01*
X121850517Y-107086335D01*
X121849445Y-107054872D01*
X121849445Y-106976334D01*
X121948222Y-106976334D01*
X122047000Y-106976334D01*
X122047000Y-106976334D01*
X122047000Y-106976334D01*
G37*
X122047000Y-106976334D02*
X122047000Y-107082167D01*
X122047000Y-107188000D01*
X122315111Y-107188000D01*
X122583222Y-107188000D01*
X122583222Y-107293834D01*
X122583222Y-107399667D01*
X122216334Y-107399667D01*
X121849445Y-107399667D01*
X121849445Y-107293834D01*
X121851280Y-107238183D01*
X121856358Y-107201351D01*
X121864035Y-107188000D01*
X121864052Y-107188000D01*
X121871452Y-107179362D01*
X121864052Y-107160706D01*
X121855814Y-107131540D01*
X121850517Y-107086335D01*
X121849445Y-107054872D01*
X121849445Y-106976334D01*
X121948222Y-106976334D01*
X122047000Y-106976334D01*
X122047000Y-106976334D01*
G36*
X122583222Y-103940995D02*
X122583222Y-104040186D01*
X122583222Y-104139378D01*
X122318639Y-104143217D01*
X122054056Y-104147056D01*
X122050130Y-104341084D01*
X122046204Y-104535111D01*
X122314713Y-104535111D01*
X122583222Y-104535111D01*
X122583222Y-104640945D01*
X122583222Y-104746778D01*
X122216334Y-104746778D01*
X121849445Y-104746778D01*
X121849445Y-104387732D01*
X121849445Y-104028685D01*
X121883477Y-103989093D01*
X121917510Y-103949500D01*
X122250366Y-103945248D01*
X122583222Y-103940995D01*
X122583222Y-103940995D01*
X122583222Y-103940995D01*
G37*
X122583222Y-103940995D02*
X122583222Y-104040186D01*
X122583222Y-104139378D01*
X122318639Y-104143217D01*
X122054056Y-104147056D01*
X122050130Y-104341084D01*
X122046204Y-104535111D01*
X122314713Y-104535111D01*
X122583222Y-104535111D01*
X122583222Y-104640945D01*
X122583222Y-104746778D01*
X122216334Y-104746778D01*
X121849445Y-104746778D01*
X121849445Y-104387732D01*
X121849445Y-104028685D01*
X121883477Y-103989093D01*
X121917510Y-103949500D01*
X122250366Y-103945248D01*
X122583222Y-103940995D01*
X122583222Y-103940995D01*
G36*
X122583222Y-102658334D02*
X122583222Y-102762991D01*
X122580929Y-102826673D01*
X122573941Y-102863513D01*
X122565584Y-102874116D01*
X122555021Y-102883539D01*
X122565584Y-102899281D01*
X122572928Y-102917231D01*
X122578171Y-102954800D01*
X122581485Y-103014447D01*
X122583046Y-103098632D01*
X122583222Y-103148663D01*
X122583096Y-103234223D01*
X122582302Y-103296174D01*
X122580220Y-103339131D01*
X122576228Y-103367709D01*
X122569706Y-103386520D01*
X122560032Y-103400180D01*
X122547744Y-103412228D01*
X122528784Y-103427883D01*
X122507388Y-103439940D01*
X122479789Y-103448864D01*
X122442216Y-103455115D01*
X122390900Y-103459158D01*
X122322073Y-103461455D01*
X122231966Y-103462469D01*
X122136959Y-103462667D01*
X121849445Y-103462667D01*
X121849445Y-103356834D01*
X121849445Y-103251000D01*
X122117556Y-103251000D01*
X122385667Y-103251000D01*
X122385667Y-103060500D01*
X122385667Y-102870000D01*
X122117556Y-102870000D01*
X121849445Y-102870000D01*
X121849445Y-102764167D01*
X121849445Y-102658334D01*
X122216334Y-102658334D01*
X122583222Y-102658334D01*
X122583222Y-102658334D01*
X122583222Y-102658334D01*
G37*
X122583222Y-102658334D02*
X122583222Y-102762991D01*
X122580929Y-102826673D01*
X122573941Y-102863513D01*
X122565584Y-102874116D01*
X122555021Y-102883539D01*
X122565584Y-102899281D01*
X122572928Y-102917231D01*
X122578171Y-102954800D01*
X122581485Y-103014447D01*
X122583046Y-103098632D01*
X122583222Y-103148663D01*
X122583096Y-103234223D01*
X122582302Y-103296174D01*
X122580220Y-103339131D01*
X122576228Y-103367709D01*
X122569706Y-103386520D01*
X122560032Y-103400180D01*
X122547744Y-103412228D01*
X122528784Y-103427883D01*
X122507388Y-103439940D01*
X122479789Y-103448864D01*
X122442216Y-103455115D01*
X122390900Y-103459158D01*
X122322073Y-103461455D01*
X122231966Y-103462469D01*
X122136959Y-103462667D01*
X121849445Y-103462667D01*
X121849445Y-103356834D01*
X121849445Y-103251000D01*
X122117556Y-103251000D01*
X122385667Y-103251000D01*
X122385667Y-103060500D01*
X122385667Y-102870000D01*
X122117556Y-102870000D01*
X121849445Y-102870000D01*
X121849445Y-102764167D01*
X121849445Y-102658334D01*
X122216334Y-102658334D01*
X122583222Y-102658334D01*
X122583222Y-102658334D01*
G36*
X122583222Y-101769334D02*
X122582793Y-101928084D01*
X122581319Y-101994540D01*
X122577657Y-102052359D01*
X122572388Y-102094612D01*
X122567241Y-102112850D01*
X122554109Y-102131083D01*
X122536165Y-102145643D01*
X122510354Y-102156932D01*
X122473623Y-102165353D01*
X122422917Y-102171309D01*
X122355182Y-102175201D01*
X122267363Y-102177433D01*
X122156407Y-102178407D01*
X122068620Y-102178556D01*
X121680111Y-102178556D01*
X121680111Y-102072722D01*
X121680111Y-101966889D01*
X121764778Y-101966889D01*
X121849445Y-101966889D01*
X121849445Y-101868111D01*
X121849445Y-101769334D01*
X121948222Y-101769334D01*
X122047000Y-101769334D01*
X122047000Y-101868111D01*
X122047000Y-101966889D01*
X122216334Y-101966889D01*
X122385667Y-101966889D01*
X122385667Y-101868111D01*
X122385667Y-101769334D01*
X122484445Y-101769334D01*
X122583222Y-101769334D01*
X122583222Y-101769334D01*
X122583222Y-101769334D01*
G37*
X122583222Y-101769334D02*
X122582793Y-101928084D01*
X122581319Y-101994540D01*
X122577657Y-102052359D01*
X122572388Y-102094612D01*
X122567241Y-102112850D01*
X122554109Y-102131083D01*
X122536165Y-102145643D01*
X122510354Y-102156932D01*
X122473623Y-102165353D01*
X122422917Y-102171309D01*
X122355182Y-102175201D01*
X122267363Y-102177433D01*
X122156407Y-102178407D01*
X122068620Y-102178556D01*
X121680111Y-102178556D01*
X121680111Y-102072722D01*
X121680111Y-101966889D01*
X121764778Y-101966889D01*
X121849445Y-101966889D01*
X121849445Y-101868111D01*
X121849445Y-101769334D01*
X121948222Y-101769334D01*
X122047000Y-101769334D01*
X122047000Y-101868111D01*
X122047000Y-101966889D01*
X122216334Y-101966889D01*
X122385667Y-101966889D01*
X122385667Y-101868111D01*
X122385667Y-101769334D01*
X122484445Y-101769334D01*
X122583222Y-101769334D01*
X122583222Y-101769334D01*
G36*
X122251611Y-106609445D02*
X122258667Y-106616500D01*
X122251611Y-106623556D01*
X122244556Y-106616500D01*
X122251611Y-106609445D01*
X122251611Y-106609445D01*
X122251611Y-106609445D01*
G37*
X122251611Y-106609445D02*
X122258667Y-106616500D01*
X122251611Y-106623556D01*
X122244556Y-106616500D01*
X122251611Y-106609445D01*
X122251611Y-106609445D01*
G36*
X122169217Y-105481887D02*
X122243451Y-105482887D01*
X122340164Y-105485636D01*
X122416549Y-105491272D01*
X122474992Y-105502824D01*
X122517876Y-105523319D01*
X122547587Y-105555786D01*
X122566509Y-105603252D01*
X122577027Y-105668744D01*
X122578247Y-105692222D01*
X122385667Y-105692222D01*
X122215935Y-105692222D01*
X122046204Y-105692222D01*
X122050130Y-105886118D01*
X122054056Y-106080014D01*
X122219861Y-106084976D01*
X122385667Y-106089938D01*
X122385667Y-105891080D01*
X122385667Y-105692222D01*
X122578247Y-105692222D01*
X122581526Y-105755292D01*
X122582390Y-105865922D01*
X122582267Y-105913077D01*
X122581218Y-106007459D01*
X122578883Y-106089926D01*
X122575471Y-106156309D01*
X122571192Y-106202439D01*
X122566718Y-106223307D01*
X122553537Y-106243871D01*
X122534083Y-106259373D01*
X122504607Y-106270496D01*
X122461364Y-106277926D01*
X122400606Y-106282343D01*
X122318586Y-106284433D01*
X122229080Y-106284889D01*
X122121142Y-106284672D01*
X122035880Y-106282037D01*
X121970619Y-106274010D01*
X121922690Y-106257616D01*
X121889418Y-106229879D01*
X121868132Y-106187825D01*
X121856159Y-106128480D01*
X121850829Y-106048867D01*
X121849467Y-105946013D01*
X121849445Y-105862257D01*
X121849611Y-105762800D01*
X121850329Y-105687679D01*
X121851927Y-105633007D01*
X121854736Y-105594899D01*
X121859083Y-105569470D01*
X121865298Y-105552832D01*
X121873709Y-105541101D01*
X121876923Y-105537745D01*
X121906196Y-105515838D01*
X121946374Y-105499851D01*
X122001145Y-105489232D01*
X122074197Y-105483427D01*
X122169217Y-105481887D01*
X122169217Y-105481887D01*
X122169217Y-105481887D01*
G37*
X122169217Y-105481887D02*
X122243451Y-105482887D01*
X122340164Y-105485636D01*
X122416549Y-105491272D01*
X122474992Y-105502824D01*
X122517876Y-105523319D01*
X122547587Y-105555786D01*
X122566509Y-105603252D01*
X122577027Y-105668744D01*
X122578247Y-105692222D01*
X122385667Y-105692222D01*
X122215935Y-105692222D01*
X122046204Y-105692222D01*
X122050130Y-105886118D01*
X122054056Y-106080014D01*
X122219861Y-106084976D01*
X122385667Y-106089938D01*
X122385667Y-105891080D01*
X122385667Y-105692222D01*
X122578247Y-105692222D01*
X122581526Y-105755292D01*
X122582390Y-105865922D01*
X122582267Y-105913077D01*
X122581218Y-106007459D01*
X122578883Y-106089926D01*
X122575471Y-106156309D01*
X122571192Y-106202439D01*
X122566718Y-106223307D01*
X122553537Y-106243871D01*
X122534083Y-106259373D01*
X122504607Y-106270496D01*
X122461364Y-106277926D01*
X122400606Y-106282343D01*
X122318586Y-106284433D01*
X122229080Y-106284889D01*
X122121142Y-106284672D01*
X122035880Y-106282037D01*
X121970619Y-106274010D01*
X121922690Y-106257616D01*
X121889418Y-106229879D01*
X121868132Y-106187825D01*
X121856159Y-106128480D01*
X121850829Y-106048867D01*
X121849467Y-105946013D01*
X121849445Y-105862257D01*
X121849611Y-105762800D01*
X121850329Y-105687679D01*
X121851927Y-105633007D01*
X121854736Y-105594899D01*
X121859083Y-105569470D01*
X121865298Y-105552832D01*
X121873709Y-105541101D01*
X121876923Y-105537745D01*
X121906196Y-105515838D01*
X121946374Y-105499851D01*
X122001145Y-105489232D01*
X122074197Y-105483427D01*
X122169217Y-105481887D01*
X122169217Y-105481887D01*
D16*
X142716238Y-99040952D02*
X142716238Y-98640952D01*
X142868619Y-98640952D01*
X142906714Y-98660000D01*
X142925762Y-98679048D01*
X142944810Y-98717143D01*
X142944810Y-98774286D01*
X142925762Y-98812381D01*
X142906714Y-98831429D01*
X142868619Y-98850476D01*
X142716238Y-98850476D01*
X143097190Y-98679048D02*
X143116238Y-98660000D01*
X143154333Y-98640952D01*
X143249571Y-98640952D01*
X143287667Y-98660000D01*
X143306714Y-98679048D01*
X143325762Y-98717143D01*
X143325762Y-98755238D01*
X143306714Y-98812381D01*
X143078143Y-99040952D01*
X143325762Y-99040952D01*
X132911810Y-114179357D02*
X132892762Y-114198405D01*
X132835619Y-114217452D01*
X132797524Y-114217452D01*
X132740381Y-114198405D01*
X132702286Y-114160310D01*
X132683238Y-114122214D01*
X132664190Y-114046024D01*
X132664190Y-113988881D01*
X132683238Y-113912690D01*
X132702286Y-113874595D01*
X132740381Y-113836500D01*
X132797524Y-113817452D01*
X132835619Y-113817452D01*
X132892762Y-113836500D01*
X132911810Y-113855548D01*
X133292762Y-114217452D02*
X133064190Y-114217452D01*
X133178476Y-114217452D02*
X133178476Y-113817452D01*
X133140381Y-113874595D01*
X133102286Y-113912690D01*
X133064190Y-113931738D01*
X132911810Y-112782357D02*
X132892762Y-112801405D01*
X132835619Y-112820452D01*
X132797524Y-112820452D01*
X132740381Y-112801405D01*
X132702286Y-112763310D01*
X132683238Y-112725214D01*
X132664190Y-112649024D01*
X132664190Y-112591881D01*
X132683238Y-112515690D01*
X132702286Y-112477595D01*
X132740381Y-112439500D01*
X132797524Y-112420452D01*
X132835619Y-112420452D01*
X132892762Y-112439500D01*
X132911810Y-112458548D01*
X133064190Y-112458548D02*
X133083238Y-112439500D01*
X133121333Y-112420452D01*
X133216571Y-112420452D01*
X133254667Y-112439500D01*
X133273714Y-112458548D01*
X133292762Y-112496643D01*
X133292762Y-112534738D01*
X133273714Y-112591881D01*
X133045143Y-112820452D01*
X133292762Y-112820452D01*
X132892858Y-111531357D02*
X132873810Y-111550405D01*
X132816667Y-111569452D01*
X132778572Y-111569452D01*
X132721429Y-111550405D01*
X132683334Y-111512310D01*
X132664286Y-111474214D01*
X132645238Y-111398024D01*
X132645238Y-111340881D01*
X132664286Y-111264690D01*
X132683334Y-111226595D01*
X132721429Y-111188500D01*
X132778572Y-111169452D01*
X132816667Y-111169452D01*
X132873810Y-111188500D01*
X132892858Y-111207548D01*
X133026191Y-111169452D02*
X133273810Y-111169452D01*
X133140477Y-111321833D01*
X133197619Y-111321833D01*
X133235715Y-111340881D01*
X133254762Y-111359929D01*
X133273810Y-111398024D01*
X133273810Y-111493262D01*
X133254762Y-111531357D01*
X133235715Y-111550405D01*
X133197619Y-111569452D01*
X133083334Y-111569452D01*
X133045238Y-111550405D01*
X133026191Y-111531357D01*
X133146858Y-104482857D02*
X133127810Y-104501905D01*
X133070667Y-104520952D01*
X133032572Y-104520952D01*
X132975429Y-104501905D01*
X132937334Y-104463810D01*
X132918286Y-104425714D01*
X132899238Y-104349524D01*
X132899238Y-104292381D01*
X132918286Y-104216190D01*
X132937334Y-104178095D01*
X132975429Y-104140000D01*
X133032572Y-104120952D01*
X133070667Y-104120952D01*
X133127810Y-104140000D01*
X133146858Y-104159048D01*
X133489715Y-104120952D02*
X133413524Y-104120952D01*
X133375429Y-104140000D01*
X133356381Y-104159048D01*
X133318286Y-104216190D01*
X133299238Y-104292381D01*
X133299238Y-104444762D01*
X133318286Y-104482857D01*
X133337334Y-104501905D01*
X133375429Y-104520952D01*
X133451619Y-104520952D01*
X133489715Y-104501905D01*
X133508762Y-104482857D01*
X133527810Y-104444762D01*
X133527810Y-104349524D01*
X133508762Y-104311429D01*
X133489715Y-104292381D01*
X133451619Y-104273333D01*
X133375429Y-104273333D01*
X133337334Y-104292381D01*
X133318286Y-104311429D01*
X133299238Y-104349524D01*
X133546810Y-103193857D02*
X133527762Y-103212905D01*
X133470619Y-103231952D01*
X133432524Y-103231952D01*
X133375381Y-103212905D01*
X133337286Y-103174810D01*
X133318238Y-103136714D01*
X133299190Y-103060524D01*
X133299190Y-103003381D01*
X133318238Y-102927190D01*
X133337286Y-102889095D01*
X133375381Y-102851000D01*
X133432524Y-102831952D01*
X133470619Y-102831952D01*
X133527762Y-102851000D01*
X133546810Y-102870048D01*
X133680143Y-102831952D02*
X133946810Y-102831952D01*
X133775381Y-103231952D01*
X133546810Y-101669857D02*
X133527762Y-101688905D01*
X133470619Y-101707952D01*
X133432524Y-101707952D01*
X133375381Y-101688905D01*
X133337286Y-101650810D01*
X133318238Y-101612714D01*
X133299190Y-101536524D01*
X133299190Y-101479381D01*
X133318238Y-101403190D01*
X133337286Y-101365095D01*
X133375381Y-101327000D01*
X133432524Y-101307952D01*
X133470619Y-101307952D01*
X133527762Y-101327000D01*
X133546810Y-101346048D01*
X133775381Y-101479381D02*
X133737286Y-101460333D01*
X133718238Y-101441286D01*
X133699190Y-101403190D01*
X133699190Y-101384143D01*
X133718238Y-101346048D01*
X133737286Y-101327000D01*
X133775381Y-101307952D01*
X133851571Y-101307952D01*
X133889667Y-101327000D01*
X133908714Y-101346048D01*
X133927762Y-101384143D01*
X133927762Y-101403190D01*
X133908714Y-101441286D01*
X133889667Y-101460333D01*
X133851571Y-101479381D01*
X133775381Y-101479381D01*
X133737286Y-101498429D01*
X133718238Y-101517476D01*
X133699190Y-101555571D01*
X133699190Y-101631762D01*
X133718238Y-101669857D01*
X133737286Y-101688905D01*
X133775381Y-101707952D01*
X133851571Y-101707952D01*
X133889667Y-101688905D01*
X133908714Y-101669857D01*
X133927762Y-101631762D01*
X133927762Y-101555571D01*
X133908714Y-101517476D01*
X133889667Y-101498429D01*
X133851571Y-101479381D01*
X133546810Y-100399857D02*
X133527762Y-100418905D01*
X133470619Y-100437952D01*
X133432524Y-100437952D01*
X133375381Y-100418905D01*
X133337286Y-100380810D01*
X133318238Y-100342714D01*
X133299190Y-100266524D01*
X133299190Y-100209381D01*
X133318238Y-100133190D01*
X133337286Y-100095095D01*
X133375381Y-100057000D01*
X133432524Y-100037952D01*
X133470619Y-100037952D01*
X133527762Y-100057000D01*
X133546810Y-100076048D01*
X133737286Y-100437952D02*
X133813476Y-100437952D01*
X133851571Y-100418905D01*
X133870619Y-100399857D01*
X133908714Y-100342714D01*
X133927762Y-100266524D01*
X133927762Y-100114143D01*
X133908714Y-100076048D01*
X133889667Y-100057000D01*
X133851571Y-100037952D01*
X133775381Y-100037952D01*
X133737286Y-100057000D01*
X133718238Y-100076048D01*
X133699190Y-100114143D01*
X133699190Y-100209381D01*
X133718238Y-100247476D01*
X133737286Y-100266524D01*
X133775381Y-100285571D01*
X133851571Y-100285571D01*
X133889667Y-100266524D01*
X133908714Y-100247476D01*
X133927762Y-100209381D01*
X124567905Y-110128048D02*
X124529810Y-110109000D01*
X124491714Y-110070905D01*
X124434571Y-110013762D01*
X124396476Y-109994714D01*
X124358381Y-109994714D01*
X124377429Y-110089952D02*
X124339333Y-110070905D01*
X124301238Y-110032810D01*
X124282190Y-109956619D01*
X124282190Y-109823286D01*
X124301238Y-109747095D01*
X124339333Y-109709000D01*
X124377429Y-109689952D01*
X124453619Y-109689952D01*
X124491714Y-109709000D01*
X124529810Y-109747095D01*
X124548857Y-109823286D01*
X124548857Y-109956619D01*
X124529810Y-110032810D01*
X124491714Y-110070905D01*
X124453619Y-110089952D01*
X124377429Y-110089952D01*
X124929810Y-110089952D02*
X124701238Y-110089952D01*
X124815524Y-110089952D02*
X124815524Y-109689952D01*
X124777429Y-109747095D01*
X124739334Y-109785190D01*
X124701238Y-109804238D01*
X141020858Y-109791452D02*
X140887524Y-109600976D01*
X140792286Y-109791452D02*
X140792286Y-109391452D01*
X140944667Y-109391452D01*
X140982762Y-109410500D01*
X141001810Y-109429548D01*
X141020858Y-109467643D01*
X141020858Y-109524786D01*
X141001810Y-109562881D01*
X140982762Y-109581929D01*
X140944667Y-109600976D01*
X140792286Y-109600976D01*
X141401810Y-109791452D02*
X141173238Y-109791452D01*
X141287524Y-109791452D02*
X141287524Y-109391452D01*
X141249429Y-109448595D01*
X141211334Y-109486690D01*
X141173238Y-109505738D01*
X134543858Y-99567952D02*
X134410524Y-99377476D01*
X134315286Y-99567952D02*
X134315286Y-99167952D01*
X134467667Y-99167952D01*
X134505762Y-99187000D01*
X134524810Y-99206048D01*
X134543858Y-99244143D01*
X134543858Y-99301286D01*
X134524810Y-99339381D01*
X134505762Y-99358429D01*
X134467667Y-99377476D01*
X134315286Y-99377476D01*
X134696238Y-99206048D02*
X134715286Y-99187000D01*
X134753381Y-99167952D01*
X134848619Y-99167952D01*
X134886715Y-99187000D01*
X134905762Y-99206048D01*
X134924810Y-99244143D01*
X134924810Y-99282238D01*
X134905762Y-99339381D01*
X134677191Y-99567952D01*
X134924810Y-99567952D01*
X135940858Y-99567952D02*
X135807524Y-99377476D01*
X135712286Y-99567952D02*
X135712286Y-99167952D01*
X135864667Y-99167952D01*
X135902762Y-99187000D01*
X135921810Y-99206048D01*
X135940858Y-99244143D01*
X135940858Y-99301286D01*
X135921810Y-99339381D01*
X135902762Y-99358429D01*
X135864667Y-99377476D01*
X135712286Y-99377476D01*
X136074191Y-99167952D02*
X136321810Y-99167952D01*
X136188477Y-99320333D01*
X136245619Y-99320333D01*
X136283715Y-99339381D01*
X136302762Y-99358429D01*
X136321810Y-99396524D01*
X136321810Y-99491762D01*
X136302762Y-99529857D01*
X136283715Y-99548905D01*
X136245619Y-99567952D01*
X136131334Y-99567952D01*
X136093238Y-99548905D01*
X136074191Y-99529857D01*
X138861858Y-99567952D02*
X138728524Y-99377476D01*
X138633286Y-99567952D02*
X138633286Y-99167952D01*
X138785667Y-99167952D01*
X138823762Y-99187000D01*
X138842810Y-99206048D01*
X138861858Y-99244143D01*
X138861858Y-99301286D01*
X138842810Y-99339381D01*
X138823762Y-99358429D01*
X138785667Y-99377476D01*
X138633286Y-99377476D01*
X139204715Y-99301286D02*
X139204715Y-99567952D01*
X139109477Y-99148905D02*
X139014238Y-99434619D01*
X139261858Y-99434619D01*
X142163858Y-105409952D02*
X142030524Y-105219476D01*
X141935286Y-105409952D02*
X141935286Y-105009952D01*
X142087667Y-105009952D01*
X142125762Y-105029000D01*
X142144810Y-105048048D01*
X142163858Y-105086143D01*
X142163858Y-105143286D01*
X142144810Y-105181381D01*
X142125762Y-105200429D01*
X142087667Y-105219476D01*
X141935286Y-105219476D01*
X142525762Y-105009952D02*
X142335286Y-105009952D01*
X142316238Y-105200429D01*
X142335286Y-105181381D01*
X142373381Y-105162333D01*
X142468619Y-105162333D01*
X142506715Y-105181381D01*
X142525762Y-105200429D01*
X142544810Y-105238524D01*
X142544810Y-105333762D01*
X142525762Y-105371857D01*
X142506715Y-105390905D01*
X142468619Y-105409952D01*
X142373381Y-105409952D01*
X142335286Y-105390905D01*
X142316238Y-105371857D01*
X133026238Y-106279952D02*
X133026238Y-106603762D01*
X133045286Y-106641857D01*
X133064333Y-106660905D01*
X133102429Y-106679952D01*
X133178619Y-106679952D01*
X133216714Y-106660905D01*
X133235762Y-106641857D01*
X133254810Y-106603762D01*
X133254810Y-106279952D01*
X133654810Y-106679952D02*
X133426238Y-106679952D01*
X133540524Y-106679952D02*
X133540524Y-106279952D01*
X133502429Y-106337095D01*
X133464334Y-106375190D01*
X133426238Y-106394238D01*
D17*
X143469663Y-105463400D02*
X143469663Y-105064620D01*
X143564610Y-105064620D01*
X143621579Y-105083610D01*
X143659558Y-105121589D01*
X143678547Y-105159568D01*
X143697537Y-105235526D01*
X143697537Y-105292495D01*
X143678547Y-105368453D01*
X143659558Y-105406432D01*
X143621579Y-105444411D01*
X143564610Y-105463400D01*
X143469663Y-105463400D01*
X144077327Y-105463400D02*
X143849453Y-105463400D01*
X143963390Y-105463400D02*
X143963390Y-105064620D01*
X143925411Y-105121589D01*
X143887432Y-105159568D01*
X143849453Y-105178558D01*
D16*
X137401358Y-101434857D02*
X137382310Y-101453905D01*
X137325167Y-101472952D01*
X137287072Y-101472952D01*
X137229929Y-101453905D01*
X137191834Y-101415810D01*
X137172786Y-101377714D01*
X137153738Y-101301524D01*
X137153738Y-101244381D01*
X137172786Y-101168190D01*
X137191834Y-101130095D01*
X137229929Y-101092000D01*
X137287072Y-101072952D01*
X137325167Y-101072952D01*
X137382310Y-101092000D01*
X137401358Y-101111048D01*
X137763262Y-101072952D02*
X137572786Y-101072952D01*
X137553738Y-101263429D01*
X137572786Y-101244381D01*
X137610881Y-101225333D01*
X137706119Y-101225333D01*
X137744215Y-101244381D01*
X137763262Y-101263429D01*
X137782310Y-101301524D01*
X137782310Y-101396762D01*
X137763262Y-101434857D01*
X137744215Y-101453905D01*
X137706119Y-101472952D01*
X137610881Y-101472952D01*
X137572786Y-101453905D01*
X137553738Y-101434857D01*
X135496358Y-105181357D02*
X135477310Y-105200405D01*
X135420167Y-105219452D01*
X135382072Y-105219452D01*
X135324929Y-105200405D01*
X135286834Y-105162310D01*
X135267786Y-105124214D01*
X135248738Y-105048024D01*
X135248738Y-104990881D01*
X135267786Y-104914690D01*
X135286834Y-104876595D01*
X135324929Y-104838500D01*
X135382072Y-104819452D01*
X135420167Y-104819452D01*
X135477310Y-104838500D01*
X135496358Y-104857548D01*
X135839215Y-104952786D02*
X135839215Y-105219452D01*
X135743977Y-104800405D02*
X135648738Y-105086119D01*
X135896358Y-105086119D01*
X139141286Y-103758952D02*
X139141286Y-103358952D01*
X139293667Y-103358952D01*
X139331762Y-103378000D01*
X139350810Y-103397048D01*
X139369858Y-103435143D01*
X139369858Y-103492286D01*
X139350810Y-103530381D01*
X139331762Y-103549429D01*
X139293667Y-103568476D01*
X139141286Y-103568476D01*
X139750810Y-103758952D02*
X139522238Y-103758952D01*
X139636524Y-103758952D02*
X139636524Y-103358952D01*
X139598429Y-103416095D01*
X139560334Y-103454190D01*
X139522238Y-103473238D01*
D14*
X127805167Y-109638167D02*
X127805167Y-109971500D01*
X127105167Y-109971500D01*
X127805167Y-109038167D02*
X127805167Y-109438167D01*
X127805167Y-109238167D02*
X127105167Y-109238167D01*
X127205167Y-109304833D01*
X127271833Y-109371500D01*
X127305167Y-109438167D01*
%LPC*%
D18*
X143002000Y-100584000D03*
D19*
X143002000Y-103124000D03*
D20*
X134278000Y-114109500D03*
X135978000Y-114109500D03*
X134278000Y-112712500D03*
X135978000Y-112712500D03*
D21*
X134478000Y-111315500D03*
X135778000Y-111315500D03*
X132222000Y-104394000D03*
X130922000Y-104394000D03*
D20*
X132422000Y-102997000D03*
X130722000Y-102997000D03*
X132422000Y-101600000D03*
X130722000Y-101600000D03*
X132422000Y-100203000D03*
X130722000Y-100203000D03*
D22*
X126492000Y-110236000D03*
X127381000Y-112268000D03*
X125603000Y-112268000D03*
D20*
X141947000Y-110934500D03*
X140247000Y-110934500D03*
D23*
X134747000Y-100623000D03*
X134747000Y-102323000D03*
X136144000Y-102323000D03*
X136144000Y-100623000D03*
X138938000Y-100623000D03*
X138938000Y-102323000D03*
X142240000Y-108165000D03*
X142240000Y-106465000D03*
D24*
X134191500Y-109933000D03*
X134691500Y-109933000D03*
X135191500Y-109933000D03*
X135691500Y-109933000D03*
X136191500Y-109933000D03*
X136191500Y-106983000D03*
X135691500Y-106983000D03*
X135191500Y-106983000D03*
X134691500Y-106983000D03*
X134191500Y-106983000D03*
D25*
X135191500Y-108458000D03*
D26*
X133766500Y-107858000D03*
X133766500Y-108258000D03*
X133766500Y-108658000D03*
X133766500Y-109058000D03*
X136616500Y-109058000D03*
X136616500Y-108658000D03*
X136616500Y-108258000D03*
X136616500Y-107858000D03*
D27*
X143764000Y-106438700D03*
X143764000Y-107937300D03*
D28*
X137541000Y-102283500D03*
X137541000Y-103583500D03*
X136715500Y-105742500D03*
X136715500Y-104442500D03*
D29*
X140589000Y-100520500D03*
X140589000Y-103060500D03*
X140589000Y-101790500D03*
D30*
X130238500Y-110021500D03*
X130238500Y-107021500D03*
D31*
X126520000Y-106800000D03*
X139220000Y-106800000D03*
M02*
