G04 #@! TF.FileFunction,Legend,Top*
%FSLAX46Y46*%
G04 Gerber Fmt 4.6, Leading zero omitted, Abs format (unit mm)*
G04 Created by KiCad (PCBNEW 4.0.6) date 07/28/17 12:18:36*
%MOMM*%
%LPD*%
G01*
G04 APERTURE LIST*
%ADD10C,0.100000*%
%ADD11C,0.200000*%
%ADD12C,0.150000*%
%ADD13C,0.050000*%
%ADD14C,0.010000*%
%ADD15C,0.127000*%
%ADD16C,0.120000*%
%ADD17C,0.080000*%
%ADD18R,0.650000X1.060000*%
%ADD19C,3.216000*%
%ADD20R,1.651000X1.651000*%
%ADD21C,1.651000*%
%ADD22R,1.100000X1.000000*%
%ADD23R,3.700000X1.200000*%
%ADD24R,1.016000X1.143000*%
%ADD25R,1.000000X1.100000*%
%ADD26R,0.800000X0.800000*%
%ADD27C,0.800000*%
%ADD28R,1.200000X1.200000*%
%ADD29R,1.500000X1.000000*%
%ADD30R,0.600000X0.500000*%
%ADD31R,0.800000X0.150000*%
G04 APERTURE END LIST*
D10*
X152908000Y-99949000D02*
X159131000Y-99949000D01*
X152908000Y-97409000D02*
X159131000Y-97409000D01*
X152908000Y-98425000D02*
X159131000Y-98425000D01*
X152908000Y-100965000D02*
X159131000Y-100965000D01*
X159131000Y-100965000D02*
G75*
G03X159131000Y-99949000I-508000J508000D01*
G01*
X152908000Y-99949000D02*
X152908000Y-100965000D01*
X152908000Y-97409000D02*
X152908000Y-98425000D01*
X159131000Y-98425000D02*
G75*
G03X159131000Y-97409000I-508000J508000D01*
G01*
D11*
X160750190Y-97954714D02*
X159797809Y-97954714D01*
D10*
X136637381Y-97859810D02*
X136708809Y-97897905D01*
X136861190Y-97897905D01*
X136942143Y-97859810D01*
X136989762Y-97783619D01*
X136994524Y-97745524D01*
X136965952Y-97669333D01*
X136894523Y-97631238D01*
X136780238Y-97631238D01*
X136708809Y-97593143D01*
X136680238Y-97516952D01*
X136685000Y-97478857D01*
X136732619Y-97402667D01*
X136813572Y-97364571D01*
X136927857Y-97364571D01*
X136999286Y-97402667D01*
X137385000Y-97364571D02*
X137318333Y-97897905D01*
X137375476Y-97440762D02*
X137418333Y-97402667D01*
X137499286Y-97364571D01*
X137613572Y-97364571D01*
X137685000Y-97402667D01*
X137713571Y-97478857D01*
X137661190Y-97897905D01*
X138385000Y-97897905D02*
X138437381Y-97478857D01*
X138408810Y-97402667D01*
X138337382Y-97364571D01*
X138185001Y-97364571D01*
X138104048Y-97402667D01*
X138389762Y-97859810D02*
X138308810Y-97897905D01*
X138118334Y-97897905D01*
X138046905Y-97859810D01*
X138018334Y-97783619D01*
X138027857Y-97707429D01*
X138075476Y-97631238D01*
X138156429Y-97593143D01*
X138346905Y-97593143D01*
X138427857Y-97555048D01*
X138832620Y-97364571D02*
X138732620Y-98164571D01*
X138827858Y-97402667D02*
X138908811Y-97364571D01*
X139061192Y-97364571D01*
X139132620Y-97402667D01*
X139165953Y-97440762D01*
X139194525Y-97516952D01*
X139165954Y-97745524D01*
X139118334Y-97821714D01*
X139075477Y-97859810D01*
X138994525Y-97897905D01*
X138842144Y-97897905D01*
X138770715Y-97859810D01*
X139475477Y-97097905D02*
X139642144Y-97897905D01*
X140008811Y-97097905D01*
X140642144Y-97821714D02*
X140599287Y-97859810D01*
X140480239Y-97897905D01*
X140404049Y-97897905D01*
X140294525Y-97859810D01*
X140227858Y-97783619D01*
X140199286Y-97707429D01*
X140180239Y-97555048D01*
X140194525Y-97440762D01*
X140251667Y-97288381D01*
X140299286Y-97212190D01*
X140385001Y-97136000D01*
X140504049Y-97097905D01*
X140580239Y-97097905D01*
X140689763Y-97136000D01*
X140723096Y-97174095D01*
X141442144Y-97821714D02*
X141399287Y-97859810D01*
X141280239Y-97897905D01*
X141204049Y-97897905D01*
X141094525Y-97859810D01*
X141027858Y-97783619D01*
X140999286Y-97707429D01*
X140980239Y-97555048D01*
X140994525Y-97440762D01*
X141051667Y-97288381D01*
X141099286Y-97212190D01*
X141185001Y-97136000D01*
X141304049Y-97097905D01*
X141380239Y-97097905D01*
X141489763Y-97136000D01*
X141523096Y-97174095D01*
X142437382Y-97174095D02*
X142480239Y-97136000D01*
X142561192Y-97097905D01*
X142751668Y-97097905D01*
X142823096Y-97136000D01*
X142856430Y-97174095D01*
X142885001Y-97250286D01*
X142875478Y-97326476D01*
X142823097Y-97440762D01*
X142308811Y-97897905D01*
X142804049Y-97897905D01*
X143156430Y-97821714D02*
X143189763Y-97859810D01*
X143146906Y-97897905D01*
X143113573Y-97859810D01*
X143156430Y-97821714D01*
X143146906Y-97897905D01*
X143780239Y-97097905D02*
X143856430Y-97097905D01*
X143927858Y-97136000D01*
X143961191Y-97174095D01*
X143989763Y-97250286D01*
X144008811Y-97402667D01*
X143985001Y-97593143D01*
X143927859Y-97745524D01*
X143880239Y-97821714D01*
X143837382Y-97859810D01*
X143756430Y-97897905D01*
X143680239Y-97897905D01*
X143608811Y-97859810D01*
X143575477Y-97821714D01*
X143546906Y-97745524D01*
X143527858Y-97593143D01*
X143551668Y-97402667D01*
X143608810Y-97250286D01*
X143656429Y-97174095D01*
X143699287Y-97136000D01*
X143780239Y-97097905D01*
D12*
X156680048Y-101542905D02*
X157175286Y-101542905D01*
X156908619Y-101847667D01*
X157022905Y-101847667D01*
X157099095Y-101885762D01*
X157137191Y-101923857D01*
X157175286Y-102000048D01*
X157175286Y-102190524D01*
X157137191Y-102266714D01*
X157099095Y-102304810D01*
X157022905Y-102342905D01*
X156794333Y-102342905D01*
X156718143Y-102304810D01*
X156680048Y-102266714D01*
X157518143Y-102266714D02*
X157556238Y-102304810D01*
X157518143Y-102342905D01*
X157480048Y-102304810D01*
X157518143Y-102266714D01*
X157518143Y-102342905D01*
X157822905Y-101542905D02*
X158318143Y-101542905D01*
X158051476Y-101847667D01*
X158165762Y-101847667D01*
X158241952Y-101885762D01*
X158280048Y-101923857D01*
X158318143Y-102000048D01*
X158318143Y-102190524D01*
X158280048Y-102266714D01*
X158241952Y-102304810D01*
X158165762Y-102342905D01*
X157937190Y-102342905D01*
X157861000Y-102304810D01*
X157822905Y-102266714D01*
X158546714Y-101542905D02*
X158813381Y-102342905D01*
X159080048Y-101542905D01*
X157200620Y-111956905D02*
X156819667Y-111956905D01*
X156781572Y-112337857D01*
X156819667Y-112299762D01*
X156895858Y-112261667D01*
X157086334Y-112261667D01*
X157162524Y-112299762D01*
X157200620Y-112337857D01*
X157238715Y-112414048D01*
X157238715Y-112604524D01*
X157200620Y-112680714D01*
X157162524Y-112718810D01*
X157086334Y-112756905D01*
X156895858Y-112756905D01*
X156819667Y-112718810D01*
X156781572Y-112680714D01*
X157467286Y-111956905D02*
X157733953Y-112756905D01*
X158000620Y-111956905D01*
D11*
X160750190Y-100419286D02*
X159797809Y-100419286D01*
X160273999Y-100895476D02*
X160273999Y-99943095D01*
D10*
X145440809Y-113353810D02*
X145364619Y-113391905D01*
X145212238Y-113391905D01*
X145136047Y-113353810D01*
X145097952Y-113277619D01*
X145097952Y-112972857D01*
X145136047Y-112896667D01*
X145212238Y-112858571D01*
X145364619Y-112858571D01*
X145440809Y-112896667D01*
X145478904Y-112972857D01*
X145478904Y-113049048D01*
X145097952Y-113125238D01*
X145936047Y-113391905D02*
X145859856Y-113353810D01*
X145821761Y-113277619D01*
X145821761Y-112591905D01*
X146545571Y-113353810D02*
X146469381Y-113391905D01*
X146317000Y-113391905D01*
X146240809Y-113353810D01*
X146202714Y-113277619D01*
X146202714Y-112972857D01*
X146240809Y-112896667D01*
X146317000Y-112858571D01*
X146469381Y-112858571D01*
X146545571Y-112896667D01*
X146583666Y-112972857D01*
X146583666Y-113049048D01*
X146202714Y-113125238D01*
X147269380Y-113353810D02*
X147193190Y-113391905D01*
X147040809Y-113391905D01*
X146964618Y-113353810D01*
X146926523Y-113315714D01*
X146888428Y-113239524D01*
X146888428Y-113010952D01*
X146926523Y-112934762D01*
X146964618Y-112896667D01*
X147040809Y-112858571D01*
X147193190Y-112858571D01*
X147269380Y-112896667D01*
X147497951Y-112858571D02*
X147802713Y-112858571D01*
X147612237Y-112591905D02*
X147612237Y-113277619D01*
X147650332Y-113353810D01*
X147726523Y-113391905D01*
X147802713Y-113391905D01*
X148069380Y-113391905D02*
X148069380Y-112858571D01*
X148069380Y-113010952D02*
X148107475Y-112934762D01*
X148145571Y-112896667D01*
X148221761Y-112858571D01*
X148297952Y-112858571D01*
X148678904Y-113391905D02*
X148602713Y-113353810D01*
X148564618Y-113315714D01*
X148526523Y-113239524D01*
X148526523Y-113010952D01*
X148564618Y-112934762D01*
X148602713Y-112896667D01*
X148678904Y-112858571D01*
X148793190Y-112858571D01*
X148869380Y-112896667D01*
X148907475Y-112934762D01*
X148945571Y-113010952D01*
X148945571Y-113239524D01*
X148907475Y-113315714D01*
X148869380Y-113353810D01*
X148793190Y-113391905D01*
X148678904Y-113391905D01*
X149288428Y-112858571D02*
X149288428Y-113391905D01*
X149288428Y-112934762D02*
X149326523Y-112896667D01*
X149402714Y-112858571D01*
X149517000Y-112858571D01*
X149593190Y-112896667D01*
X149631285Y-112972857D01*
X149631285Y-113391905D01*
X150355095Y-112858571D02*
X150355095Y-113391905D01*
X150012238Y-112858571D02*
X150012238Y-113277619D01*
X150050333Y-113353810D01*
X150126524Y-113391905D01*
X150240810Y-113391905D01*
X150317000Y-113353810D01*
X150355095Y-113315714D01*
X150621762Y-112858571D02*
X150926524Y-112858571D01*
X150736048Y-112591905D02*
X150736048Y-113277619D01*
X150774143Y-113353810D01*
X150850334Y-113391905D01*
X150926524Y-113391905D01*
X151193191Y-113315714D02*
X151231286Y-113353810D01*
X151193191Y-113391905D01*
X151155096Y-113353810D01*
X151193191Y-113315714D01*
X151193191Y-113391905D01*
X151574143Y-113391905D02*
X151574143Y-112858571D01*
X151574143Y-112591905D02*
X151536048Y-112630000D01*
X151574143Y-112668095D01*
X151612238Y-112630000D01*
X151574143Y-112591905D01*
X151574143Y-112668095D01*
X151955095Y-112858571D02*
X151955095Y-113391905D01*
X151955095Y-112934762D02*
X151993190Y-112896667D01*
X152069381Y-112858571D01*
X152183667Y-112858571D01*
X152259857Y-112896667D01*
X152297952Y-112972857D01*
X152297952Y-113391905D01*
D13*
X148412000Y-104372000D02*
X148412000Y-107972000D01*
X148412000Y-107972000D02*
X145212000Y-107972000D01*
X145212000Y-107972000D02*
X145212000Y-104372000D01*
X145212000Y-104372000D02*
X148412000Y-104372000D01*
D14*
G36*
X137848248Y-104099360D02*
X138240508Y-104526080D01*
X138437335Y-104526080D01*
X138445746Y-104500976D01*
X138457062Y-104477449D01*
X138474610Y-104452773D01*
X138495866Y-104429934D01*
X138518304Y-104411912D01*
X138524222Y-104408267D01*
X138561217Y-104392460D01*
X138598881Y-104386082D01*
X138635994Y-104388603D01*
X138671332Y-104399490D01*
X138703674Y-104418215D01*
X138731799Y-104444245D01*
X138754485Y-104477049D01*
X138770242Y-104515186D01*
X138776979Y-104547621D01*
X138779197Y-104581857D01*
X138776671Y-104613244D01*
X138775282Y-104620060D01*
X138761650Y-104658755D01*
X138740755Y-104692880D01*
X138713906Y-104721437D01*
X138682412Y-104743427D01*
X138647582Y-104757850D01*
X138614140Y-104763166D01*
X138614140Y-104667704D01*
X138638424Y-104661165D01*
X138660594Y-104647086D01*
X138679055Y-104625567D01*
X138688718Y-104606623D01*
X138692593Y-104586633D01*
X138691330Y-104562526D01*
X138685470Y-104538370D01*
X138677322Y-104520907D01*
X138659265Y-104500141D01*
X138637135Y-104487071D01*
X138612758Y-104481491D01*
X138587965Y-104483197D01*
X138564584Y-104491984D01*
X138544444Y-104507647D01*
X138529373Y-104529982D01*
X138526154Y-104537841D01*
X138522247Y-104556395D01*
X138521286Y-104578692D01*
X138523175Y-104600231D01*
X138527817Y-104616503D01*
X138544582Y-104641103D01*
X138565622Y-104657771D01*
X138589340Y-104666605D01*
X138614140Y-104667704D01*
X138614140Y-104763166D01*
X138610726Y-104763709D01*
X138588324Y-104762714D01*
X138554691Y-104754330D01*
X138522352Y-104738478D01*
X138493035Y-104716645D01*
X138468469Y-104690320D01*
X138450383Y-104660990D01*
X138441789Y-104636570D01*
X138438545Y-104622600D01*
X138206141Y-104622600D01*
X138007759Y-104406802D01*
X137809377Y-104191003D01*
X137721915Y-104190902D01*
X137634452Y-104190800D01*
X137634452Y-104099360D01*
X137848248Y-104099360D01*
X137848248Y-104099360D01*
G37*
X137848248Y-104099360D02*
X138240508Y-104526080D01*
X138437335Y-104526080D01*
X138445746Y-104500976D01*
X138457062Y-104477449D01*
X138474610Y-104452773D01*
X138495866Y-104429934D01*
X138518304Y-104411912D01*
X138524222Y-104408267D01*
X138561217Y-104392460D01*
X138598881Y-104386082D01*
X138635994Y-104388603D01*
X138671332Y-104399490D01*
X138703674Y-104418215D01*
X138731799Y-104444245D01*
X138754485Y-104477049D01*
X138770242Y-104515186D01*
X138776979Y-104547621D01*
X138779197Y-104581857D01*
X138776671Y-104613244D01*
X138775282Y-104620060D01*
X138761650Y-104658755D01*
X138740755Y-104692880D01*
X138713906Y-104721437D01*
X138682412Y-104743427D01*
X138647582Y-104757850D01*
X138614140Y-104763166D01*
X138614140Y-104667704D01*
X138638424Y-104661165D01*
X138660594Y-104647086D01*
X138679055Y-104625567D01*
X138688718Y-104606623D01*
X138692593Y-104586633D01*
X138691330Y-104562526D01*
X138685470Y-104538370D01*
X138677322Y-104520907D01*
X138659265Y-104500141D01*
X138637135Y-104487071D01*
X138612758Y-104481491D01*
X138587965Y-104483197D01*
X138564584Y-104491984D01*
X138544444Y-104507647D01*
X138529373Y-104529982D01*
X138526154Y-104537841D01*
X138522247Y-104556395D01*
X138521286Y-104578692D01*
X138523175Y-104600231D01*
X138527817Y-104616503D01*
X138544582Y-104641103D01*
X138565622Y-104657771D01*
X138589340Y-104666605D01*
X138614140Y-104667704D01*
X138614140Y-104763166D01*
X138610726Y-104763709D01*
X138588324Y-104762714D01*
X138554691Y-104754330D01*
X138522352Y-104738478D01*
X138493035Y-104716645D01*
X138468469Y-104690320D01*
X138450383Y-104660990D01*
X138441789Y-104636570D01*
X138438545Y-104622600D01*
X138206141Y-104622600D01*
X138007759Y-104406802D01*
X137809377Y-104191003D01*
X137721915Y-104190902D01*
X137634452Y-104190800D01*
X137634452Y-104099360D01*
X137848248Y-104099360D01*
G36*
X138034773Y-103682800D02*
X138106110Y-103682791D01*
X138168469Y-103682755D01*
X138222455Y-103682677D01*
X138268676Y-103682545D01*
X138307737Y-103682346D01*
X138340246Y-103682066D01*
X138366807Y-103681692D01*
X138388028Y-103681210D01*
X138404515Y-103680607D01*
X138416875Y-103679869D01*
X138425713Y-103678984D01*
X138431636Y-103677938D01*
X138435250Y-103676717D01*
X138437162Y-103675308D01*
X138437916Y-103673910D01*
X138455633Y-103632618D01*
X138480244Y-103598064D01*
X138511326Y-103570778D01*
X138529594Y-103559797D01*
X138546280Y-103551581D01*
X138560018Y-103546600D01*
X138574388Y-103544063D01*
X138592968Y-103543174D01*
X138604924Y-103543100D01*
X138626947Y-103543463D01*
X138642973Y-103545080D01*
X138656577Y-103548743D01*
X138671338Y-103555244D01*
X138680194Y-103559766D01*
X138713133Y-103581978D01*
X138740536Y-103610691D01*
X138760773Y-103644064D01*
X138765816Y-103656376D01*
X138773504Y-103685657D01*
X138777581Y-103718558D01*
X138777786Y-103750927D01*
X138773857Y-103778613D01*
X138773580Y-103779679D01*
X138759401Y-103816090D01*
X138737800Y-103849963D01*
X138710680Y-103878912D01*
X138679944Y-103900552D01*
X138675257Y-103902963D01*
X138662212Y-103908401D01*
X138648268Y-103911739D01*
X138630584Y-103913419D01*
X138609219Y-103913827D01*
X138609219Y-103823243D01*
X138634365Y-103817560D01*
X138657181Y-103803798D01*
X138675983Y-103782513D01*
X138684527Y-103766620D01*
X138691710Y-103745112D01*
X138692834Y-103724723D01*
X138688581Y-103702008D01*
X138677133Y-103675114D01*
X138659627Y-103654633D01*
X138637782Y-103641045D01*
X138613322Y-103634829D01*
X138587968Y-103636463D01*
X138563440Y-103646428D01*
X138544455Y-103661883D01*
X138527592Y-103686256D01*
X138519060Y-103713409D01*
X138518675Y-103741454D01*
X138526254Y-103768504D01*
X138541612Y-103792671D01*
X138558663Y-103808154D01*
X138583424Y-103820293D01*
X138609219Y-103823243D01*
X138609219Y-103913827D01*
X138606319Y-103913883D01*
X138604924Y-103913882D01*
X138581161Y-103913491D01*
X138564064Y-103912052D01*
X138550726Y-103909060D01*
X138538243Y-103904012D01*
X138533037Y-103901406D01*
X138508360Y-103885083D01*
X138484492Y-103863073D01*
X138463890Y-103838097D01*
X138449015Y-103812880D01*
X138445674Y-103804665D01*
X138435861Y-103776780D01*
X138035157Y-103775481D01*
X137634452Y-103774182D01*
X137634452Y-103682800D01*
X138034773Y-103682800D01*
X138034773Y-103682800D01*
G37*
X138034773Y-103682800D02*
X138106110Y-103682791D01*
X138168469Y-103682755D01*
X138222455Y-103682677D01*
X138268676Y-103682545D01*
X138307737Y-103682346D01*
X138340246Y-103682066D01*
X138366807Y-103681692D01*
X138388028Y-103681210D01*
X138404515Y-103680607D01*
X138416875Y-103679869D01*
X138425713Y-103678984D01*
X138431636Y-103677938D01*
X138435250Y-103676717D01*
X138437162Y-103675308D01*
X138437916Y-103673910D01*
X138455633Y-103632618D01*
X138480244Y-103598064D01*
X138511326Y-103570778D01*
X138529594Y-103559797D01*
X138546280Y-103551581D01*
X138560018Y-103546600D01*
X138574388Y-103544063D01*
X138592968Y-103543174D01*
X138604924Y-103543100D01*
X138626947Y-103543463D01*
X138642973Y-103545080D01*
X138656577Y-103548743D01*
X138671338Y-103555244D01*
X138680194Y-103559766D01*
X138713133Y-103581978D01*
X138740536Y-103610691D01*
X138760773Y-103644064D01*
X138765816Y-103656376D01*
X138773504Y-103685657D01*
X138777581Y-103718558D01*
X138777786Y-103750927D01*
X138773857Y-103778613D01*
X138773580Y-103779679D01*
X138759401Y-103816090D01*
X138737800Y-103849963D01*
X138710680Y-103878912D01*
X138679944Y-103900552D01*
X138675257Y-103902963D01*
X138662212Y-103908401D01*
X138648268Y-103911739D01*
X138630584Y-103913419D01*
X138609219Y-103913827D01*
X138609219Y-103823243D01*
X138634365Y-103817560D01*
X138657181Y-103803798D01*
X138675983Y-103782513D01*
X138684527Y-103766620D01*
X138691710Y-103745112D01*
X138692834Y-103724723D01*
X138688581Y-103702008D01*
X138677133Y-103675114D01*
X138659627Y-103654633D01*
X138637782Y-103641045D01*
X138613322Y-103634829D01*
X138587968Y-103636463D01*
X138563440Y-103646428D01*
X138544455Y-103661883D01*
X138527592Y-103686256D01*
X138519060Y-103713409D01*
X138518675Y-103741454D01*
X138526254Y-103768504D01*
X138541612Y-103792671D01*
X138558663Y-103808154D01*
X138583424Y-103820293D01*
X138609219Y-103823243D01*
X138609219Y-103913827D01*
X138606319Y-103913883D01*
X138604924Y-103913882D01*
X138581161Y-103913491D01*
X138564064Y-103912052D01*
X138550726Y-103909060D01*
X138538243Y-103904012D01*
X138533037Y-103901406D01*
X138508360Y-103885083D01*
X138484492Y-103863073D01*
X138463890Y-103838097D01*
X138449015Y-103812880D01*
X138445674Y-103804665D01*
X138435861Y-103776780D01*
X138035157Y-103775481D01*
X137634452Y-103774182D01*
X137634452Y-103682800D01*
X138034773Y-103682800D01*
G36*
X137805943Y-103266240D02*
X138206073Y-102834440D01*
X138433889Y-102834440D01*
X138448355Y-102801671D01*
X138468828Y-102765935D01*
X138495707Y-102735435D01*
X138527051Y-102712275D01*
X138534492Y-102708305D01*
X138549894Y-102701405D01*
X138564139Y-102697291D01*
X138580719Y-102695294D01*
X138603122Y-102694742D01*
X138605025Y-102694740D01*
X138627056Y-102695109D01*
X138643091Y-102696742D01*
X138656709Y-102700427D01*
X138671487Y-102706954D01*
X138679895Y-102711250D01*
X138715158Y-102734864D01*
X138743005Y-102764764D01*
X138763074Y-102800355D01*
X138775001Y-102841041D01*
X138778323Y-102872540D01*
X138778172Y-102898875D01*
X138776011Y-102921587D01*
X138773408Y-102933500D01*
X138755648Y-102975816D01*
X138731151Y-103011117D01*
X138700186Y-103039066D01*
X138679239Y-103051842D01*
X138665615Y-103058359D01*
X138653181Y-103062436D01*
X138638948Y-103064625D01*
X138619928Y-103065479D01*
X138604924Y-103065580D01*
X138598646Y-103065486D01*
X138598646Y-102975432D01*
X138625149Y-102973706D01*
X138650058Y-102962083D01*
X138666528Y-102947787D01*
X138683866Y-102922888D01*
X138692387Y-102895049D01*
X138691816Y-102865695D01*
X138686167Y-102845777D01*
X138671124Y-102818600D01*
X138650859Y-102799887D01*
X138625588Y-102789798D01*
X138607511Y-102787944D01*
X138579013Y-102792046D01*
X138555003Y-102804138D01*
X138536669Y-102823149D01*
X138525200Y-102848009D01*
X138522146Y-102864849D01*
X138522422Y-102899147D01*
X138530162Y-102927198D01*
X138545525Y-102949333D01*
X138568669Y-102965886D01*
X138571179Y-102967132D01*
X138598646Y-102975432D01*
X138598646Y-103065486D01*
X138581216Y-103065225D01*
X138564177Y-103063823D01*
X138550907Y-103060872D01*
X138538504Y-103055871D01*
X138533037Y-103053132D01*
X138502529Y-103032162D01*
X138475117Y-103003480D01*
X138452705Y-102969455D01*
X138437916Y-102934770D01*
X138436200Y-102931725D01*
X138432419Y-102929462D01*
X138425313Y-102927866D01*
X138413622Y-102926824D01*
X138396085Y-102926222D01*
X138371443Y-102925945D01*
X138339656Y-102925880D01*
X138244220Y-102925880D01*
X138045968Y-103141545D01*
X137847717Y-103357209D01*
X137741084Y-103357445D01*
X137634452Y-103357680D01*
X137634452Y-103266240D01*
X137805943Y-103266240D01*
X137805943Y-103266240D01*
G37*
X137805943Y-103266240D02*
X138206073Y-102834440D01*
X138433889Y-102834440D01*
X138448355Y-102801671D01*
X138468828Y-102765935D01*
X138495707Y-102735435D01*
X138527051Y-102712275D01*
X138534492Y-102708305D01*
X138549894Y-102701405D01*
X138564139Y-102697291D01*
X138580719Y-102695294D01*
X138603122Y-102694742D01*
X138605025Y-102694740D01*
X138627056Y-102695109D01*
X138643091Y-102696742D01*
X138656709Y-102700427D01*
X138671487Y-102706954D01*
X138679895Y-102711250D01*
X138715158Y-102734864D01*
X138743005Y-102764764D01*
X138763074Y-102800355D01*
X138775001Y-102841041D01*
X138778323Y-102872540D01*
X138778172Y-102898875D01*
X138776011Y-102921587D01*
X138773408Y-102933500D01*
X138755648Y-102975816D01*
X138731151Y-103011117D01*
X138700186Y-103039066D01*
X138679239Y-103051842D01*
X138665615Y-103058359D01*
X138653181Y-103062436D01*
X138638948Y-103064625D01*
X138619928Y-103065479D01*
X138604924Y-103065580D01*
X138598646Y-103065486D01*
X138598646Y-102975432D01*
X138625149Y-102973706D01*
X138650058Y-102962083D01*
X138666528Y-102947787D01*
X138683866Y-102922888D01*
X138692387Y-102895049D01*
X138691816Y-102865695D01*
X138686167Y-102845777D01*
X138671124Y-102818600D01*
X138650859Y-102799887D01*
X138625588Y-102789798D01*
X138607511Y-102787944D01*
X138579013Y-102792046D01*
X138555003Y-102804138D01*
X138536669Y-102823149D01*
X138525200Y-102848009D01*
X138522146Y-102864849D01*
X138522422Y-102899147D01*
X138530162Y-102927198D01*
X138545525Y-102949333D01*
X138568669Y-102965886D01*
X138571179Y-102967132D01*
X138598646Y-102975432D01*
X138598646Y-103065486D01*
X138581216Y-103065225D01*
X138564177Y-103063823D01*
X138550907Y-103060872D01*
X138538504Y-103055871D01*
X138533037Y-103053132D01*
X138502529Y-103032162D01*
X138475117Y-103003480D01*
X138452705Y-102969455D01*
X138437916Y-102934770D01*
X138436200Y-102931725D01*
X138432419Y-102929462D01*
X138425313Y-102927866D01*
X138413622Y-102926824D01*
X138396085Y-102926222D01*
X138371443Y-102925945D01*
X138339656Y-102925880D01*
X138244220Y-102925880D01*
X138045968Y-103141545D01*
X137847717Y-103357209D01*
X137741084Y-103357445D01*
X137634452Y-103357680D01*
X137634452Y-103266240D01*
X137805943Y-103266240D01*
G36*
X137935842Y-99613185D02*
X137941374Y-99561781D01*
X137948447Y-99516727D01*
X137957780Y-99474248D01*
X137970092Y-99430573D01*
X137971522Y-99425971D01*
X137986698Y-99377500D01*
X138050198Y-99376083D01*
X138073608Y-99375710D01*
X138093127Y-99375683D01*
X138106994Y-99375984D01*
X138113447Y-99376592D01*
X138113698Y-99376774D01*
X138111233Y-99381720D01*
X138104741Y-99392777D01*
X138095575Y-99407648D01*
X138094636Y-99409141D01*
X138065922Y-99463536D01*
X138044263Y-99523872D01*
X138030061Y-99588779D01*
X138023969Y-99650398D01*
X138023701Y-99701759D01*
X138028044Y-99745464D01*
X138037330Y-99782949D01*
X138051893Y-99815650D01*
X138068079Y-99839996D01*
X138090497Y-99861629D01*
X138117445Y-99875994D01*
X138146937Y-99882932D01*
X138176987Y-99882282D01*
X138205609Y-99873884D01*
X138230817Y-99857577D01*
X138235146Y-99853481D01*
X138245090Y-99842213D01*
X138253716Y-99829192D01*
X138261399Y-99813214D01*
X138268514Y-99793073D01*
X138275437Y-99767567D01*
X138282542Y-99735490D01*
X138290203Y-99695637D01*
X138297938Y-99651820D01*
X138307977Y-99596711D01*
X138317798Y-99550453D01*
X138327853Y-99511762D01*
X138338594Y-99479356D01*
X138350473Y-99451951D01*
X138363943Y-99428263D01*
X138379457Y-99407008D01*
X138387557Y-99397523D01*
X138410308Y-99375969D01*
X138435689Y-99360358D01*
X138466165Y-99349419D01*
X138491817Y-99343869D01*
X138535745Y-99341037D01*
X138578044Y-99347737D01*
X138618009Y-99363390D01*
X138654937Y-99387413D01*
X138688121Y-99419228D01*
X138716859Y-99458254D01*
X138740446Y-99503909D01*
X138758178Y-99555615D01*
X138760664Y-99565401D01*
X138766028Y-99594876D01*
X138769981Y-99631319D01*
X138772381Y-99671624D01*
X138773086Y-99712688D01*
X138771956Y-99751407D01*
X138770180Y-99773740D01*
X138761675Y-99831376D01*
X138748398Y-99891906D01*
X138731500Y-99950236D01*
X138728051Y-99960430D01*
X138710867Y-100009960D01*
X138644317Y-100009960D01*
X138620476Y-100009704D01*
X138600650Y-100008999D01*
X138586505Y-100007944D01*
X138579708Y-100006637D01*
X138579369Y-100006150D01*
X138582578Y-100000453D01*
X138589797Y-99988454D01*
X138599723Y-99972310D01*
X138604571Y-99964514D01*
X138637040Y-99903380D01*
X138661230Y-99837792D01*
X138676732Y-99769092D01*
X138682855Y-99707302D01*
X138682352Y-99651183D01*
X138676183Y-99601513D01*
X138664580Y-99558696D01*
X138647777Y-99523136D01*
X138626005Y-99495238D01*
X138599497Y-99475405D01*
X138568485Y-99464043D01*
X138541527Y-99461320D01*
X138508559Y-99464628D01*
X138481938Y-99475005D01*
X138460557Y-99493129D01*
X138443312Y-99519681D01*
X138441929Y-99522497D01*
X138434858Y-99538611D01*
X138428568Y-99556405D01*
X138422674Y-99577462D01*
X138416790Y-99603366D01*
X138410531Y-99635700D01*
X138403512Y-99676049D01*
X138401206Y-99689920D01*
X138393917Y-99733011D01*
X138387536Y-99767795D01*
X138381630Y-99796026D01*
X138375764Y-99819456D01*
X138369507Y-99839840D01*
X138362423Y-99858931D01*
X138355237Y-99875886D01*
X138332226Y-99917773D01*
X138303955Y-99951199D01*
X138270182Y-99976361D01*
X138230664Y-99993454D01*
X138201141Y-100000440D01*
X138156803Y-100003165D01*
X138114085Y-99996330D01*
X138074140Y-99980346D01*
X138038123Y-99955626D01*
X138016931Y-99934573D01*
X137985519Y-99891170D01*
X137961367Y-99841356D01*
X137944557Y-99785448D01*
X137935168Y-99723764D01*
X137933281Y-99656623D01*
X137935842Y-99613185D01*
X137935842Y-99613185D01*
G37*
X137935842Y-99613185D02*
X137941374Y-99561781D01*
X137948447Y-99516727D01*
X137957780Y-99474248D01*
X137970092Y-99430573D01*
X137971522Y-99425971D01*
X137986698Y-99377500D01*
X138050198Y-99376083D01*
X138073608Y-99375710D01*
X138093127Y-99375683D01*
X138106994Y-99375984D01*
X138113447Y-99376592D01*
X138113698Y-99376774D01*
X138111233Y-99381720D01*
X138104741Y-99392777D01*
X138095575Y-99407648D01*
X138094636Y-99409141D01*
X138065922Y-99463536D01*
X138044263Y-99523872D01*
X138030061Y-99588779D01*
X138023969Y-99650398D01*
X138023701Y-99701759D01*
X138028044Y-99745464D01*
X138037330Y-99782949D01*
X138051893Y-99815650D01*
X138068079Y-99839996D01*
X138090497Y-99861629D01*
X138117445Y-99875994D01*
X138146937Y-99882932D01*
X138176987Y-99882282D01*
X138205609Y-99873884D01*
X138230817Y-99857577D01*
X138235146Y-99853481D01*
X138245090Y-99842213D01*
X138253716Y-99829192D01*
X138261399Y-99813214D01*
X138268514Y-99793073D01*
X138275437Y-99767567D01*
X138282542Y-99735490D01*
X138290203Y-99695637D01*
X138297938Y-99651820D01*
X138307977Y-99596711D01*
X138317798Y-99550453D01*
X138327853Y-99511762D01*
X138338594Y-99479356D01*
X138350473Y-99451951D01*
X138363943Y-99428263D01*
X138379457Y-99407008D01*
X138387557Y-99397523D01*
X138410308Y-99375969D01*
X138435689Y-99360358D01*
X138466165Y-99349419D01*
X138491817Y-99343869D01*
X138535745Y-99341037D01*
X138578044Y-99347737D01*
X138618009Y-99363390D01*
X138654937Y-99387413D01*
X138688121Y-99419228D01*
X138716859Y-99458254D01*
X138740446Y-99503909D01*
X138758178Y-99555615D01*
X138760664Y-99565401D01*
X138766028Y-99594876D01*
X138769981Y-99631319D01*
X138772381Y-99671624D01*
X138773086Y-99712688D01*
X138771956Y-99751407D01*
X138770180Y-99773740D01*
X138761675Y-99831376D01*
X138748398Y-99891906D01*
X138731500Y-99950236D01*
X138728051Y-99960430D01*
X138710867Y-100009960D01*
X138644317Y-100009960D01*
X138620476Y-100009704D01*
X138600650Y-100008999D01*
X138586505Y-100007944D01*
X138579708Y-100006637D01*
X138579369Y-100006150D01*
X138582578Y-100000453D01*
X138589797Y-99988454D01*
X138599723Y-99972310D01*
X138604571Y-99964514D01*
X138637040Y-99903380D01*
X138661230Y-99837792D01*
X138676732Y-99769092D01*
X138682855Y-99707302D01*
X138682352Y-99651183D01*
X138676183Y-99601513D01*
X138664580Y-99558696D01*
X138647777Y-99523136D01*
X138626005Y-99495238D01*
X138599497Y-99475405D01*
X138568485Y-99464043D01*
X138541527Y-99461320D01*
X138508559Y-99464628D01*
X138481938Y-99475005D01*
X138460557Y-99493129D01*
X138443312Y-99519681D01*
X138441929Y-99522497D01*
X138434858Y-99538611D01*
X138428568Y-99556405D01*
X138422674Y-99577462D01*
X138416790Y-99603366D01*
X138410531Y-99635700D01*
X138403512Y-99676049D01*
X138401206Y-99689920D01*
X138393917Y-99733011D01*
X138387536Y-99767795D01*
X138381630Y-99796026D01*
X138375764Y-99819456D01*
X138369507Y-99839840D01*
X138362423Y-99858931D01*
X138355237Y-99875886D01*
X138332226Y-99917773D01*
X138303955Y-99951199D01*
X138270182Y-99976361D01*
X138230664Y-99993454D01*
X138201141Y-100000440D01*
X138156803Y-100003165D01*
X138114085Y-99996330D01*
X138074140Y-99980346D01*
X138038123Y-99955626D01*
X138016931Y-99934573D01*
X137985519Y-99891170D01*
X137961367Y-99841356D01*
X137944557Y-99785448D01*
X137935168Y-99723764D01*
X137933281Y-99656623D01*
X137935842Y-99613185D01*
G36*
X138660037Y-102189280D02*
X138660037Y-101757480D01*
X138755886Y-101757480D01*
X138755886Y-102306120D01*
X137950754Y-102306120D01*
X137950754Y-102189280D01*
X138660037Y-102189280D01*
X138660037Y-102189280D01*
G37*
X138660037Y-102189280D02*
X138660037Y-101757480D01*
X138755886Y-101757480D01*
X138755886Y-102306120D01*
X137950754Y-102306120D01*
X137950754Y-102189280D01*
X138660037Y-102189280D01*
G36*
X138017849Y-101267260D02*
X138017849Y-101183440D01*
X138100518Y-101183300D01*
X138183188Y-101183159D01*
X138422811Y-101015696D01*
X138662434Y-100848234D01*
X138755886Y-100848160D01*
X138755886Y-101706680D01*
X138669706Y-101706680D01*
X138669706Y-101681280D01*
X138736717Y-101681280D01*
X138736717Y-100873560D01*
X138666915Y-100873560D01*
X138430000Y-101038660D01*
X138193084Y-101203760D01*
X138041811Y-101203760D01*
X138041811Y-101346000D01*
X138188846Y-101346000D01*
X138669706Y-101681280D01*
X138669706Y-101706680D01*
X138665849Y-101706680D01*
X138184999Y-101371400D01*
X138111009Y-101371400D01*
X138079682Y-101371462D01*
X138056281Y-101370787D01*
X138039653Y-101368089D01*
X138028648Y-101362082D01*
X138022115Y-101351477D01*
X138018902Y-101334989D01*
X138017858Y-101311330D01*
X138017830Y-101279212D01*
X138017849Y-101267260D01*
X138017849Y-101267260D01*
G37*
X138017849Y-101267260D02*
X138017849Y-101183440D01*
X138100518Y-101183300D01*
X138183188Y-101183159D01*
X138422811Y-101015696D01*
X138662434Y-100848234D01*
X138755886Y-100848160D01*
X138755886Y-101706680D01*
X138669706Y-101706680D01*
X138669706Y-101681280D01*
X138736717Y-101681280D01*
X138736717Y-100873560D01*
X138666915Y-100873560D01*
X138430000Y-101038660D01*
X138193084Y-101203760D01*
X138041811Y-101203760D01*
X138041811Y-101346000D01*
X138188846Y-101346000D01*
X138669706Y-101681280D01*
X138669706Y-101706680D01*
X138665849Y-101706680D01*
X138184999Y-101371400D01*
X138111009Y-101371400D01*
X138079682Y-101371462D01*
X138056281Y-101370787D01*
X138039653Y-101368089D01*
X138028648Y-101362082D01*
X138022115Y-101351477D01*
X138018902Y-101334989D01*
X138017858Y-101311330D01*
X138017830Y-101279212D01*
X138017849Y-101267260D01*
G36*
X137950830Y-100641150D02*
X137951084Y-100577978D01*
X137951849Y-100523908D01*
X137953236Y-100477896D01*
X137955356Y-100438892D01*
X137958318Y-100405851D01*
X137962233Y-100377724D01*
X137967212Y-100353464D01*
X137973363Y-100332024D01*
X137980797Y-100312357D01*
X137986828Y-100299078D01*
X138005451Y-100268000D01*
X138028483Y-100244372D01*
X138054938Y-100227423D01*
X138071459Y-100219288D01*
X138085077Y-100214357D01*
X138099339Y-100211851D01*
X138117794Y-100210995D01*
X138130149Y-100210942D01*
X138153496Y-100211499D01*
X138170747Y-100213487D01*
X138185361Y-100217553D01*
X138200181Y-100224040D01*
X138231745Y-100243329D01*
X138258133Y-100268481D01*
X138279183Y-100297548D01*
X138288248Y-100311476D01*
X138295098Y-100320979D01*
X138298245Y-100323996D01*
X138300395Y-100318724D01*
X138304616Y-100306431D01*
X138310003Y-100289751D01*
X138310126Y-100289360D01*
X138328978Y-100243925D01*
X138354302Y-100205678D01*
X138385399Y-100175072D01*
X138421571Y-100152565D01*
X138462120Y-100138610D01*
X138506348Y-100133663D01*
X138544503Y-100136589D01*
X138589991Y-100148478D01*
X138630492Y-100168856D01*
X138665732Y-100197364D01*
X138695434Y-100233643D01*
X138719323Y-100277334D01*
X138737124Y-100328078D01*
X138748560Y-100385517D01*
X138750851Y-100405469D01*
X138752101Y-100423766D01*
X138753237Y-100450484D01*
X138754221Y-100483886D01*
X138755012Y-100522232D01*
X138755571Y-100563785D01*
X138755857Y-100606806D01*
X138755886Y-100625179D01*
X138755886Y-100792280D01*
X138664830Y-100792280D01*
X138664830Y-100675440D01*
X138664663Y-100554790D01*
X138664232Y-100504120D01*
X138663109Y-100461221D01*
X138661325Y-100426810D01*
X138658909Y-100401602D01*
X138658040Y-100395785D01*
X138647083Y-100351593D01*
X138630494Y-100315552D01*
X138608327Y-100287719D01*
X138580638Y-100268148D01*
X138547482Y-100256895D01*
X138515935Y-100253912D01*
X138477293Y-100256842D01*
X138445565Y-100266279D01*
X138419883Y-100282800D01*
X138399378Y-100306983D01*
X138383180Y-100339406D01*
X138381767Y-100343113D01*
X138378552Y-100352192D01*
X138375997Y-100361076D01*
X138374007Y-100371071D01*
X138372488Y-100383482D01*
X138371347Y-100399611D01*
X138370489Y-100420766D01*
X138369820Y-100448249D01*
X138369247Y-100483366D01*
X138368713Y-100524310D01*
X138366846Y-100675440D01*
X138664830Y-100675440D01*
X138664830Y-100792280D01*
X138277512Y-100792280D01*
X138277512Y-100675440D01*
X138275878Y-100552250D01*
X138274245Y-100429060D01*
X138260761Y-100399954D01*
X138243495Y-100370626D01*
X138222267Y-100349727D01*
X138196010Y-100336595D01*
X138163656Y-100330570D01*
X138147733Y-100330000D01*
X138118489Y-100332652D01*
X138095436Y-100341162D01*
X138076433Y-100356368D01*
X138074346Y-100358657D01*
X138065996Y-100368906D01*
X138059357Y-100379578D01*
X138054212Y-100391978D01*
X138050343Y-100407412D01*
X138047531Y-100427188D01*
X138045559Y-100452610D01*
X138044210Y-100484986D01*
X138043265Y-100525621D01*
X138042910Y-100547170D01*
X138040965Y-100675440D01*
X138277512Y-100675440D01*
X138277512Y-100792280D01*
X137950754Y-100792280D01*
X137950830Y-100641150D01*
X137950830Y-100641150D01*
G37*
X137950830Y-100641150D02*
X137951084Y-100577978D01*
X137951849Y-100523908D01*
X137953236Y-100477896D01*
X137955356Y-100438892D01*
X137958318Y-100405851D01*
X137962233Y-100377724D01*
X137967212Y-100353464D01*
X137973363Y-100332024D01*
X137980797Y-100312357D01*
X137986828Y-100299078D01*
X138005451Y-100268000D01*
X138028483Y-100244372D01*
X138054938Y-100227423D01*
X138071459Y-100219288D01*
X138085077Y-100214357D01*
X138099339Y-100211851D01*
X138117794Y-100210995D01*
X138130149Y-100210942D01*
X138153496Y-100211499D01*
X138170747Y-100213487D01*
X138185361Y-100217553D01*
X138200181Y-100224040D01*
X138231745Y-100243329D01*
X138258133Y-100268481D01*
X138279183Y-100297548D01*
X138288248Y-100311476D01*
X138295098Y-100320979D01*
X138298245Y-100323996D01*
X138300395Y-100318724D01*
X138304616Y-100306431D01*
X138310003Y-100289751D01*
X138310126Y-100289360D01*
X138328978Y-100243925D01*
X138354302Y-100205678D01*
X138385399Y-100175072D01*
X138421571Y-100152565D01*
X138462120Y-100138610D01*
X138506348Y-100133663D01*
X138544503Y-100136589D01*
X138589991Y-100148478D01*
X138630492Y-100168856D01*
X138665732Y-100197364D01*
X138695434Y-100233643D01*
X138719323Y-100277334D01*
X138737124Y-100328078D01*
X138748560Y-100385517D01*
X138750851Y-100405469D01*
X138752101Y-100423766D01*
X138753237Y-100450484D01*
X138754221Y-100483886D01*
X138755012Y-100522232D01*
X138755571Y-100563785D01*
X138755857Y-100606806D01*
X138755886Y-100625179D01*
X138755886Y-100792280D01*
X138664830Y-100792280D01*
X138664830Y-100675440D01*
X138664663Y-100554790D01*
X138664232Y-100504120D01*
X138663109Y-100461221D01*
X138661325Y-100426810D01*
X138658909Y-100401602D01*
X138658040Y-100395785D01*
X138647083Y-100351593D01*
X138630494Y-100315552D01*
X138608327Y-100287719D01*
X138580638Y-100268148D01*
X138547482Y-100256895D01*
X138515935Y-100253912D01*
X138477293Y-100256842D01*
X138445565Y-100266279D01*
X138419883Y-100282800D01*
X138399378Y-100306983D01*
X138383180Y-100339406D01*
X138381767Y-100343113D01*
X138378552Y-100352192D01*
X138375997Y-100361076D01*
X138374007Y-100371071D01*
X138372488Y-100383482D01*
X138371347Y-100399611D01*
X138370489Y-100420766D01*
X138369820Y-100448249D01*
X138369247Y-100483366D01*
X138368713Y-100524310D01*
X138366846Y-100675440D01*
X138664830Y-100675440D01*
X138664830Y-100792280D01*
X138277512Y-100792280D01*
X138277512Y-100675440D01*
X138275878Y-100552250D01*
X138274245Y-100429060D01*
X138260761Y-100399954D01*
X138243495Y-100370626D01*
X138222267Y-100349727D01*
X138196010Y-100336595D01*
X138163656Y-100330570D01*
X138147733Y-100330000D01*
X138118489Y-100332652D01*
X138095436Y-100341162D01*
X138076433Y-100356368D01*
X138074346Y-100358657D01*
X138065996Y-100368906D01*
X138059357Y-100379578D01*
X138054212Y-100391978D01*
X138050343Y-100407412D01*
X138047531Y-100427188D01*
X138045559Y-100452610D01*
X138044210Y-100484986D01*
X138043265Y-100525621D01*
X138042910Y-100547170D01*
X138040965Y-100675440D01*
X138277512Y-100675440D01*
X138277512Y-100792280D01*
X137950754Y-100792280D01*
X137950830Y-100641150D01*
G36*
X137253452Y-102684952D02*
X137461924Y-102554515D01*
X137670396Y-102424077D01*
X137670396Y-99627828D01*
X137645485Y-99617978D01*
X137616338Y-99601624D01*
X137589386Y-99577402D01*
X137566922Y-99547607D01*
X137557440Y-99529954D01*
X137543087Y-99488476D01*
X137537709Y-99446614D01*
X137540890Y-99405633D01*
X137552216Y-99366798D01*
X137571271Y-99331372D01*
X137597641Y-99300620D01*
X137630911Y-99275807D01*
X137642992Y-99269305D01*
X137659387Y-99262120D01*
X137674776Y-99257964D01*
X137692972Y-99256076D01*
X137711232Y-99255690D01*
X137732855Y-99256072D01*
X137748771Y-99257938D01*
X137762837Y-99262162D01*
X137778915Y-99269616D01*
X137783707Y-99272090D01*
X137818661Y-99295851D01*
X137847310Y-99327052D01*
X137868439Y-99363911D01*
X137876804Y-99390661D01*
X137881720Y-99422698D01*
X137882934Y-99455977D01*
X137880197Y-99486456D01*
X137876932Y-99500507D01*
X137860000Y-99540317D01*
X137835653Y-99574452D01*
X137804853Y-99601749D01*
X137781820Y-99615280D01*
X137759056Y-99626361D01*
X137759056Y-102477396D01*
X137716389Y-102504025D01*
X137716389Y-99536926D01*
X137741658Y-99531160D01*
X137748464Y-99527901D01*
X137772215Y-99510689D01*
X137787682Y-99488861D01*
X137795276Y-99461637D01*
X137796059Y-99437379D01*
X137794238Y-99417309D01*
X137790145Y-99402906D01*
X137782379Y-99389722D01*
X137780066Y-99386579D01*
X137758702Y-99365341D01*
X137734266Y-99352839D01*
X137708380Y-99349131D01*
X137682667Y-99354276D01*
X137658750Y-99368334D01*
X137645397Y-99381715D01*
X137631680Y-99404298D01*
X137625531Y-99430646D01*
X137626082Y-99459065D01*
X137633305Y-99485470D01*
X137647758Y-99507476D01*
X137667629Y-99524066D01*
X137691110Y-99534222D01*
X137716389Y-99536926D01*
X137716389Y-102504025D01*
X137548311Y-102608928D01*
X137337567Y-102740460D01*
X137337444Y-102848410D01*
X137337320Y-102956360D01*
X137250900Y-102956360D01*
X137253452Y-102684952D01*
X137253452Y-102684952D01*
G37*
X137253452Y-102684952D02*
X137461924Y-102554515D01*
X137670396Y-102424077D01*
X137670396Y-99627828D01*
X137645485Y-99617978D01*
X137616338Y-99601624D01*
X137589386Y-99577402D01*
X137566922Y-99547607D01*
X137557440Y-99529954D01*
X137543087Y-99488476D01*
X137537709Y-99446614D01*
X137540890Y-99405633D01*
X137552216Y-99366798D01*
X137571271Y-99331372D01*
X137597641Y-99300620D01*
X137630911Y-99275807D01*
X137642992Y-99269305D01*
X137659387Y-99262120D01*
X137674776Y-99257964D01*
X137692972Y-99256076D01*
X137711232Y-99255690D01*
X137732855Y-99256072D01*
X137748771Y-99257938D01*
X137762837Y-99262162D01*
X137778915Y-99269616D01*
X137783707Y-99272090D01*
X137818661Y-99295851D01*
X137847310Y-99327052D01*
X137868439Y-99363911D01*
X137876804Y-99390661D01*
X137881720Y-99422698D01*
X137882934Y-99455977D01*
X137880197Y-99486456D01*
X137876932Y-99500507D01*
X137860000Y-99540317D01*
X137835653Y-99574452D01*
X137804853Y-99601749D01*
X137781820Y-99615280D01*
X137759056Y-99626361D01*
X137759056Y-102477396D01*
X137716389Y-102504025D01*
X137716389Y-99536926D01*
X137741658Y-99531160D01*
X137748464Y-99527901D01*
X137772215Y-99510689D01*
X137787682Y-99488861D01*
X137795276Y-99461637D01*
X137796059Y-99437379D01*
X137794238Y-99417309D01*
X137790145Y-99402906D01*
X137782379Y-99389722D01*
X137780066Y-99386579D01*
X137758702Y-99365341D01*
X137734266Y-99352839D01*
X137708380Y-99349131D01*
X137682667Y-99354276D01*
X137658750Y-99368334D01*
X137645397Y-99381715D01*
X137631680Y-99404298D01*
X137625531Y-99430646D01*
X137626082Y-99459065D01*
X137633305Y-99485470D01*
X137647758Y-99507476D01*
X137667629Y-99524066D01*
X137691110Y-99534222D01*
X137716389Y-99536926D01*
X137716389Y-102504025D01*
X137548311Y-102608928D01*
X137337567Y-102740460D01*
X137337444Y-102848410D01*
X137337320Y-102956360D01*
X137250900Y-102956360D01*
X137253452Y-102684952D01*
G36*
X137332528Y-104546400D02*
X137332528Y-104757333D01*
X137543396Y-104889300D01*
X137754264Y-105021268D01*
X137754264Y-110941949D01*
X137777028Y-110954206D01*
X137808249Y-110976503D01*
X137834614Y-111006398D01*
X137854882Y-111042080D01*
X137867815Y-111081739D01*
X137869216Y-111088864D01*
X137872211Y-111107066D01*
X137873332Y-111120583D01*
X137872475Y-111133623D01*
X137869536Y-111150392D01*
X137867447Y-111160560D01*
X137858505Y-111193185D01*
X137845576Y-111220538D01*
X137826652Y-111246457D01*
X137816728Y-111257524D01*
X137788635Y-111282555D01*
X137758533Y-111298953D01*
X137724387Y-111307593D01*
X137695868Y-111309504D01*
X137691883Y-111309431D01*
X137691883Y-111215373D01*
X137716853Y-111213098D01*
X137740430Y-111203366D01*
X137760787Y-111186313D01*
X137774624Y-111165279D01*
X137780503Y-111145770D01*
X137782773Y-111122070D01*
X137781358Y-111098655D01*
X137776182Y-111080004D01*
X137776075Y-111079782D01*
X137765998Y-111064709D01*
X137751566Y-111049485D01*
X137735967Y-111037059D01*
X137722765Y-111030474D01*
X137710643Y-111029011D01*
X137694232Y-111029091D01*
X137687112Y-111029634D01*
X137661321Y-111036824D01*
X137640145Y-111051568D01*
X137624291Y-111072143D01*
X137614470Y-111096825D01*
X137611388Y-111123891D01*
X137615755Y-111151616D01*
X137626897Y-111176125D01*
X137645078Y-111197021D01*
X137667349Y-111210059D01*
X137691883Y-111215373D01*
X137691883Y-111309431D01*
X137676069Y-111309138D01*
X137660859Y-111307045D01*
X137646247Y-111302205D01*
X137628242Y-111293598D01*
X137623042Y-111290894D01*
X137591927Y-111271220D01*
X137567524Y-111247471D01*
X137547531Y-111217176D01*
X137539639Y-111201355D01*
X137533467Y-111186873D01*
X137529606Y-111173691D01*
X137527531Y-111158638D01*
X137526720Y-111138541D01*
X137526622Y-111122460D01*
X137526946Y-111097442D01*
X137528265Y-111079326D01*
X137531098Y-111064868D01*
X137535965Y-111050823D01*
X137539372Y-111042831D01*
X137550299Y-111022162D01*
X137564201Y-111001047D01*
X137572214Y-110990896D01*
X137586409Y-110977228D01*
X137604547Y-110963410D01*
X137624015Y-110951063D01*
X137642199Y-110941805D01*
X137656486Y-110937253D01*
X137659180Y-110937040D01*
X137659801Y-110936837D01*
X137660393Y-110936065D01*
X137660955Y-110934480D01*
X137661489Y-110931837D01*
X137661995Y-110927895D01*
X137662474Y-110922407D01*
X137662927Y-110915131D01*
X137663355Y-110905823D01*
X137663758Y-110894239D01*
X137664137Y-110880135D01*
X137664492Y-110863268D01*
X137664826Y-110843392D01*
X137665137Y-110820265D01*
X137665428Y-110793643D01*
X137665698Y-110763281D01*
X137665948Y-110728936D01*
X137666180Y-110690365D01*
X137666394Y-110647322D01*
X137666590Y-110599565D01*
X137666770Y-110546849D01*
X137666933Y-110488931D01*
X137667082Y-110425567D01*
X137667216Y-110356513D01*
X137667336Y-110281524D01*
X137667444Y-110200358D01*
X137667539Y-110112771D01*
X137667623Y-110018517D01*
X137667696Y-109917355D01*
X137667759Y-109809039D01*
X137667812Y-109693326D01*
X137667858Y-109569972D01*
X137667895Y-109438734D01*
X137667925Y-109299367D01*
X137667949Y-109151627D01*
X137667967Y-108995271D01*
X137667980Y-108830055D01*
X137667990Y-108655734D01*
X137667995Y-108472066D01*
X137667998Y-108278806D01*
X137667999Y-108075710D01*
X137668000Y-108006455D01*
X137668000Y-105075870D01*
X137457263Y-104944485D01*
X137246527Y-104813100D01*
X137246395Y-104679750D01*
X137246264Y-104546400D01*
X137332528Y-104546400D01*
X137332528Y-104546400D01*
G37*
X137332528Y-104546400D02*
X137332528Y-104757333D01*
X137543396Y-104889300D01*
X137754264Y-105021268D01*
X137754264Y-110941949D01*
X137777028Y-110954206D01*
X137808249Y-110976503D01*
X137834614Y-111006398D01*
X137854882Y-111042080D01*
X137867815Y-111081739D01*
X137869216Y-111088864D01*
X137872211Y-111107066D01*
X137873332Y-111120583D01*
X137872475Y-111133623D01*
X137869536Y-111150392D01*
X137867447Y-111160560D01*
X137858505Y-111193185D01*
X137845576Y-111220538D01*
X137826652Y-111246457D01*
X137816728Y-111257524D01*
X137788635Y-111282555D01*
X137758533Y-111298953D01*
X137724387Y-111307593D01*
X137695868Y-111309504D01*
X137691883Y-111309431D01*
X137691883Y-111215373D01*
X137716853Y-111213098D01*
X137740430Y-111203366D01*
X137760787Y-111186313D01*
X137774624Y-111165279D01*
X137780503Y-111145770D01*
X137782773Y-111122070D01*
X137781358Y-111098655D01*
X137776182Y-111080004D01*
X137776075Y-111079782D01*
X137765998Y-111064709D01*
X137751566Y-111049485D01*
X137735967Y-111037059D01*
X137722765Y-111030474D01*
X137710643Y-111029011D01*
X137694232Y-111029091D01*
X137687112Y-111029634D01*
X137661321Y-111036824D01*
X137640145Y-111051568D01*
X137624291Y-111072143D01*
X137614470Y-111096825D01*
X137611388Y-111123891D01*
X137615755Y-111151616D01*
X137626897Y-111176125D01*
X137645078Y-111197021D01*
X137667349Y-111210059D01*
X137691883Y-111215373D01*
X137691883Y-111309431D01*
X137676069Y-111309138D01*
X137660859Y-111307045D01*
X137646247Y-111302205D01*
X137628242Y-111293598D01*
X137623042Y-111290894D01*
X137591927Y-111271220D01*
X137567524Y-111247471D01*
X137547531Y-111217176D01*
X137539639Y-111201355D01*
X137533467Y-111186873D01*
X137529606Y-111173691D01*
X137527531Y-111158638D01*
X137526720Y-111138541D01*
X137526622Y-111122460D01*
X137526946Y-111097442D01*
X137528265Y-111079326D01*
X137531098Y-111064868D01*
X137535965Y-111050823D01*
X137539372Y-111042831D01*
X137550299Y-111022162D01*
X137564201Y-111001047D01*
X137572214Y-110990896D01*
X137586409Y-110977228D01*
X137604547Y-110963410D01*
X137624015Y-110951063D01*
X137642199Y-110941805D01*
X137656486Y-110937253D01*
X137659180Y-110937040D01*
X137659801Y-110936837D01*
X137660393Y-110936065D01*
X137660955Y-110934480D01*
X137661489Y-110931837D01*
X137661995Y-110927895D01*
X137662474Y-110922407D01*
X137662927Y-110915131D01*
X137663355Y-110905823D01*
X137663758Y-110894239D01*
X137664137Y-110880135D01*
X137664492Y-110863268D01*
X137664826Y-110843392D01*
X137665137Y-110820265D01*
X137665428Y-110793643D01*
X137665698Y-110763281D01*
X137665948Y-110728936D01*
X137666180Y-110690365D01*
X137666394Y-110647322D01*
X137666590Y-110599565D01*
X137666770Y-110546849D01*
X137666933Y-110488931D01*
X137667082Y-110425567D01*
X137667216Y-110356513D01*
X137667336Y-110281524D01*
X137667444Y-110200358D01*
X137667539Y-110112771D01*
X137667623Y-110018517D01*
X137667696Y-109917355D01*
X137667759Y-109809039D01*
X137667812Y-109693326D01*
X137667858Y-109569972D01*
X137667895Y-109438734D01*
X137667925Y-109299367D01*
X137667949Y-109151627D01*
X137667967Y-108995271D01*
X137667980Y-108830055D01*
X137667990Y-108655734D01*
X137667995Y-108472066D01*
X137667998Y-108278806D01*
X137667999Y-108075710D01*
X137668000Y-108006455D01*
X137668000Y-105075870D01*
X137457263Y-104944485D01*
X137246527Y-104813100D01*
X137246395Y-104679750D01*
X137246264Y-104546400D01*
X137332528Y-104546400D01*
G36*
X136541868Y-110855804D02*
X136542143Y-110802063D01*
X136542584Y-110753671D01*
X136543178Y-110711455D01*
X136543911Y-110676243D01*
X136544770Y-110648862D01*
X136545741Y-110630141D01*
X136546602Y-110621876D01*
X136557804Y-110581945D01*
X136575948Y-110544929D01*
X136599706Y-110512794D01*
X136627748Y-110487507D01*
X136644227Y-110477381D01*
X136658112Y-110471137D01*
X136673971Y-110466090D01*
X136692908Y-110462126D01*
X136716026Y-110459131D01*
X136744427Y-110456994D01*
X136779215Y-110455600D01*
X136821492Y-110454838D01*
X136866462Y-110454597D01*
X136992264Y-110454440D01*
X136992264Y-111094888D01*
X137038990Y-111093434D01*
X137085717Y-111091980D01*
X137088193Y-110520480D01*
X137275018Y-110520480D01*
X137274493Y-110826550D01*
X137274330Y-110882094D01*
X137274042Y-110935148D01*
X137273643Y-110984747D01*
X137273148Y-111029924D01*
X137272571Y-111069715D01*
X137271925Y-111103154D01*
X137271224Y-111129275D01*
X137270482Y-111147113D01*
X137269757Y-111155480D01*
X137259196Y-111191504D01*
X137241800Y-111226355D01*
X137219167Y-111257860D01*
X137192892Y-111283848D01*
X137164573Y-111302147D01*
X137160654Y-111303921D01*
X137154276Y-111306583D01*
X137148059Y-111308801D01*
X137141110Y-111310618D01*
X137132534Y-111312072D01*
X137121439Y-111313205D01*
X137106930Y-111314055D01*
X137088113Y-111314665D01*
X137064097Y-111315073D01*
X137033985Y-111315321D01*
X136996886Y-111315447D01*
X136951905Y-111315494D01*
X136903603Y-111315500D01*
X136849734Y-111315468D01*
X136804564Y-111315350D01*
X136767207Y-111315117D01*
X136743056Y-111314817D01*
X136743056Y-111094520D01*
X136805358Y-111094520D01*
X136805358Y-110677960D01*
X136743056Y-110677960D01*
X136743056Y-111094520D01*
X136743056Y-111314817D01*
X136736780Y-111314738D01*
X136712395Y-111314184D01*
X136693168Y-111313426D01*
X136678214Y-111312432D01*
X136666646Y-111311173D01*
X136657580Y-111309619D01*
X136650131Y-111307740D01*
X136647207Y-111306826D01*
X136614371Y-111291445D01*
X136586139Y-111269114D01*
X136568546Y-111247555D01*
X136562882Y-111238678D01*
X136558078Y-111230178D01*
X136554065Y-111221170D01*
X136550771Y-111210770D01*
X136548125Y-111198094D01*
X136546056Y-111182259D01*
X136544493Y-111162380D01*
X136543365Y-111137575D01*
X136542602Y-111106958D01*
X136542132Y-111069646D01*
X136541885Y-111024755D01*
X136541789Y-110971401D01*
X136541773Y-110914066D01*
X136541868Y-110855804D01*
X136541868Y-110855804D01*
G37*
X136541868Y-110855804D02*
X136542143Y-110802063D01*
X136542584Y-110753671D01*
X136543178Y-110711455D01*
X136543911Y-110676243D01*
X136544770Y-110648862D01*
X136545741Y-110630141D01*
X136546602Y-110621876D01*
X136557804Y-110581945D01*
X136575948Y-110544929D01*
X136599706Y-110512794D01*
X136627748Y-110487507D01*
X136644227Y-110477381D01*
X136658112Y-110471137D01*
X136673971Y-110466090D01*
X136692908Y-110462126D01*
X136716026Y-110459131D01*
X136744427Y-110456994D01*
X136779215Y-110455600D01*
X136821492Y-110454838D01*
X136866462Y-110454597D01*
X136992264Y-110454440D01*
X136992264Y-111094888D01*
X137038990Y-111093434D01*
X137085717Y-111091980D01*
X137088193Y-110520480D01*
X137275018Y-110520480D01*
X137274493Y-110826550D01*
X137274330Y-110882094D01*
X137274042Y-110935148D01*
X137273643Y-110984747D01*
X137273148Y-111029924D01*
X137272571Y-111069715D01*
X137271925Y-111103154D01*
X137271224Y-111129275D01*
X137270482Y-111147113D01*
X137269757Y-111155480D01*
X137259196Y-111191504D01*
X137241800Y-111226355D01*
X137219167Y-111257860D01*
X137192892Y-111283848D01*
X137164573Y-111302147D01*
X137160654Y-111303921D01*
X137154276Y-111306583D01*
X137148059Y-111308801D01*
X137141110Y-111310618D01*
X137132534Y-111312072D01*
X137121439Y-111313205D01*
X137106930Y-111314055D01*
X137088113Y-111314665D01*
X137064097Y-111315073D01*
X137033985Y-111315321D01*
X136996886Y-111315447D01*
X136951905Y-111315494D01*
X136903603Y-111315500D01*
X136849734Y-111315468D01*
X136804564Y-111315350D01*
X136767207Y-111315117D01*
X136743056Y-111314817D01*
X136743056Y-111094520D01*
X136805358Y-111094520D01*
X136805358Y-110677960D01*
X136743056Y-110677960D01*
X136743056Y-111094520D01*
X136743056Y-111314817D01*
X136736780Y-111314738D01*
X136712395Y-111314184D01*
X136693168Y-111313426D01*
X136678214Y-111312432D01*
X136666646Y-111311173D01*
X136657580Y-111309619D01*
X136650131Y-111307740D01*
X136647207Y-111306826D01*
X136614371Y-111291445D01*
X136586139Y-111269114D01*
X136568546Y-111247555D01*
X136562882Y-111238678D01*
X136558078Y-111230178D01*
X136554065Y-111221170D01*
X136550771Y-111210770D01*
X136548125Y-111198094D01*
X136546056Y-111182259D01*
X136544493Y-111162380D01*
X136543365Y-111137575D01*
X136542602Y-111106958D01*
X136542132Y-111069646D01*
X136541885Y-111024755D01*
X136541789Y-110971401D01*
X136541773Y-110914066D01*
X136541868Y-110855804D01*
G36*
X137275018Y-109687360D02*
X137275018Y-109910880D01*
X136383622Y-109910880D01*
X136383622Y-109687360D01*
X137275018Y-109687360D01*
X137275018Y-109687360D01*
G37*
X137275018Y-109687360D02*
X137275018Y-109910880D01*
X136383622Y-109910880D01*
X136383622Y-109687360D01*
X137275018Y-109687360D01*
G36*
X136541868Y-108666228D02*
X136542143Y-108612502D01*
X136542584Y-108564124D01*
X136543179Y-108521921D01*
X136543912Y-108486720D01*
X136544771Y-108459352D01*
X136545742Y-108440642D01*
X136546602Y-108432396D01*
X136558288Y-108391015D01*
X136577313Y-108353136D01*
X136602457Y-108320534D01*
X136632502Y-108294985D01*
X136646601Y-108286622D01*
X136673566Y-108272580D01*
X136832915Y-108271000D01*
X136992264Y-108269419D01*
X136992264Y-108905040D01*
X137088113Y-108905040D01*
X137088113Y-108336080D01*
X137275018Y-108336080D01*
X137274493Y-108639610D01*
X137274330Y-108694906D01*
X137274044Y-108747696D01*
X137273649Y-108797015D01*
X137273158Y-108841893D01*
X137272587Y-108881362D01*
X137271948Y-108914454D01*
X137271255Y-108940202D01*
X137270523Y-108957636D01*
X137269835Y-108965450D01*
X137262222Y-108992618D01*
X137249749Y-109022565D01*
X137234430Y-109050988D01*
X137220300Y-109071197D01*
X137204003Y-109087064D01*
X137182592Y-109102465D01*
X137170694Y-109109297D01*
X137138659Y-109126020D01*
X136920490Y-109127535D01*
X136855704Y-109127836D01*
X136800448Y-109127773D01*
X136754676Y-109127344D01*
X136743056Y-109127090D01*
X136743056Y-108905040D01*
X136805358Y-108905040D01*
X136805358Y-108488480D01*
X136743056Y-108488480D01*
X136743056Y-108905040D01*
X136743056Y-109127090D01*
X136718338Y-109126549D01*
X136691388Y-109125387D01*
X136673776Y-109123857D01*
X136670336Y-109123332D01*
X136635440Y-109112820D01*
X136603943Y-109095048D01*
X136578208Y-109071454D01*
X136572045Y-109063566D01*
X136565686Y-109054508D01*
X136560285Y-109045888D01*
X136555766Y-109036827D01*
X136552050Y-109026447D01*
X136549057Y-109013870D01*
X136546710Y-108998216D01*
X136544931Y-108978608D01*
X136543640Y-108954167D01*
X136542760Y-108924014D01*
X136542211Y-108887271D01*
X136541916Y-108843059D01*
X136541796Y-108790499D01*
X136541773Y-108728714D01*
X136541773Y-108724472D01*
X136541868Y-108666228D01*
X136541868Y-108666228D01*
G37*
X136541868Y-108666228D02*
X136542143Y-108612502D01*
X136542584Y-108564124D01*
X136543179Y-108521921D01*
X136543912Y-108486720D01*
X136544771Y-108459352D01*
X136545742Y-108440642D01*
X136546602Y-108432396D01*
X136558288Y-108391015D01*
X136577313Y-108353136D01*
X136602457Y-108320534D01*
X136632502Y-108294985D01*
X136646601Y-108286622D01*
X136673566Y-108272580D01*
X136832915Y-108271000D01*
X136992264Y-108269419D01*
X136992264Y-108905040D01*
X137088113Y-108905040D01*
X137088113Y-108336080D01*
X137275018Y-108336080D01*
X137274493Y-108639610D01*
X137274330Y-108694906D01*
X137274044Y-108747696D01*
X137273649Y-108797015D01*
X137273158Y-108841893D01*
X137272587Y-108881362D01*
X137271948Y-108914454D01*
X137271255Y-108940202D01*
X137270523Y-108957636D01*
X137269835Y-108965450D01*
X137262222Y-108992618D01*
X137249749Y-109022565D01*
X137234430Y-109050988D01*
X137220300Y-109071197D01*
X137204003Y-109087064D01*
X137182592Y-109102465D01*
X137170694Y-109109297D01*
X137138659Y-109126020D01*
X136920490Y-109127535D01*
X136855704Y-109127836D01*
X136800448Y-109127773D01*
X136754676Y-109127344D01*
X136743056Y-109127090D01*
X136743056Y-108905040D01*
X136805358Y-108905040D01*
X136805358Y-108488480D01*
X136743056Y-108488480D01*
X136743056Y-108905040D01*
X136743056Y-109127090D01*
X136718338Y-109126549D01*
X136691388Y-109125387D01*
X136673776Y-109123857D01*
X136670336Y-109123332D01*
X136635440Y-109112820D01*
X136603943Y-109095048D01*
X136578208Y-109071454D01*
X136572045Y-109063566D01*
X136565686Y-109054508D01*
X136560285Y-109045888D01*
X136555766Y-109036827D01*
X136552050Y-109026447D01*
X136549057Y-109013870D01*
X136546710Y-108998216D01*
X136544931Y-108978608D01*
X136543640Y-108954167D01*
X136542760Y-108924014D01*
X136542211Y-108887271D01*
X136541916Y-108843059D01*
X136541796Y-108790499D01*
X136541773Y-108728714D01*
X136541773Y-108724472D01*
X136541868Y-108666228D01*
G36*
X136743056Y-106913680D02*
X136743056Y-107487720D01*
X137088113Y-107487720D01*
X137088113Y-106852720D01*
X137275018Y-106852720D01*
X137274493Y-107189270D01*
X137274341Y-107247470D01*
X137274078Y-107303151D01*
X137273716Y-107355402D01*
X137273266Y-107403312D01*
X137272740Y-107445969D01*
X137272150Y-107482464D01*
X137271508Y-107511884D01*
X137270826Y-107533320D01*
X137270115Y-107545859D01*
X137269835Y-107548130D01*
X137262222Y-107575298D01*
X137249749Y-107605245D01*
X137234430Y-107633668D01*
X137220300Y-107653877D01*
X137203971Y-107669771D01*
X137182518Y-107685186D01*
X137170680Y-107691977D01*
X137138630Y-107708700D01*
X136663981Y-107708700D01*
X136635797Y-107696657D01*
X136602606Y-107677703D01*
X136576450Y-107652009D01*
X136557491Y-107620616D01*
X136544169Y-107591860D01*
X136542841Y-107252770D01*
X136541512Y-106913680D01*
X136743056Y-106913680D01*
X136743056Y-106913680D01*
G37*
X136743056Y-106913680D02*
X136743056Y-107487720D01*
X137088113Y-107487720D01*
X137088113Y-106852720D01*
X137275018Y-106852720D01*
X137274493Y-107189270D01*
X137274341Y-107247470D01*
X137274078Y-107303151D01*
X137273716Y-107355402D01*
X137273266Y-107403312D01*
X137272740Y-107445969D01*
X137272150Y-107482464D01*
X137271508Y-107511884D01*
X137270826Y-107533320D01*
X137270115Y-107545859D01*
X137269835Y-107548130D01*
X137262222Y-107575298D01*
X137249749Y-107605245D01*
X137234430Y-107633668D01*
X137220300Y-107653877D01*
X137203971Y-107669771D01*
X137182518Y-107685186D01*
X137170680Y-107691977D01*
X137138630Y-107708700D01*
X136663981Y-107708700D01*
X136635797Y-107696657D01*
X136602606Y-107677703D01*
X136576450Y-107652009D01*
X136557491Y-107620616D01*
X136544169Y-107591860D01*
X136542841Y-107252770D01*
X136541512Y-106913680D01*
X136743056Y-106913680D01*
G36*
X136541773Y-106111040D02*
X136541773Y-105892600D01*
X136743056Y-105892600D01*
X136743056Y-106111169D01*
X136914386Y-106109835D01*
X137085717Y-106108500D01*
X137088303Y-105892600D01*
X137275018Y-105892600D01*
X137274528Y-106048810D01*
X137274294Y-106088376D01*
X137273866Y-106125256D01*
X137273278Y-106158059D01*
X137272562Y-106185394D01*
X137271749Y-106205870D01*
X137270873Y-106218095D01*
X137270537Y-106220260D01*
X137260030Y-106250043D01*
X137243676Y-106277174D01*
X137223454Y-106298775D01*
X137210320Y-106307865D01*
X137202751Y-106312008D01*
X137195552Y-106315633D01*
X137188056Y-106318777D01*
X137179595Y-106321479D01*
X137169503Y-106323777D01*
X137157114Y-106325709D01*
X137141759Y-106327313D01*
X137122773Y-106328627D01*
X137099487Y-106329690D01*
X137071235Y-106330538D01*
X137037351Y-106331211D01*
X136997166Y-106331746D01*
X136950015Y-106332182D01*
X136895229Y-106332557D01*
X136832143Y-106332908D01*
X136765820Y-106333245D01*
X136383622Y-106335166D01*
X136383622Y-106111040D01*
X136541773Y-106111040D01*
X136541773Y-106111040D01*
G37*
X136541773Y-106111040D02*
X136541773Y-105892600D01*
X136743056Y-105892600D01*
X136743056Y-106111169D01*
X136914386Y-106109835D01*
X137085717Y-106108500D01*
X137088303Y-105892600D01*
X137275018Y-105892600D01*
X137274528Y-106048810D01*
X137274294Y-106088376D01*
X137273866Y-106125256D01*
X137273278Y-106158059D01*
X137272562Y-106185394D01*
X137271749Y-106205870D01*
X137270873Y-106218095D01*
X137270537Y-106220260D01*
X137260030Y-106250043D01*
X137243676Y-106277174D01*
X137223454Y-106298775D01*
X137210320Y-106307865D01*
X137202751Y-106312008D01*
X137195552Y-106315633D01*
X137188056Y-106318777D01*
X137179595Y-106321479D01*
X137169503Y-106323777D01*
X137157114Y-106325709D01*
X137141759Y-106327313D01*
X137122773Y-106328627D01*
X137099487Y-106329690D01*
X137071235Y-106330538D01*
X137037351Y-106331211D01*
X136997166Y-106331746D01*
X136950015Y-106332182D01*
X136895229Y-106332557D01*
X136832143Y-106332908D01*
X136765820Y-106333245D01*
X136383622Y-106335166D01*
X136383622Y-106111040D01*
X136541773Y-106111040D01*
G36*
X136563079Y-105149929D02*
X136584384Y-105148380D01*
X136567792Y-105120544D01*
X136558125Y-105103277D01*
X136551174Y-105087469D01*
X136546503Y-105070881D01*
X136543676Y-105051273D01*
X136542257Y-105026407D01*
X136541811Y-104994044D01*
X136541800Y-104987090D01*
X136541773Y-104917240D01*
X136743056Y-104917240D01*
X136743056Y-105150920D01*
X137275018Y-105150920D01*
X137275018Y-105374440D01*
X136541773Y-105374440D01*
X136541773Y-105151477D01*
X136563079Y-105149929D01*
X136563079Y-105149929D01*
G37*
X136563079Y-105149929D02*
X136584384Y-105148380D01*
X136567792Y-105120544D01*
X136558125Y-105103277D01*
X136551174Y-105087469D01*
X136546503Y-105070881D01*
X136543676Y-105051273D01*
X136542257Y-105026407D01*
X136541811Y-104994044D01*
X136541800Y-104987090D01*
X136541773Y-104917240D01*
X136743056Y-104917240D01*
X136743056Y-105150920D01*
X137275018Y-105150920D01*
X137275018Y-105374440D01*
X136541773Y-105374440D01*
X136541773Y-105151477D01*
X136563079Y-105149929D01*
G36*
X136541777Y-103652375D02*
X136541856Y-103598011D01*
X136542108Y-103552107D01*
X136542632Y-103513811D01*
X136543527Y-103482274D01*
X136544891Y-103456646D01*
X136546822Y-103436076D01*
X136549421Y-103419713D01*
X136552785Y-103406708D01*
X136557013Y-103396210D01*
X136562204Y-103387370D01*
X136568456Y-103379335D01*
X136575869Y-103371257D01*
X136582604Y-103364291D01*
X136600064Y-103347908D01*
X136616616Y-103337000D01*
X136636808Y-103328691D01*
X136641094Y-103327277D01*
X136648895Y-103324868D01*
X136656622Y-103322862D01*
X136665175Y-103321228D01*
X136675456Y-103319936D01*
X136688367Y-103318955D01*
X136704809Y-103318254D01*
X136725683Y-103317804D01*
X136751892Y-103317573D01*
X136784336Y-103317531D01*
X136823916Y-103317647D01*
X136871536Y-103317891D01*
X136911025Y-103318126D01*
X137148018Y-103319580D01*
X137172496Y-103333270D01*
X137202476Y-103355404D01*
X137228770Y-103385357D01*
X137250050Y-103421100D01*
X137264987Y-103460604D01*
X137269779Y-103481803D01*
X137270837Y-103493069D01*
X137271763Y-103513141D01*
X137272558Y-103540837D01*
X137273220Y-103574969D01*
X137273751Y-103614353D01*
X137274149Y-103657803D01*
X137274416Y-103704134D01*
X137274550Y-103752162D01*
X137274552Y-103800699D01*
X137274422Y-103848562D01*
X137274160Y-103894565D01*
X137273765Y-103937523D01*
X137273238Y-103976249D01*
X137272579Y-104009560D01*
X137271787Y-104036269D01*
X137270863Y-104055192D01*
X137269806Y-104065142D01*
X137269804Y-104065149D01*
X137257445Y-104100762D01*
X137237811Y-104129863D01*
X137211237Y-104152055D01*
X137186510Y-104164091D01*
X137180321Y-104166119D01*
X137173077Y-104167818D01*
X137163926Y-104169216D01*
X137152012Y-104170342D01*
X137136481Y-104171225D01*
X137116479Y-104171894D01*
X137091151Y-104172376D01*
X137059643Y-104172702D01*
X137021101Y-104172898D01*
X136974670Y-104172995D01*
X136920377Y-104173020D01*
X136743056Y-104173020D01*
X136743056Y-103952040D01*
X137088113Y-103952040D01*
X137088113Y-103540560D01*
X136743056Y-103540560D01*
X136743056Y-103952040D01*
X136743056Y-104173020D01*
X136678358Y-104173020D01*
X136648480Y-104158393D01*
X136615345Y-104136723D01*
X136587307Y-104107255D01*
X136565324Y-104071352D01*
X136550353Y-104030376D01*
X136546602Y-104013205D01*
X136545556Y-104002159D01*
X136544611Y-103981759D01*
X136543778Y-103952814D01*
X136543072Y-103916131D01*
X136542506Y-103872515D01*
X136542092Y-103822775D01*
X136541844Y-103767717D01*
X136541773Y-103716049D01*
X136541777Y-103652375D01*
X136541777Y-103652375D01*
G37*
X136541777Y-103652375D02*
X136541856Y-103598011D01*
X136542108Y-103552107D01*
X136542632Y-103513811D01*
X136543527Y-103482274D01*
X136544891Y-103456646D01*
X136546822Y-103436076D01*
X136549421Y-103419713D01*
X136552785Y-103406708D01*
X136557013Y-103396210D01*
X136562204Y-103387370D01*
X136568456Y-103379335D01*
X136575869Y-103371257D01*
X136582604Y-103364291D01*
X136600064Y-103347908D01*
X136616616Y-103337000D01*
X136636808Y-103328691D01*
X136641094Y-103327277D01*
X136648895Y-103324868D01*
X136656622Y-103322862D01*
X136665175Y-103321228D01*
X136675456Y-103319936D01*
X136688367Y-103318955D01*
X136704809Y-103318254D01*
X136725683Y-103317804D01*
X136751892Y-103317573D01*
X136784336Y-103317531D01*
X136823916Y-103317647D01*
X136871536Y-103317891D01*
X136911025Y-103318126D01*
X137148018Y-103319580D01*
X137172496Y-103333270D01*
X137202476Y-103355404D01*
X137228770Y-103385357D01*
X137250050Y-103421100D01*
X137264987Y-103460604D01*
X137269779Y-103481803D01*
X137270837Y-103493069D01*
X137271763Y-103513141D01*
X137272558Y-103540837D01*
X137273220Y-103574969D01*
X137273751Y-103614353D01*
X137274149Y-103657803D01*
X137274416Y-103704134D01*
X137274550Y-103752162D01*
X137274552Y-103800699D01*
X137274422Y-103848562D01*
X137274160Y-103894565D01*
X137273765Y-103937523D01*
X137273238Y-103976249D01*
X137272579Y-104009560D01*
X137271787Y-104036269D01*
X137270863Y-104055192D01*
X137269806Y-104065142D01*
X137269804Y-104065149D01*
X137257445Y-104100762D01*
X137237811Y-104129863D01*
X137211237Y-104152055D01*
X137186510Y-104164091D01*
X137180321Y-104166119D01*
X137173077Y-104167818D01*
X137163926Y-104169216D01*
X137152012Y-104170342D01*
X137136481Y-104171225D01*
X137116479Y-104171894D01*
X137091151Y-104172376D01*
X137059643Y-104172702D01*
X137021101Y-104172898D01*
X136974670Y-104172995D01*
X136920377Y-104173020D01*
X136743056Y-104173020D01*
X136743056Y-103952040D01*
X137088113Y-103952040D01*
X137088113Y-103540560D01*
X136743056Y-103540560D01*
X136743056Y-103952040D01*
X136743056Y-104173020D01*
X136678358Y-104173020D01*
X136648480Y-104158393D01*
X136615345Y-104136723D01*
X136587307Y-104107255D01*
X136565324Y-104071352D01*
X136550353Y-104030376D01*
X136546602Y-104013205D01*
X136545556Y-104002159D01*
X136544611Y-103981759D01*
X136543778Y-103952814D01*
X136543072Y-103916131D01*
X136542506Y-103872515D01*
X136542092Y-103822775D01*
X136541844Y-103767717D01*
X136541773Y-103716049D01*
X136541777Y-103652375D01*
G36*
X136541794Y-102076322D02*
X136541868Y-102015052D01*
X136542008Y-101962484D01*
X136542228Y-101917889D01*
X136542542Y-101880537D01*
X136542965Y-101849701D01*
X136543511Y-101824650D01*
X136544194Y-101804656D01*
X136545028Y-101788989D01*
X136546028Y-101776921D01*
X136547206Y-101767723D01*
X136548578Y-101760665D01*
X136549323Y-101757775D01*
X136562256Y-101728377D01*
X136583156Y-101701461D01*
X136610430Y-101678817D01*
X136629311Y-101667968D01*
X136659188Y-101653340D01*
X137275018Y-101650446D01*
X137275018Y-101869240D01*
X136743056Y-101869240D01*
X136743056Y-102285800D01*
X137275018Y-102285800D01*
X137275018Y-102509320D01*
X136541773Y-102509320D01*
X136541773Y-102147023D01*
X136541794Y-102076322D01*
X136541794Y-102076322D01*
G37*
X136541794Y-102076322D02*
X136541868Y-102015052D01*
X136542008Y-101962484D01*
X136542228Y-101917889D01*
X136542542Y-101880537D01*
X136542965Y-101849701D01*
X136543511Y-101824650D01*
X136544194Y-101804656D01*
X136545028Y-101788989D01*
X136546028Y-101776921D01*
X136547206Y-101767723D01*
X136548578Y-101760665D01*
X136549323Y-101757775D01*
X136562256Y-101728377D01*
X136583156Y-101701461D01*
X136610430Y-101678817D01*
X136629311Y-101667968D01*
X136659188Y-101653340D01*
X137275018Y-101650446D01*
X137275018Y-101869240D01*
X136743056Y-101869240D01*
X136743056Y-102285800D01*
X137275018Y-102285800D01*
X137275018Y-102509320D01*
X136541773Y-102509320D01*
X136541773Y-102147023D01*
X136541794Y-102076322D01*
G36*
X137073735Y-100909120D02*
X137073735Y-100492560D01*
X136541773Y-100492560D01*
X136541773Y-100274120D01*
X137275018Y-100274120D01*
X137275018Y-100492560D01*
X137253452Y-100492560D01*
X137240586Y-100493136D01*
X137232873Y-100494592D01*
X137231886Y-100495455D01*
X137234390Y-100500907D01*
X137240839Y-100511894D01*
X137246918Y-100521509D01*
X137253554Y-100532020D01*
X137259054Y-100541938D01*
X137263521Y-100552302D01*
X137267060Y-100564148D01*
X137269776Y-100578514D01*
X137271770Y-100596436D01*
X137273149Y-100618952D01*
X137274016Y-100647098D01*
X137274474Y-100681913D01*
X137274629Y-100724433D01*
X137274583Y-100775695D01*
X137274537Y-100796898D01*
X137274328Y-100842473D01*
X137273935Y-100885505D01*
X137273384Y-100924790D01*
X137272699Y-100959124D01*
X137271906Y-100987302D01*
X137271031Y-101008120D01*
X137270099Y-101020375D01*
X137269787Y-101022316D01*
X137257722Y-101055575D01*
X137237523Y-101083501D01*
X137209256Y-101106016D01*
X137185787Y-101118057D01*
X137157603Y-101130100D01*
X136849688Y-101131581D01*
X136541773Y-101133061D01*
X136541773Y-100909120D01*
X137073735Y-100909120D01*
X137073735Y-100909120D01*
G37*
X137073735Y-100909120D02*
X137073735Y-100492560D01*
X136541773Y-100492560D01*
X136541773Y-100274120D01*
X137275018Y-100274120D01*
X137275018Y-100492560D01*
X137253452Y-100492560D01*
X137240586Y-100493136D01*
X137232873Y-100494592D01*
X137231886Y-100495455D01*
X137234390Y-100500907D01*
X137240839Y-100511894D01*
X137246918Y-100521509D01*
X137253554Y-100532020D01*
X137259054Y-100541938D01*
X137263521Y-100552302D01*
X137267060Y-100564148D01*
X137269776Y-100578514D01*
X137271770Y-100596436D01*
X137273149Y-100618952D01*
X137274016Y-100647098D01*
X137274474Y-100681913D01*
X137274629Y-100724433D01*
X137274583Y-100775695D01*
X137274537Y-100796898D01*
X137274328Y-100842473D01*
X137273935Y-100885505D01*
X137273384Y-100924790D01*
X137272699Y-100959124D01*
X137271906Y-100987302D01*
X137271031Y-101008120D01*
X137270099Y-101020375D01*
X137269787Y-101022316D01*
X137257722Y-101055575D01*
X137237523Y-101083501D01*
X137209256Y-101106016D01*
X137185787Y-101118057D01*
X137157603Y-101130100D01*
X136849688Y-101131581D01*
X136541773Y-101133061D01*
X136541773Y-100909120D01*
X137073735Y-100909120D01*
G36*
X136541773Y-99532440D02*
X136541773Y-99314000D01*
X136743056Y-99314000D01*
X136743056Y-99532569D01*
X136914386Y-99531235D01*
X137085717Y-99529900D01*
X137088303Y-99314000D01*
X137275018Y-99314000D01*
X137274528Y-99470210D01*
X137274287Y-99509776D01*
X137273842Y-99546656D01*
X137273227Y-99579459D01*
X137272474Y-99606794D01*
X137271619Y-99627270D01*
X137270696Y-99639495D01*
X137270341Y-99641660D01*
X137257390Y-99677290D01*
X137237681Y-99706328D01*
X137211796Y-99728017D01*
X137198883Y-99734908D01*
X137189884Y-99738632D01*
X137179840Y-99741895D01*
X137168095Y-99744726D01*
X137153992Y-99747155D01*
X137136877Y-99749213D01*
X137116095Y-99750928D01*
X137090989Y-99752332D01*
X137060904Y-99753453D01*
X137025185Y-99754321D01*
X136983176Y-99754967D01*
X136934221Y-99755419D01*
X136877666Y-99755709D01*
X136812854Y-99755866D01*
X136739130Y-99755919D01*
X136737066Y-99755919D01*
X136383622Y-99755960D01*
X136383622Y-99532440D01*
X136541773Y-99532440D01*
X136541773Y-99532440D01*
G37*
X136541773Y-99532440D02*
X136541773Y-99314000D01*
X136743056Y-99314000D01*
X136743056Y-99532569D01*
X136914386Y-99531235D01*
X137085717Y-99529900D01*
X137088303Y-99314000D01*
X137275018Y-99314000D01*
X137274528Y-99470210D01*
X137274287Y-99509776D01*
X137273842Y-99546656D01*
X137273227Y-99579459D01*
X137272474Y-99606794D01*
X137271619Y-99627270D01*
X137270696Y-99639495D01*
X137270341Y-99641660D01*
X137257390Y-99677290D01*
X137237681Y-99706328D01*
X137211796Y-99728017D01*
X137198883Y-99734908D01*
X137189884Y-99738632D01*
X137179840Y-99741895D01*
X137168095Y-99744726D01*
X137153992Y-99747155D01*
X137136877Y-99749213D01*
X137116095Y-99750928D01*
X137090989Y-99752332D01*
X137060904Y-99753453D01*
X137025185Y-99754321D01*
X136983176Y-99754967D01*
X136934221Y-99755419D01*
X136877666Y-99755709D01*
X136812854Y-99755866D01*
X136739130Y-99755919D01*
X136737066Y-99755919D01*
X136383622Y-99755960D01*
X136383622Y-99532440D01*
X136541773Y-99532440D01*
G36*
X135926189Y-99410848D02*
X135927258Y-99392897D01*
X135929648Y-99379034D01*
X135933853Y-99366227D01*
X135939450Y-99353424D01*
X135958794Y-99321050D01*
X135984300Y-99292193D01*
X136013316Y-99269666D01*
X136024177Y-99263613D01*
X136038101Y-99257328D01*
X136051119Y-99253420D01*
X136066259Y-99251357D01*
X136086547Y-99250606D01*
X136098471Y-99250555D01*
X136121516Y-99250867D01*
X136137884Y-99252113D01*
X136150474Y-99254855D01*
X136162188Y-99259651D01*
X136171728Y-99264703D01*
X136205688Y-99288015D01*
X136232063Y-99316371D01*
X136248447Y-99343288D01*
X136263486Y-99383107D01*
X136269873Y-99424044D01*
X136268032Y-99464697D01*
X136258388Y-99503665D01*
X136241365Y-99539544D01*
X136217388Y-99570935D01*
X136186881Y-99596435D01*
X136168658Y-99606861D01*
X136139307Y-99621340D01*
X136139289Y-101020880D01*
X136139272Y-102420420D01*
X136351306Y-102553136D01*
X136563339Y-102685851D01*
X136564615Y-102817636D01*
X136564837Y-102853254D01*
X136564804Y-102885488D01*
X136564536Y-102912956D01*
X136564054Y-102934275D01*
X136563377Y-102948063D01*
X136562618Y-102952891D01*
X136556612Y-102954488D01*
X136543498Y-102955697D01*
X136525751Y-102956318D01*
X136519504Y-102956360D01*
X136479662Y-102956360D01*
X136478368Y-102848433D01*
X136477075Y-102740505D01*
X136265179Y-102608403D01*
X136090762Y-102499666D01*
X136090762Y-99529539D01*
X136117592Y-99526594D01*
X136144375Y-99513649D01*
X136146118Y-99512444D01*
X136164611Y-99493668D01*
X136176849Y-99469193D01*
X136182291Y-99441472D01*
X136180401Y-99412961D01*
X136172888Y-99390478D01*
X136156881Y-99367018D01*
X136136208Y-99351000D01*
X136112641Y-99342413D01*
X136087951Y-99341245D01*
X136063911Y-99347485D01*
X136042291Y-99361121D01*
X136024862Y-99382141D01*
X136019976Y-99391469D01*
X136010863Y-99421699D01*
X136010868Y-99451245D01*
X136019749Y-99478738D01*
X136037264Y-99502809D01*
X136040185Y-99505636D01*
X136064692Y-99522536D01*
X136090762Y-99529539D01*
X136090762Y-102499666D01*
X136053283Y-102476300D01*
X136053113Y-101048228D01*
X136052943Y-99620155D01*
X136029122Y-99609662D01*
X136003466Y-99594192D01*
X135978132Y-99571544D01*
X135955749Y-99544400D01*
X135941022Y-99519823D01*
X135934179Y-99505249D01*
X135929790Y-99492966D01*
X135927316Y-99479965D01*
X135926215Y-99463233D01*
X135925945Y-99439760D01*
X135925943Y-99435920D01*
X135926189Y-99410848D01*
X135926189Y-99410848D01*
G37*
X135926189Y-99410848D02*
X135927258Y-99392897D01*
X135929648Y-99379034D01*
X135933853Y-99366227D01*
X135939450Y-99353424D01*
X135958794Y-99321050D01*
X135984300Y-99292193D01*
X136013316Y-99269666D01*
X136024177Y-99263613D01*
X136038101Y-99257328D01*
X136051119Y-99253420D01*
X136066259Y-99251357D01*
X136086547Y-99250606D01*
X136098471Y-99250555D01*
X136121516Y-99250867D01*
X136137884Y-99252113D01*
X136150474Y-99254855D01*
X136162188Y-99259651D01*
X136171728Y-99264703D01*
X136205688Y-99288015D01*
X136232063Y-99316371D01*
X136248447Y-99343288D01*
X136263486Y-99383107D01*
X136269873Y-99424044D01*
X136268032Y-99464697D01*
X136258388Y-99503665D01*
X136241365Y-99539544D01*
X136217388Y-99570935D01*
X136186881Y-99596435D01*
X136168658Y-99606861D01*
X136139307Y-99621340D01*
X136139289Y-101020880D01*
X136139272Y-102420420D01*
X136351306Y-102553136D01*
X136563339Y-102685851D01*
X136564615Y-102817636D01*
X136564837Y-102853254D01*
X136564804Y-102885488D01*
X136564536Y-102912956D01*
X136564054Y-102934275D01*
X136563377Y-102948063D01*
X136562618Y-102952891D01*
X136556612Y-102954488D01*
X136543498Y-102955697D01*
X136525751Y-102956318D01*
X136519504Y-102956360D01*
X136479662Y-102956360D01*
X136478368Y-102848433D01*
X136477075Y-102740505D01*
X136265179Y-102608403D01*
X136090762Y-102499666D01*
X136090762Y-99529539D01*
X136117592Y-99526594D01*
X136144375Y-99513649D01*
X136146118Y-99512444D01*
X136164611Y-99493668D01*
X136176849Y-99469193D01*
X136182291Y-99441472D01*
X136180401Y-99412961D01*
X136172888Y-99390478D01*
X136156881Y-99367018D01*
X136136208Y-99351000D01*
X136112641Y-99342413D01*
X136087951Y-99341245D01*
X136063911Y-99347485D01*
X136042291Y-99361121D01*
X136024862Y-99382141D01*
X136019976Y-99391469D01*
X136010863Y-99421699D01*
X136010868Y-99451245D01*
X136019749Y-99478738D01*
X136037264Y-99502809D01*
X136040185Y-99505636D01*
X136064692Y-99522536D01*
X136090762Y-99529539D01*
X136090762Y-102499666D01*
X136053283Y-102476300D01*
X136053113Y-101048228D01*
X136052943Y-99620155D01*
X136029122Y-99609662D01*
X136003466Y-99594192D01*
X135978132Y-99571544D01*
X135955749Y-99544400D01*
X135941022Y-99519823D01*
X135934179Y-99505249D01*
X135929790Y-99492966D01*
X135927316Y-99479965D01*
X135926215Y-99463233D01*
X135925945Y-99439760D01*
X135925943Y-99435920D01*
X135926189Y-99410848D01*
G36*
X135932039Y-111080115D02*
X135941722Y-111041324D01*
X135959532Y-111004466D01*
X135978796Y-110978406D01*
X135994012Y-110962682D01*
X136009889Y-110948974D01*
X136023157Y-110940086D01*
X136023918Y-110939710D01*
X136043358Y-110930417D01*
X136043358Y-105009573D01*
X136256622Y-104876088D01*
X136469886Y-104742604D01*
X136469886Y-104531160D01*
X136556151Y-104531160D01*
X136556078Y-104664510D01*
X136556006Y-104797860D01*
X136345211Y-104929525D01*
X136134415Y-105061190D01*
X136134415Y-110919416D01*
X136157247Y-110928012D01*
X136195071Y-110947277D01*
X136226451Y-110973999D01*
X136251023Y-111007786D01*
X136268163Y-111047415D01*
X136276773Y-111089278D01*
X136276507Y-111130548D01*
X136268013Y-111169955D01*
X136251939Y-111206229D01*
X136228933Y-111238100D01*
X136199644Y-111264296D01*
X136164718Y-111283548D01*
X136144174Y-111290493D01*
X136106830Y-111296228D01*
X136102678Y-111295804D01*
X136102678Y-111201201D01*
X136131249Y-111196464D01*
X136156014Y-111182752D01*
X136175952Y-111160810D01*
X136187084Y-111139503D01*
X136190503Y-111121463D01*
X136189584Y-111098777D01*
X136184871Y-111075546D01*
X136176906Y-111055870D01*
X136175759Y-111053944D01*
X136157766Y-111033782D01*
X136134446Y-111020218D01*
X136108356Y-111014076D01*
X136082055Y-111016182D01*
X136070686Y-111020104D01*
X136050694Y-111033684D01*
X136034004Y-111053839D01*
X136022073Y-111077801D01*
X136016358Y-111102800D01*
X136017228Y-111121616D01*
X136027268Y-111151012D01*
X136043796Y-111174764D01*
X136065456Y-111191611D01*
X136090895Y-111200292D01*
X136102678Y-111201201D01*
X136102678Y-111295804D01*
X136070582Y-111292520D01*
X136033725Y-111279182D01*
X136031377Y-111278032D01*
X135997260Y-111255924D01*
X135969852Y-111227670D01*
X135949390Y-111194615D01*
X135936109Y-111158107D01*
X135930247Y-111119491D01*
X135932039Y-111080115D01*
X135932039Y-111080115D01*
G37*
X135932039Y-111080115D02*
X135941722Y-111041324D01*
X135959532Y-111004466D01*
X135978796Y-110978406D01*
X135994012Y-110962682D01*
X136009889Y-110948974D01*
X136023157Y-110940086D01*
X136023918Y-110939710D01*
X136043358Y-110930417D01*
X136043358Y-105009573D01*
X136256622Y-104876088D01*
X136469886Y-104742604D01*
X136469886Y-104531160D01*
X136556151Y-104531160D01*
X136556078Y-104664510D01*
X136556006Y-104797860D01*
X136345211Y-104929525D01*
X136134415Y-105061190D01*
X136134415Y-110919416D01*
X136157247Y-110928012D01*
X136195071Y-110947277D01*
X136226451Y-110973999D01*
X136251023Y-111007786D01*
X136268163Y-111047415D01*
X136276773Y-111089278D01*
X136276507Y-111130548D01*
X136268013Y-111169955D01*
X136251939Y-111206229D01*
X136228933Y-111238100D01*
X136199644Y-111264296D01*
X136164718Y-111283548D01*
X136144174Y-111290493D01*
X136106830Y-111296228D01*
X136102678Y-111295804D01*
X136102678Y-111201201D01*
X136131249Y-111196464D01*
X136156014Y-111182752D01*
X136175952Y-111160810D01*
X136187084Y-111139503D01*
X136190503Y-111121463D01*
X136189584Y-111098777D01*
X136184871Y-111075546D01*
X136176906Y-111055870D01*
X136175759Y-111053944D01*
X136157766Y-111033782D01*
X136134446Y-111020218D01*
X136108356Y-111014076D01*
X136082055Y-111016182D01*
X136070686Y-111020104D01*
X136050694Y-111033684D01*
X136034004Y-111053839D01*
X136022073Y-111077801D01*
X136016358Y-111102800D01*
X136017228Y-111121616D01*
X136027268Y-111151012D01*
X136043796Y-111174764D01*
X136065456Y-111191611D01*
X136090895Y-111200292D01*
X136102678Y-111201201D01*
X136102678Y-111295804D01*
X136070582Y-111292520D01*
X136033725Y-111279182D01*
X136031377Y-111278032D01*
X135997260Y-111255924D01*
X135969852Y-111227670D01*
X135949390Y-111194615D01*
X135936109Y-111158107D01*
X135930247Y-111119491D01*
X135932039Y-111080115D01*
G36*
X135039390Y-104537302D02*
X135051786Y-104500044D01*
X135071506Y-104466133D01*
X135098455Y-104437042D01*
X135109998Y-104427968D01*
X135145186Y-104408304D01*
X135182081Y-104397795D01*
X135219383Y-104396033D01*
X135255788Y-104402615D01*
X135289996Y-104417135D01*
X135320705Y-104439187D01*
X135346612Y-104468366D01*
X135366417Y-104504268D01*
X135368053Y-104508318D01*
X135378971Y-104536240D01*
X135572105Y-104536240D01*
X135770590Y-104320358D01*
X135969075Y-104104475D01*
X136075707Y-104104458D01*
X136182339Y-104104440D01*
X136182339Y-104200960D01*
X136092481Y-104201268D01*
X136002622Y-104201576D01*
X135606052Y-104632760D01*
X135378111Y-104632760D01*
X135363755Y-104665279D01*
X135342999Y-104701385D01*
X135316545Y-104730339D01*
X135285677Y-104751873D01*
X135251678Y-104765720D01*
X135215832Y-104771612D01*
X135210200Y-104771252D01*
X135210200Y-104678480D01*
X135231058Y-104674407D01*
X135252720Y-104663664D01*
X135271345Y-104648470D01*
X135279137Y-104638658D01*
X135287593Y-104618271D01*
X135291548Y-104593002D01*
X135290966Y-104566642D01*
X135285811Y-104542983D01*
X135280160Y-104531109D01*
X135263826Y-104510583D01*
X135245233Y-104498195D01*
X135221514Y-104492215D01*
X135214511Y-104491523D01*
X135196147Y-104490964D01*
X135182593Y-104493364D01*
X135169258Y-104499714D01*
X135165273Y-104502126D01*
X135144198Y-104520527D01*
X135129856Y-104544075D01*
X135122487Y-104570687D01*
X135122332Y-104598278D01*
X135129633Y-104624764D01*
X135144631Y-104648061D01*
X135147978Y-104651568D01*
X135166332Y-104665022D01*
X135188566Y-104674690D01*
X135209839Y-104678479D01*
X135210200Y-104678480D01*
X135210200Y-104771252D01*
X135179423Y-104769281D01*
X135143734Y-104758462D01*
X135110048Y-104738885D01*
X135090675Y-104722175D01*
X135064993Y-104690304D01*
X135047121Y-104654406D01*
X135036961Y-104615957D01*
X135034416Y-104576431D01*
X135039390Y-104537302D01*
X135039390Y-104537302D01*
G37*
X135039390Y-104537302D02*
X135051786Y-104500044D01*
X135071506Y-104466133D01*
X135098455Y-104437042D01*
X135109998Y-104427968D01*
X135145186Y-104408304D01*
X135182081Y-104397795D01*
X135219383Y-104396033D01*
X135255788Y-104402615D01*
X135289996Y-104417135D01*
X135320705Y-104439187D01*
X135346612Y-104468366D01*
X135366417Y-104504268D01*
X135368053Y-104508318D01*
X135378971Y-104536240D01*
X135572105Y-104536240D01*
X135770590Y-104320358D01*
X135969075Y-104104475D01*
X136075707Y-104104458D01*
X136182339Y-104104440D01*
X136182339Y-104200960D01*
X136092481Y-104201268D01*
X136002622Y-104201576D01*
X135606052Y-104632760D01*
X135378111Y-104632760D01*
X135363755Y-104665279D01*
X135342999Y-104701385D01*
X135316545Y-104730339D01*
X135285677Y-104751873D01*
X135251678Y-104765720D01*
X135215832Y-104771612D01*
X135210200Y-104771252D01*
X135210200Y-104678480D01*
X135231058Y-104674407D01*
X135252720Y-104663664D01*
X135271345Y-104648470D01*
X135279137Y-104638658D01*
X135287593Y-104618271D01*
X135291548Y-104593002D01*
X135290966Y-104566642D01*
X135285811Y-104542983D01*
X135280160Y-104531109D01*
X135263826Y-104510583D01*
X135245233Y-104498195D01*
X135221514Y-104492215D01*
X135214511Y-104491523D01*
X135196147Y-104490964D01*
X135182593Y-104493364D01*
X135169258Y-104499714D01*
X135165273Y-104502126D01*
X135144198Y-104520527D01*
X135129856Y-104544075D01*
X135122487Y-104570687D01*
X135122332Y-104598278D01*
X135129633Y-104624764D01*
X135144631Y-104648061D01*
X135147978Y-104651568D01*
X135166332Y-104665022D01*
X135188566Y-104674690D01*
X135209839Y-104678479D01*
X135210200Y-104678480D01*
X135210200Y-104771252D01*
X135179423Y-104769281D01*
X135143734Y-104758462D01*
X135110048Y-104738885D01*
X135090675Y-104722175D01*
X135064993Y-104690304D01*
X135047121Y-104654406D01*
X135036961Y-104615957D01*
X135034416Y-104576431D01*
X135039390Y-104537302D01*
G36*
X135039817Y-102840477D02*
X135053995Y-102802392D01*
X135075719Y-102768174D01*
X135104315Y-102739288D01*
X135128858Y-102722571D01*
X135146162Y-102713534D01*
X135161285Y-102708033D01*
X135178196Y-102704997D01*
X135199886Y-102703404D01*
X135223261Y-102702872D01*
X135241035Y-102704341D01*
X135257092Y-102708324D01*
X135268345Y-102712464D01*
X135299139Y-102729570D01*
X135327619Y-102754343D01*
X135351337Y-102784292D01*
X135365792Y-102811637D01*
X135379340Y-102844600D01*
X135610637Y-102844600D01*
X135806630Y-103057894D01*
X136002622Y-103271188D01*
X136092481Y-103271254D01*
X136182339Y-103271320D01*
X136182339Y-103367840D01*
X135968313Y-103367840D01*
X135769907Y-103151940D01*
X135571500Y-102936040D01*
X135378971Y-102936040D01*
X135368053Y-102963963D01*
X135350710Y-102996730D01*
X135326252Y-103026851D01*
X135297148Y-103051513D01*
X135284253Y-103059500D01*
X135269466Y-103067224D01*
X135257049Y-103072012D01*
X135243799Y-103074559D01*
X135226514Y-103075558D01*
X135209471Y-103075709D01*
X135202483Y-103075595D01*
X135202483Y-102984495D01*
X135228015Y-102981939D01*
X135254430Y-102970263D01*
X135273553Y-102952235D01*
X135285579Y-102927562D01*
X135290701Y-102895953D01*
X135290925Y-102886687D01*
X135290590Y-102866985D01*
X135288913Y-102853955D01*
X135284917Y-102844116D01*
X135277629Y-102833988D01*
X135275409Y-102831280D01*
X135256577Y-102813612D01*
X135234525Y-102800688D01*
X135212648Y-102794361D01*
X135207075Y-102794024D01*
X135182366Y-102798830D01*
X135159530Y-102812154D01*
X135140409Y-102832355D01*
X135126842Y-102857791D01*
X135123512Y-102868540D01*
X135121004Y-102896199D01*
X135126563Y-102922477D01*
X135138840Y-102945910D01*
X135156485Y-102965033D01*
X135178149Y-102978383D01*
X135202483Y-102984495D01*
X135202483Y-103075595D01*
X135186290Y-103075329D01*
X135169474Y-103073755D01*
X135155822Y-103070394D01*
X135142131Y-103064654D01*
X135137584Y-103062404D01*
X135101931Y-103039087D01*
X135073301Y-103008944D01*
X135051988Y-102972381D01*
X135038282Y-102929802D01*
X135036802Y-102922387D01*
X135033861Y-102880964D01*
X135039817Y-102840477D01*
X135039817Y-102840477D01*
G37*
X135039817Y-102840477D02*
X135053995Y-102802392D01*
X135075719Y-102768174D01*
X135104315Y-102739288D01*
X135128858Y-102722571D01*
X135146162Y-102713534D01*
X135161285Y-102708033D01*
X135178196Y-102704997D01*
X135199886Y-102703404D01*
X135223261Y-102702872D01*
X135241035Y-102704341D01*
X135257092Y-102708324D01*
X135268345Y-102712464D01*
X135299139Y-102729570D01*
X135327619Y-102754343D01*
X135351337Y-102784292D01*
X135365792Y-102811637D01*
X135379340Y-102844600D01*
X135610637Y-102844600D01*
X135806630Y-103057894D01*
X136002622Y-103271188D01*
X136092481Y-103271254D01*
X136182339Y-103271320D01*
X136182339Y-103367840D01*
X135968313Y-103367840D01*
X135769907Y-103151940D01*
X135571500Y-102936040D01*
X135378971Y-102936040D01*
X135368053Y-102963963D01*
X135350710Y-102996730D01*
X135326252Y-103026851D01*
X135297148Y-103051513D01*
X135284253Y-103059500D01*
X135269466Y-103067224D01*
X135257049Y-103072012D01*
X135243799Y-103074559D01*
X135226514Y-103075558D01*
X135209471Y-103075709D01*
X135202483Y-103075595D01*
X135202483Y-102984495D01*
X135228015Y-102981939D01*
X135254430Y-102970263D01*
X135273553Y-102952235D01*
X135285579Y-102927562D01*
X135290701Y-102895953D01*
X135290925Y-102886687D01*
X135290590Y-102866985D01*
X135288913Y-102853955D01*
X135284917Y-102844116D01*
X135277629Y-102833988D01*
X135275409Y-102831280D01*
X135256577Y-102813612D01*
X135234525Y-102800688D01*
X135212648Y-102794361D01*
X135207075Y-102794024D01*
X135182366Y-102798830D01*
X135159530Y-102812154D01*
X135140409Y-102832355D01*
X135126842Y-102857791D01*
X135123512Y-102868540D01*
X135121004Y-102896199D01*
X135126563Y-102922477D01*
X135138840Y-102945910D01*
X135156485Y-102965033D01*
X135178149Y-102978383D01*
X135202483Y-102984495D01*
X135202483Y-103075595D01*
X135186290Y-103075329D01*
X135169474Y-103073755D01*
X135155822Y-103070394D01*
X135142131Y-103064654D01*
X135137584Y-103062404D01*
X135101931Y-103039087D01*
X135073301Y-103008944D01*
X135051988Y-102972381D01*
X135038282Y-102929802D01*
X135036802Y-102922387D01*
X135033861Y-102880964D01*
X135039817Y-102840477D01*
G36*
X135037070Y-103714861D02*
X135044719Y-103677429D01*
X135059330Y-103642040D01*
X135080905Y-103609986D01*
X135109447Y-103582559D01*
X135136548Y-103565210D01*
X135148554Y-103559629D01*
X135160666Y-103556092D01*
X135175579Y-103554158D01*
X135195987Y-103553388D01*
X135209471Y-103553300D01*
X135232909Y-103553520D01*
X135249518Y-103554567D01*
X135262051Y-103556957D01*
X135273260Y-103561208D01*
X135285372Y-103567541D01*
X135318744Y-103591606D01*
X135346542Y-103622760D01*
X135365978Y-103656741D01*
X135379603Y-103687775D01*
X135778575Y-103687828D01*
X136177547Y-103687880D01*
X136177547Y-103784400D01*
X135378971Y-103784400D01*
X135367959Y-103812564D01*
X135350233Y-103846038D01*
X135325459Y-103876201D01*
X135296098Y-103900334D01*
X135280359Y-103909342D01*
X135263944Y-103916755D01*
X135249672Y-103921173D01*
X135233923Y-103923316D01*
X135213077Y-103923902D01*
X135208912Y-103923896D01*
X135208912Y-103829864D01*
X135229835Y-103828278D01*
X135246355Y-103823250D01*
X135246851Y-103822983D01*
X135269725Y-103805081D01*
X135285641Y-103781481D01*
X135294036Y-103754057D01*
X135294349Y-103724678D01*
X135286015Y-103695217D01*
X135285570Y-103694229D01*
X135270228Y-103670518D01*
X135250503Y-103654429D01*
X135227994Y-103645646D01*
X135204300Y-103643855D01*
X135181020Y-103648737D01*
X135159754Y-103659978D01*
X135142100Y-103677262D01*
X135129657Y-103700273D01*
X135124196Y-103726112D01*
X135123523Y-103744287D01*
X135124185Y-103760220D01*
X135125097Y-103766293D01*
X135131609Y-103780775D01*
X135143449Y-103797299D01*
X135157836Y-103812488D01*
X135171605Y-103822760D01*
X135188023Y-103828020D01*
X135208912Y-103829864D01*
X135208912Y-103923896D01*
X135207075Y-103923892D01*
X135184238Y-103923311D01*
X135167515Y-103921375D01*
X135153457Y-103917394D01*
X135138615Y-103910682D01*
X135137226Y-103909974D01*
X135103159Y-103887425D01*
X135076038Y-103859166D01*
X135055866Y-103826487D01*
X135042646Y-103790682D01*
X135036380Y-103753042D01*
X135037070Y-103714861D01*
X135037070Y-103714861D01*
G37*
X135037070Y-103714861D02*
X135044719Y-103677429D01*
X135059330Y-103642040D01*
X135080905Y-103609986D01*
X135109447Y-103582559D01*
X135136548Y-103565210D01*
X135148554Y-103559629D01*
X135160666Y-103556092D01*
X135175579Y-103554158D01*
X135195987Y-103553388D01*
X135209471Y-103553300D01*
X135232909Y-103553520D01*
X135249518Y-103554567D01*
X135262051Y-103556957D01*
X135273260Y-103561208D01*
X135285372Y-103567541D01*
X135318744Y-103591606D01*
X135346542Y-103622760D01*
X135365978Y-103656741D01*
X135379603Y-103687775D01*
X135778575Y-103687828D01*
X136177547Y-103687880D01*
X136177547Y-103784400D01*
X135378971Y-103784400D01*
X135367959Y-103812564D01*
X135350233Y-103846038D01*
X135325459Y-103876201D01*
X135296098Y-103900334D01*
X135280359Y-103909342D01*
X135263944Y-103916755D01*
X135249672Y-103921173D01*
X135233923Y-103923316D01*
X135213077Y-103923902D01*
X135208912Y-103923896D01*
X135208912Y-103829864D01*
X135229835Y-103828278D01*
X135246355Y-103823250D01*
X135246851Y-103822983D01*
X135269725Y-103805081D01*
X135285641Y-103781481D01*
X135294036Y-103754057D01*
X135294349Y-103724678D01*
X135286015Y-103695217D01*
X135285570Y-103694229D01*
X135270228Y-103670518D01*
X135250503Y-103654429D01*
X135227994Y-103645646D01*
X135204300Y-103643855D01*
X135181020Y-103648737D01*
X135159754Y-103659978D01*
X135142100Y-103677262D01*
X135129657Y-103700273D01*
X135124196Y-103726112D01*
X135123523Y-103744287D01*
X135124185Y-103760220D01*
X135125097Y-103766293D01*
X135131609Y-103780775D01*
X135143449Y-103797299D01*
X135157836Y-103812488D01*
X135171605Y-103822760D01*
X135188023Y-103828020D01*
X135208912Y-103829864D01*
X135208912Y-103923896D01*
X135207075Y-103923892D01*
X135184238Y-103923311D01*
X135167515Y-103921375D01*
X135153457Y-103917394D01*
X135138615Y-103910682D01*
X135137226Y-103909974D01*
X135103159Y-103887425D01*
X135076038Y-103859166D01*
X135055866Y-103826487D01*
X135042646Y-103790682D01*
X135036380Y-103753042D01*
X135037070Y-103714861D01*
G36*
X138343527Y-101294477D02*
X138349040Y-101289711D01*
X138356290Y-101282825D01*
X138356547Y-101276507D01*
X138352164Y-101268554D01*
X138347307Y-101259048D01*
X138348689Y-101252255D01*
X138354571Y-101245333D01*
X138361318Y-101237310D01*
X138361412Y-101231573D01*
X138355605Y-101223950D01*
X138349777Y-101215743D01*
X138350728Y-101210826D01*
X138353511Y-101208608D01*
X138362580Y-101204214D01*
X138367704Y-101207457D01*
X138369431Y-101211380D01*
X138375785Y-101218201D01*
X138384996Y-101217053D01*
X138391983Y-101210968D01*
X138395837Y-101202603D01*
X138392446Y-101193049D01*
X138392295Y-101192790D01*
X138388789Y-101182779D01*
X138391892Y-101175524D01*
X138396898Y-101171680D01*
X138402497Y-101175274D01*
X138406138Y-101179732D01*
X138414808Y-101191060D01*
X138427189Y-101178752D01*
X138435088Y-101170088D01*
X138436455Y-101164292D01*
X138432033Y-101157619D01*
X138431511Y-101157004D01*
X138426166Y-101149220D01*
X138427763Y-101143279D01*
X138431050Y-101139510D01*
X138437245Y-101134446D01*
X138441566Y-101137580D01*
X138444078Y-101142208D01*
X138449851Y-101150907D01*
X138456264Y-101151528D01*
X138465585Y-101145238D01*
X138471676Y-101138743D01*
X138471259Y-101131421D01*
X138468317Y-101124977D01*
X138464372Y-101114463D01*
X138466374Y-101107637D01*
X138467935Y-101105868D01*
X138473589Y-101102970D01*
X138479437Y-101108179D01*
X138481321Y-101110986D01*
X138488597Y-101122351D01*
X138502182Y-101112097D01*
X138515767Y-101101844D01*
X138520976Y-101112162D01*
X138528370Y-101121108D01*
X138537446Y-101120513D01*
X138545739Y-101114169D01*
X138552468Y-101108661D01*
X138555870Y-101110449D01*
X138557481Y-101114358D01*
X138556781Y-101124757D01*
X138551892Y-101133009D01*
X138546307Y-101140648D01*
X138547016Y-101146443D01*
X138553538Y-101154089D01*
X138561280Y-101161283D01*
X138566785Y-101161436D01*
X138572917Y-101156322D01*
X138580179Y-101150557D01*
X138585155Y-101152047D01*
X138588425Y-101155851D01*
X138591994Y-101162829D01*
X138588487Y-101169027D01*
X138584504Y-101172490D01*
X138577652Y-101178838D01*
X138577263Y-101184306D01*
X138583059Y-101193307D01*
X138583176Y-101193470D01*
X138589842Y-101201845D01*
X138594804Y-101202675D01*
X138602116Y-101196536D01*
X138602454Y-101196212D01*
X138610291Y-101189926D01*
X138614966Y-101190795D01*
X138617124Y-101193802D01*
X138621317Y-101204228D01*
X138617812Y-101210419D01*
X138614509Y-101212083D01*
X138607971Y-101218516D01*
X138609903Y-101228155D01*
X138616905Y-101236780D01*
X138624526Y-101242899D01*
X138630293Y-101241892D01*
X138635388Y-101237440D01*
X138642661Y-101231836D01*
X138647740Y-101233601D01*
X138650330Y-101236624D01*
X138653417Y-101243428D01*
X138649414Y-101250124D01*
X138645865Y-101253363D01*
X138635357Y-101262383D01*
X138645027Y-101275413D01*
X138654696Y-101288444D01*
X138644905Y-101298823D01*
X138638383Y-101307817D01*
X138638886Y-101316222D01*
X138640830Y-101320527D01*
X138643928Y-101332317D01*
X138640479Y-101338669D01*
X138632441Y-101337788D01*
X138626693Y-101333495D01*
X138618560Y-101327453D01*
X138611819Y-101328788D01*
X138608608Y-101331162D01*
X138601113Y-101337161D01*
X138598284Y-101339324D01*
X138599284Y-101343922D01*
X138604254Y-101353248D01*
X138604442Y-101353553D01*
X138609500Y-101362869D01*
X138608889Y-101367388D01*
X138604913Y-101369568D01*
X138595796Y-101368880D01*
X138588900Y-101364499D01*
X138581690Y-101359199D01*
X138574920Y-101360719D01*
X138569909Y-101364171D01*
X138560785Y-101374572D01*
X138561205Y-101385018D01*
X138566887Y-101391987D01*
X138571858Y-101397707D01*
X138568767Y-101401849D01*
X138566543Y-101403226D01*
X138556778Y-101404277D01*
X138550394Y-101399900D01*
X138543404Y-101394736D01*
X138536799Y-101396153D01*
X138531313Y-101399921D01*
X138524037Y-101406558D01*
X138524115Y-101413039D01*
X138527812Y-101419673D01*
X138532342Y-101429199D01*
X138530535Y-101435241D01*
X138528795Y-101436957D01*
X138522133Y-101439075D01*
X138514220Y-101432768D01*
X138513785Y-101432264D01*
X138505059Y-101422043D01*
X138494486Y-101432571D01*
X138483914Y-101443099D01*
X138474162Y-101428909D01*
X138467277Y-101419687D01*
X138462410Y-101417918D01*
X138455993Y-101422800D01*
X138454280Y-101424435D01*
X138445544Y-101430666D01*
X138439294Y-101428960D01*
X138438626Y-101428296D01*
X138436050Y-101421623D01*
X138441135Y-101413031D01*
X138448202Y-101401852D01*
X138446869Y-101392515D01*
X138440448Y-101384929D01*
X138432663Y-101379419D01*
X138425459Y-101381550D01*
X138422490Y-101383721D01*
X138413010Y-101388042D01*
X138407089Y-101385458D01*
X138403943Y-101379924D01*
X138407727Y-101372507D01*
X138410389Y-101369358D01*
X138416609Y-101361372D01*
X138416679Y-101355179D01*
X138410915Y-101346121D01*
X138404305Y-101337743D01*
X138399356Y-101336938D01*
X138392007Y-101343128D01*
X138391734Y-101343389D01*
X138383876Y-101349656D01*
X138379211Y-101348728D01*
X138377232Y-101345915D01*
X138376514Y-101336011D01*
X138379921Y-101330477D01*
X138386041Y-101320833D01*
X138384635Y-101312234D01*
X138378901Y-101304449D01*
X138372234Y-101298148D01*
X138366541Y-101299615D01*
X138362217Y-101303480D01*
X138354420Y-101308924D01*
X138347682Y-101306638D01*
X138345849Y-101305112D01*
X138341234Y-101299598D01*
X138343527Y-101294477D01*
X138343527Y-101294477D01*
G37*
X138343527Y-101294477D02*
X138349040Y-101289711D01*
X138356290Y-101282825D01*
X138356547Y-101276507D01*
X138352164Y-101268554D01*
X138347307Y-101259048D01*
X138348689Y-101252255D01*
X138354571Y-101245333D01*
X138361318Y-101237310D01*
X138361412Y-101231573D01*
X138355605Y-101223950D01*
X138349777Y-101215743D01*
X138350728Y-101210826D01*
X138353511Y-101208608D01*
X138362580Y-101204214D01*
X138367704Y-101207457D01*
X138369431Y-101211380D01*
X138375785Y-101218201D01*
X138384996Y-101217053D01*
X138391983Y-101210968D01*
X138395837Y-101202603D01*
X138392446Y-101193049D01*
X138392295Y-101192790D01*
X138388789Y-101182779D01*
X138391892Y-101175524D01*
X138396898Y-101171680D01*
X138402497Y-101175274D01*
X138406138Y-101179732D01*
X138414808Y-101191060D01*
X138427189Y-101178752D01*
X138435088Y-101170088D01*
X138436455Y-101164292D01*
X138432033Y-101157619D01*
X138431511Y-101157004D01*
X138426166Y-101149220D01*
X138427763Y-101143279D01*
X138431050Y-101139510D01*
X138437245Y-101134446D01*
X138441566Y-101137580D01*
X138444078Y-101142208D01*
X138449851Y-101150907D01*
X138456264Y-101151528D01*
X138465585Y-101145238D01*
X138471676Y-101138743D01*
X138471259Y-101131421D01*
X138468317Y-101124977D01*
X138464372Y-101114463D01*
X138466374Y-101107637D01*
X138467935Y-101105868D01*
X138473589Y-101102970D01*
X138479437Y-101108179D01*
X138481321Y-101110986D01*
X138488597Y-101122351D01*
X138502182Y-101112097D01*
X138515767Y-101101844D01*
X138520976Y-101112162D01*
X138528370Y-101121108D01*
X138537446Y-101120513D01*
X138545739Y-101114169D01*
X138552468Y-101108661D01*
X138555870Y-101110449D01*
X138557481Y-101114358D01*
X138556781Y-101124757D01*
X138551892Y-101133009D01*
X138546307Y-101140648D01*
X138547016Y-101146443D01*
X138553538Y-101154089D01*
X138561280Y-101161283D01*
X138566785Y-101161436D01*
X138572917Y-101156322D01*
X138580179Y-101150557D01*
X138585155Y-101152047D01*
X138588425Y-101155851D01*
X138591994Y-101162829D01*
X138588487Y-101169027D01*
X138584504Y-101172490D01*
X138577652Y-101178838D01*
X138577263Y-101184306D01*
X138583059Y-101193307D01*
X138583176Y-101193470D01*
X138589842Y-101201845D01*
X138594804Y-101202675D01*
X138602116Y-101196536D01*
X138602454Y-101196212D01*
X138610291Y-101189926D01*
X138614966Y-101190795D01*
X138617124Y-101193802D01*
X138621317Y-101204228D01*
X138617812Y-101210419D01*
X138614509Y-101212083D01*
X138607971Y-101218516D01*
X138609903Y-101228155D01*
X138616905Y-101236780D01*
X138624526Y-101242899D01*
X138630293Y-101241892D01*
X138635388Y-101237440D01*
X138642661Y-101231836D01*
X138647740Y-101233601D01*
X138650330Y-101236624D01*
X138653417Y-101243428D01*
X138649414Y-101250124D01*
X138645865Y-101253363D01*
X138635357Y-101262383D01*
X138645027Y-101275413D01*
X138654696Y-101288444D01*
X138644905Y-101298823D01*
X138638383Y-101307817D01*
X138638886Y-101316222D01*
X138640830Y-101320527D01*
X138643928Y-101332317D01*
X138640479Y-101338669D01*
X138632441Y-101337788D01*
X138626693Y-101333495D01*
X138618560Y-101327453D01*
X138611819Y-101328788D01*
X138608608Y-101331162D01*
X138601113Y-101337161D01*
X138598284Y-101339324D01*
X138599284Y-101343922D01*
X138604254Y-101353248D01*
X138604442Y-101353553D01*
X138609500Y-101362869D01*
X138608889Y-101367388D01*
X138604913Y-101369568D01*
X138595796Y-101368880D01*
X138588900Y-101364499D01*
X138581690Y-101359199D01*
X138574920Y-101360719D01*
X138569909Y-101364171D01*
X138560785Y-101374572D01*
X138561205Y-101385018D01*
X138566887Y-101391987D01*
X138571858Y-101397707D01*
X138568767Y-101401849D01*
X138566543Y-101403226D01*
X138556778Y-101404277D01*
X138550394Y-101399900D01*
X138543404Y-101394736D01*
X138536799Y-101396153D01*
X138531313Y-101399921D01*
X138524037Y-101406558D01*
X138524115Y-101413039D01*
X138527812Y-101419673D01*
X138532342Y-101429199D01*
X138530535Y-101435241D01*
X138528795Y-101436957D01*
X138522133Y-101439075D01*
X138514220Y-101432768D01*
X138513785Y-101432264D01*
X138505059Y-101422043D01*
X138494486Y-101432571D01*
X138483914Y-101443099D01*
X138474162Y-101428909D01*
X138467277Y-101419687D01*
X138462410Y-101417918D01*
X138455993Y-101422800D01*
X138454280Y-101424435D01*
X138445544Y-101430666D01*
X138439294Y-101428960D01*
X138438626Y-101428296D01*
X138436050Y-101421623D01*
X138441135Y-101413031D01*
X138448202Y-101401852D01*
X138446869Y-101392515D01*
X138440448Y-101384929D01*
X138432663Y-101379419D01*
X138425459Y-101381550D01*
X138422490Y-101383721D01*
X138413010Y-101388042D01*
X138407089Y-101385458D01*
X138403943Y-101379924D01*
X138407727Y-101372507D01*
X138410389Y-101369358D01*
X138416609Y-101361372D01*
X138416679Y-101355179D01*
X138410915Y-101346121D01*
X138404305Y-101337743D01*
X138399356Y-101336938D01*
X138392007Y-101343128D01*
X138391734Y-101343389D01*
X138383876Y-101349656D01*
X138379211Y-101348728D01*
X138377232Y-101345915D01*
X138376514Y-101336011D01*
X138379921Y-101330477D01*
X138386041Y-101320833D01*
X138384635Y-101312234D01*
X138378901Y-101304449D01*
X138372234Y-101298148D01*
X138366541Y-101299615D01*
X138362217Y-101303480D01*
X138354420Y-101308924D01*
X138347682Y-101306638D01*
X138345849Y-101305112D01*
X138341234Y-101299598D01*
X138343527Y-101294477D01*
D12*
X148304000Y-102711000D02*
X148304000Y-98711000D01*
X144304000Y-102711000D02*
X144304000Y-98711000D01*
D15*
X141795500Y-110236000D02*
X142176500Y-110236000D01*
X143446500Y-109855000D02*
X143446500Y-108966000D01*
X143446500Y-108966000D02*
X142684500Y-108966000D01*
X141287500Y-108966000D02*
X140525500Y-108966000D01*
X140525500Y-108966000D02*
X140525500Y-109855000D01*
D12*
G36*
X150647400Y-107315000D02*
X151104600Y-107315000D01*
X151104600Y-106553000D01*
X150647400Y-106553000D01*
X150647400Y-107315000D01*
G37*
X150647400Y-107315000D02*
X151104600Y-107315000D01*
X151104600Y-106553000D01*
X150647400Y-106553000D01*
X150647400Y-107315000D01*
G36*
X151384000Y-109880400D02*
X151384000Y-110337600D01*
X152146000Y-110337600D01*
X152146000Y-109880400D01*
X151384000Y-109880400D01*
G37*
X151384000Y-109880400D02*
X151384000Y-110337600D01*
X152146000Y-110337600D01*
X152146000Y-109880400D01*
X151384000Y-109880400D01*
G36*
X149606000Y-109880400D02*
X149606000Y-110337600D01*
X150368000Y-110337600D01*
X150368000Y-109880400D01*
X149606000Y-109880400D01*
G37*
X149606000Y-109880400D02*
X149606000Y-110337600D01*
X150368000Y-110337600D01*
X150368000Y-109880400D01*
X149606000Y-109880400D01*
G36*
X141960600Y-98806000D02*
X141503400Y-98806000D01*
X141503400Y-99568000D01*
X141960600Y-99568000D01*
X141960600Y-98806000D01*
G37*
X141960600Y-98806000D02*
X141503400Y-98806000D01*
X141503400Y-99568000D01*
X141960600Y-99568000D01*
X141960600Y-98806000D01*
D16*
X143032000Y-101338000D02*
X143032000Y-100338000D01*
X143032000Y-100338000D02*
X140932000Y-100338000D01*
X143032000Y-101338000D02*
X140932000Y-101338000D01*
D12*
X158623000Y-111633000D02*
X156718000Y-111633000D01*
X156718000Y-111633000D02*
X156718000Y-108458000D01*
X156718000Y-108458000D02*
X156718000Y-104394000D01*
X156718000Y-104394000D02*
X156718000Y-102743000D01*
X156718000Y-102743000D02*
X158877000Y-102743000D01*
X158877000Y-102743000D02*
X161671000Y-102743000D01*
X161671000Y-102743000D02*
X161671000Y-111633000D01*
X161671000Y-111633000D02*
X158623000Y-111633000D01*
D16*
X141982000Y-101765000D02*
X141482000Y-101765000D01*
X141482000Y-102705000D02*
X141982000Y-102705000D01*
D10*
X144348238Y-106460952D02*
X144348238Y-106784762D01*
X144367286Y-106822857D01*
X144386333Y-106841905D01*
X144424429Y-106860952D01*
X144500619Y-106860952D01*
X144538714Y-106841905D01*
X144557762Y-106822857D01*
X144576810Y-106784762D01*
X144576810Y-106460952D01*
X144976810Y-106860952D02*
X144748238Y-106860952D01*
X144862524Y-106860952D02*
X144862524Y-106460952D01*
X144824429Y-106518095D01*
X144786334Y-106556190D01*
X144748238Y-106575238D01*
D17*
X149574238Y-99294952D02*
X149574238Y-98894952D01*
X149726619Y-98894952D01*
X149764714Y-98914000D01*
X149783762Y-98933048D01*
X149802810Y-98971143D01*
X149802810Y-99028286D01*
X149783762Y-99066381D01*
X149764714Y-99085429D01*
X149726619Y-99104476D01*
X149574238Y-99104476D01*
X149955190Y-98933048D02*
X149974238Y-98914000D01*
X150012333Y-98894952D01*
X150107571Y-98894952D01*
X150145667Y-98914000D01*
X150164714Y-98933048D01*
X150183762Y-98971143D01*
X150183762Y-99009238D01*
X150164714Y-99066381D01*
X149936143Y-99294952D01*
X150183762Y-99294952D01*
X144595810Y-111067857D02*
X144576762Y-111086905D01*
X144519619Y-111105952D01*
X144481524Y-111105952D01*
X144424381Y-111086905D01*
X144386286Y-111048810D01*
X144367238Y-111010714D01*
X144348190Y-110934524D01*
X144348190Y-110877381D01*
X144367238Y-110801190D01*
X144386286Y-110763095D01*
X144424381Y-110725000D01*
X144481524Y-110705952D01*
X144519619Y-110705952D01*
X144576762Y-110725000D01*
X144595810Y-110744048D01*
X144976762Y-111105952D02*
X144748190Y-111105952D01*
X144862476Y-111105952D02*
X144862476Y-110705952D01*
X144824381Y-110763095D01*
X144786286Y-110801190D01*
X144748190Y-110820238D01*
X148913810Y-104463857D02*
X148894762Y-104482905D01*
X148837619Y-104501952D01*
X148799524Y-104501952D01*
X148742381Y-104482905D01*
X148704286Y-104444810D01*
X148685238Y-104406714D01*
X148666190Y-104330524D01*
X148666190Y-104273381D01*
X148685238Y-104197190D01*
X148704286Y-104159095D01*
X148742381Y-104121000D01*
X148799524Y-104101952D01*
X148837619Y-104101952D01*
X148894762Y-104121000D01*
X148913810Y-104140048D01*
X149047143Y-104101952D02*
X149294762Y-104101952D01*
X149161429Y-104254333D01*
X149218571Y-104254333D01*
X149256667Y-104273381D01*
X149275714Y-104292429D01*
X149294762Y-104330524D01*
X149294762Y-104425762D01*
X149275714Y-104463857D01*
X149256667Y-104482905D01*
X149218571Y-104501952D01*
X149104286Y-104501952D01*
X149066190Y-104482905D01*
X149047143Y-104463857D01*
X148913810Y-102812857D02*
X148894762Y-102831905D01*
X148837619Y-102850952D01*
X148799524Y-102850952D01*
X148742381Y-102831905D01*
X148704286Y-102793810D01*
X148685238Y-102755714D01*
X148666190Y-102679524D01*
X148666190Y-102622381D01*
X148685238Y-102546190D01*
X148704286Y-102508095D01*
X148742381Y-102470000D01*
X148799524Y-102450952D01*
X148837619Y-102450952D01*
X148894762Y-102470000D01*
X148913810Y-102489048D01*
X149256667Y-102584286D02*
X149256667Y-102850952D01*
X149161429Y-102431905D02*
X149066190Y-102717619D01*
X149313810Y-102717619D01*
D10*
X146237333Y-104066952D02*
X146046857Y-104066952D01*
X146046857Y-103666952D01*
X146580191Y-104066952D02*
X146351619Y-104066952D01*
X146465905Y-104066952D02*
X146465905Y-103666952D01*
X146427810Y-103724095D01*
X146389715Y-103762190D01*
X146351619Y-103781238D01*
D17*
X139807905Y-108858048D02*
X139769810Y-108839000D01*
X139731714Y-108800905D01*
X139674571Y-108743762D01*
X139636476Y-108724714D01*
X139598381Y-108724714D01*
X139617429Y-108819952D02*
X139579333Y-108800905D01*
X139541238Y-108762810D01*
X139522190Y-108686619D01*
X139522190Y-108553286D01*
X139541238Y-108477095D01*
X139579333Y-108439000D01*
X139617429Y-108419952D01*
X139693619Y-108419952D01*
X139731714Y-108439000D01*
X139769810Y-108477095D01*
X139788857Y-108553286D01*
X139788857Y-108686619D01*
X139769810Y-108762810D01*
X139731714Y-108800905D01*
X139693619Y-108819952D01*
X139617429Y-108819952D01*
X140169810Y-108819952D02*
X139941238Y-108819952D01*
X140055524Y-108819952D02*
X140055524Y-108419952D01*
X140017429Y-108477095D01*
X139979334Y-108515190D01*
X139941238Y-108534238D01*
X148894858Y-107060952D02*
X148761524Y-106870476D01*
X148666286Y-107060952D02*
X148666286Y-106660952D01*
X148818667Y-106660952D01*
X148856762Y-106680000D01*
X148875810Y-106699048D01*
X148894858Y-106737143D01*
X148894858Y-106794286D01*
X148875810Y-106832381D01*
X148856762Y-106851429D01*
X148818667Y-106870476D01*
X148666286Y-106870476D01*
X149275810Y-107060952D02*
X149047238Y-107060952D01*
X149161524Y-107060952D02*
X149161524Y-106660952D01*
X149123429Y-106718095D01*
X149085334Y-106756190D01*
X149047238Y-106775238D01*
X151561858Y-108203952D02*
X151428524Y-108013476D01*
X151333286Y-108203952D02*
X151333286Y-107803952D01*
X151485667Y-107803952D01*
X151523762Y-107823000D01*
X151542810Y-107842048D01*
X151561858Y-107880143D01*
X151561858Y-107937286D01*
X151542810Y-107975381D01*
X151523762Y-107994429D01*
X151485667Y-108013476D01*
X151333286Y-108013476D01*
X151714238Y-107842048D02*
X151733286Y-107823000D01*
X151771381Y-107803952D01*
X151866619Y-107803952D01*
X151904715Y-107823000D01*
X151923762Y-107842048D01*
X151942810Y-107880143D01*
X151942810Y-107918238D01*
X151923762Y-107975381D01*
X151695191Y-108203952D01*
X151942810Y-108203952D01*
X149783858Y-108203952D02*
X149650524Y-108013476D01*
X149555286Y-108203952D02*
X149555286Y-107803952D01*
X149707667Y-107803952D01*
X149745762Y-107823000D01*
X149764810Y-107842048D01*
X149783858Y-107880143D01*
X149783858Y-107937286D01*
X149764810Y-107975381D01*
X149745762Y-107994429D01*
X149707667Y-108013476D01*
X149555286Y-108013476D01*
X149917191Y-107803952D02*
X150164810Y-107803952D01*
X150031477Y-107956333D01*
X150088619Y-107956333D01*
X150126715Y-107975381D01*
X150145762Y-107994429D01*
X150164810Y-108032524D01*
X150164810Y-108127762D01*
X150145762Y-108165857D01*
X150126715Y-108184905D01*
X150088619Y-108203952D01*
X149974334Y-108203952D01*
X149936238Y-108184905D01*
X149917191Y-108165857D01*
X143687858Y-99440952D02*
X143554524Y-99250476D01*
X143459286Y-99440952D02*
X143459286Y-99040952D01*
X143611667Y-99040952D01*
X143649762Y-99060000D01*
X143668810Y-99079048D01*
X143687858Y-99117143D01*
X143687858Y-99174286D01*
X143668810Y-99212381D01*
X143649762Y-99231429D01*
X143611667Y-99250476D01*
X143459286Y-99250476D01*
X144030715Y-99174286D02*
X144030715Y-99440952D01*
X143935477Y-99021905D02*
X143840238Y-99307619D01*
X144087858Y-99307619D01*
D10*
X143468762Y-101018952D02*
X143468762Y-100618952D01*
X143564000Y-100618952D01*
X143621143Y-100638000D01*
X143659238Y-100676095D01*
X143678286Y-100714190D01*
X143697334Y-100790381D01*
X143697334Y-100847524D01*
X143678286Y-100923714D01*
X143659238Y-100961810D01*
X143621143Y-100999905D01*
X143564000Y-101018952D01*
X143468762Y-101018952D01*
X144078286Y-101018952D02*
X143849714Y-101018952D01*
X143964000Y-101018952D02*
X143964000Y-100618952D01*
X143925905Y-100676095D01*
X143887810Y-100714190D01*
X143849714Y-100733238D01*
X155713953Y-108684190D02*
X155713953Y-108184190D01*
X155904429Y-108184190D01*
X155952048Y-108208000D01*
X155975857Y-108231810D01*
X155999667Y-108279429D01*
X155999667Y-108350857D01*
X155975857Y-108398476D01*
X155952048Y-108422286D01*
X155904429Y-108446095D01*
X155713953Y-108446095D01*
X156475857Y-108684190D02*
X156190143Y-108684190D01*
X156333000Y-108684190D02*
X156333000Y-108184190D01*
X156285381Y-108255619D01*
X156237762Y-108303238D01*
X156190143Y-108327048D01*
D17*
X144595810Y-109289857D02*
X144576762Y-109308905D01*
X144519619Y-109327952D01*
X144481524Y-109327952D01*
X144424381Y-109308905D01*
X144386286Y-109270810D01*
X144367238Y-109232714D01*
X144348190Y-109156524D01*
X144348190Y-109099381D01*
X144367238Y-109023190D01*
X144386286Y-108985095D01*
X144424381Y-108947000D01*
X144481524Y-108927952D01*
X144519619Y-108927952D01*
X144576762Y-108947000D01*
X144595810Y-108966048D01*
X144748190Y-108966048D02*
X144767238Y-108947000D01*
X144805333Y-108927952D01*
X144900571Y-108927952D01*
X144938667Y-108947000D01*
X144957714Y-108966048D01*
X144976762Y-109004143D01*
X144976762Y-109042238D01*
X144957714Y-109099381D01*
X144729143Y-109327952D01*
X144976762Y-109327952D01*
D10*
X143005238Y-102015952D02*
X143233810Y-102015952D01*
X143119524Y-102415952D02*
X143119524Y-102015952D01*
X143367143Y-102415952D02*
X143367143Y-102015952D01*
X143519524Y-102015952D01*
X143557619Y-102035000D01*
X143576667Y-102054048D01*
X143595715Y-102092143D01*
X143595715Y-102149286D01*
X143576667Y-102187381D01*
X143557619Y-102206429D01*
X143519524Y-102225476D01*
X143367143Y-102225476D01*
X143976667Y-102415952D02*
X143748095Y-102415952D01*
X143862381Y-102415952D02*
X143862381Y-102015952D01*
X143824286Y-102073095D01*
X143786191Y-102111190D01*
X143748095Y-102130238D01*
%LPC*%
D18*
X147762000Y-105072000D03*
X146812000Y-105072000D03*
X145862000Y-105072000D03*
X145862000Y-107272000D03*
X147762000Y-107272000D03*
D19*
X141986000Y-105156000D03*
X154686000Y-105156000D03*
D20*
X151257000Y-100457000D03*
D21*
X151257000Y-97917000D03*
D22*
X145962000Y-110871000D03*
X147662000Y-110871000D03*
X150026000Y-104267000D03*
X151726000Y-104267000D03*
X150026000Y-102616000D03*
X151726000Y-102616000D03*
D23*
X146304000Y-102711000D03*
X146304000Y-98711000D03*
D24*
X141986000Y-108585000D03*
X142875000Y-110617000D03*
X141097000Y-110617000D03*
D22*
X150026000Y-106934000D03*
X151726000Y-106934000D03*
D25*
X151765000Y-109259000D03*
X151765000Y-110959000D03*
X149987000Y-109259000D03*
X149987000Y-110959000D03*
D22*
X142582000Y-99187000D03*
X140882000Y-99187000D03*
D26*
X140932000Y-100838000D03*
X142532000Y-100838000D03*
D27*
X159639000Y-105664000D03*
X159639000Y-108688000D03*
D28*
X160789000Y-110838000D03*
X158489000Y-110838000D03*
X160789000Y-103538000D03*
X158489000Y-103538000D03*
D29*
X157739000Y-106438000D03*
X157739000Y-104938000D03*
X157739000Y-109438000D03*
D22*
X145962000Y-109220000D03*
X147662000Y-109220000D03*
D30*
X141182000Y-102235000D03*
X142282000Y-102235000D03*
D31*
X141732000Y-102235000D03*
M02*
