G04 #@! TF.FileFunction,Copper,L1,Top,Signal*
%FSLAX46Y46*%
G04 Gerber Fmt 4.6, Leading zero omitted, Abs format (unit mm)*
G04 Created by KiCad (PCBNEW 4.0.6) date 07/28/17 12:06:40*
%MOMM*%
%LPD*%
G01*
G04 APERTURE LIST*
%ADD10C,0.100000*%
%ADD11R,0.650000X1.060000*%
%ADD12C,3.216000*%
%ADD13R,1.651000X1.651000*%
%ADD14C,1.651000*%
%ADD15R,1.100000X1.000000*%
%ADD16R,3.700000X1.200000*%
%ADD17R,1.016000X1.143000*%
%ADD18R,1.000000X1.100000*%
%ADD19R,0.800000X0.800000*%
%ADD20R,1.200000X1.200000*%
%ADD21R,1.500000X1.000000*%
%ADD22R,0.600000X0.500000*%
%ADD23R,0.800000X0.100000*%
%ADD24C,0.600000*%
%ADD25C,0.400000*%
%ADD26C,0.250000*%
%ADD27C,0.254000*%
G04 APERTURE END LIST*
D10*
D11*
X147762000Y-105072000D03*
X146812000Y-105072000D03*
X145862000Y-105072000D03*
X145862000Y-107272000D03*
X147762000Y-107272000D03*
D12*
X141986000Y-105156000D03*
X154686000Y-105156000D03*
D13*
X151257000Y-100457000D03*
D14*
X151257000Y-97917000D03*
D15*
X145962000Y-110871000D03*
X147662000Y-110871000D03*
X150026000Y-104267000D03*
X151726000Y-104267000D03*
X150026000Y-102616000D03*
X151726000Y-102616000D03*
D16*
X146304000Y-102711000D03*
X146304000Y-98711000D03*
D17*
X141986000Y-108585000D03*
X142875000Y-110617000D03*
X141097000Y-110617000D03*
D15*
X150026000Y-106934000D03*
X151726000Y-106934000D03*
D18*
X151765000Y-109259000D03*
X151765000Y-110959000D03*
X149987000Y-109259000D03*
X149987000Y-110959000D03*
D15*
X142582000Y-99187000D03*
X140882000Y-99187000D03*
D19*
X140932000Y-100838000D03*
X142532000Y-100838000D03*
D20*
X160789000Y-110838000D03*
X158489000Y-110838000D03*
X160789000Y-103538000D03*
X158489000Y-103538000D03*
D21*
X157739000Y-106438000D03*
X157739000Y-104938000D03*
X157739000Y-109438000D03*
D15*
X145962000Y-109220000D03*
X147662000Y-109220000D03*
D22*
X141182000Y-102235000D03*
X142282000Y-102235000D03*
D23*
X141732000Y-102235000D03*
D24*
X148844000Y-112014000D03*
X149860000Y-112014000D03*
X148844000Y-110871000D03*
X147828000Y-112014000D03*
X139700000Y-112141000D03*
X139700000Y-110617000D03*
X140716000Y-112141000D03*
X153162000Y-102616000D03*
X146812000Y-106172000D03*
X145796000Y-106172000D03*
X147701000Y-106172000D03*
X139827000Y-98806000D03*
D25*
X141986000Y-108585000D02*
X141986000Y-105029000D01*
X148844000Y-112014000D02*
X149860000Y-112014000D01*
X147828000Y-112014000D02*
X148844000Y-112014000D01*
X148844000Y-110871000D02*
X147662000Y-110871000D01*
X148844000Y-112014000D02*
X148844000Y-110871000D01*
X140716000Y-112141000D02*
X139700000Y-112141000D01*
X139700000Y-110617000D02*
X141097000Y-110617000D01*
X139700000Y-112141000D02*
X139700000Y-110617000D01*
X151726000Y-102616000D02*
X153162000Y-102616000D01*
X146812000Y-106172000D02*
X145796000Y-106172000D01*
X147701000Y-106172000D02*
X146812000Y-106172000D01*
X146812000Y-106172000D02*
X146812000Y-105072000D01*
X140882000Y-99187000D02*
X140208000Y-99187000D01*
X140208000Y-99187000D02*
X139827000Y-98806000D01*
D26*
X147940000Y-110544000D02*
X147740000Y-110744000D01*
D25*
X145862000Y-107272000D02*
X145118000Y-107272000D01*
X144526000Y-106680000D02*
X144526000Y-105731000D01*
X145118000Y-107272000D02*
X144526000Y-106680000D01*
X144526000Y-104775000D02*
X144526000Y-104429000D01*
X144526000Y-105731000D02*
X144526000Y-104775000D01*
X142282000Y-102235000D02*
X142332000Y-102235000D01*
X142332000Y-102235000D02*
X144526000Y-104429000D01*
X141182000Y-102235000D02*
X141182000Y-101888000D01*
X141182000Y-101888000D02*
X140932000Y-101638000D01*
X144526000Y-104429000D02*
X142332000Y-102235000D01*
X145862000Y-107272000D02*
X145862000Y-107067000D01*
X140932000Y-100838000D02*
X140932000Y-101638000D01*
X140932000Y-101638000D02*
X141078999Y-101784999D01*
X150026000Y-102616000D02*
X150026000Y-100926000D01*
X150026000Y-100926000D02*
X150495000Y-100457000D01*
X146304000Y-98711000D02*
X148749000Y-98711000D01*
X148749000Y-98711000D02*
X150495000Y-100457000D01*
X146304000Y-98711000D02*
X147554000Y-98711000D01*
X146304000Y-103700000D02*
X146304000Y-102711000D01*
X145862000Y-105072000D02*
X145862000Y-104142000D01*
X145862000Y-104142000D02*
X146304000Y-103700000D01*
X159258000Y-104775000D02*
X157902000Y-104775000D01*
X157902000Y-104775000D02*
X157739000Y-104938000D01*
X151765000Y-109259000D02*
X154139000Y-109259000D01*
X160147000Y-104775000D02*
X159258000Y-104775000D01*
X159258000Y-104775000D02*
X157775000Y-104775000D01*
X160655000Y-105283000D02*
X160147000Y-104775000D01*
X160655000Y-106045000D02*
X160655000Y-105283000D01*
X158496000Y-108204000D02*
X160655000Y-106045000D01*
X155194000Y-108204000D02*
X158496000Y-108204000D01*
X154139000Y-109259000D02*
X155194000Y-108204000D01*
X157775000Y-104775000D02*
X157612000Y-104938000D01*
X157775000Y-104902000D02*
X157612000Y-105065000D01*
X157775000Y-104902000D02*
X157612000Y-105065000D01*
X151765000Y-109259000D02*
X151765000Y-106973000D01*
X151765000Y-106973000D02*
X151726000Y-106934000D01*
X157739000Y-109438000D02*
X155992000Y-109438000D01*
X157612000Y-109438000D02*
X155992000Y-109438000D01*
X155992000Y-109438000D02*
X155865000Y-109565000D01*
X151765000Y-110959000D02*
X154471000Y-110959000D01*
X154471000Y-110959000D02*
X155865000Y-109565000D01*
X147762000Y-107272000D02*
X147762000Y-107823000D01*
X147762000Y-107823000D02*
X148143000Y-108204000D01*
X149987000Y-108712000D02*
X149987000Y-109259000D01*
X148143000Y-108204000D02*
X149479000Y-108204000D01*
X149479000Y-108204000D02*
X149987000Y-108712000D01*
X150864999Y-109728000D02*
X150864999Y-110129001D01*
X150864999Y-110129001D02*
X151694998Y-110959000D01*
X151694998Y-110959000D02*
X151765000Y-110959000D01*
X149987000Y-109259000D02*
X150395999Y-109259000D01*
X150395999Y-109259000D02*
X150864999Y-109728000D01*
X142532000Y-100838000D02*
X142532000Y-99237000D01*
X142532000Y-99237000D02*
X142582000Y-99187000D01*
D27*
G36*
X148844000Y-98806000D02*
X148854006Y-98855410D01*
X148881197Y-98895803D01*
X149135197Y-99149803D01*
X149177211Y-99177666D01*
X149225000Y-99187000D01*
X153744394Y-99187000D01*
X153924000Y-99366606D01*
X153924000Y-101293394D01*
X153744394Y-101473000D01*
X151130000Y-101473000D01*
X151080590Y-101483006D01*
X151040197Y-101510197D01*
X150786197Y-101764197D01*
X150758334Y-101806211D01*
X150749000Y-101854000D01*
X150749000Y-107516394D01*
X150569394Y-107696000D01*
X149574521Y-107696000D01*
X149479000Y-107677000D01*
X149385606Y-107677000D01*
X149225000Y-107516394D01*
X149225000Y-100838000D01*
X149214994Y-100788590D01*
X149187803Y-100748197D01*
X148806803Y-100367197D01*
X148764789Y-100339334D01*
X148717000Y-100330000D01*
X144070606Y-100330000D01*
X143891000Y-100150394D01*
X143891000Y-96897000D01*
X148844000Y-96897000D01*
X148844000Y-98806000D01*
X148844000Y-98806000D01*
G37*
X148844000Y-98806000D02*
X148854006Y-98855410D01*
X148881197Y-98895803D01*
X149135197Y-99149803D01*
X149177211Y-99177666D01*
X149225000Y-99187000D01*
X153744394Y-99187000D01*
X153924000Y-99366606D01*
X153924000Y-101293394D01*
X153744394Y-101473000D01*
X151130000Y-101473000D01*
X151080590Y-101483006D01*
X151040197Y-101510197D01*
X150786197Y-101764197D01*
X150758334Y-101806211D01*
X150749000Y-101854000D01*
X150749000Y-107516394D01*
X150569394Y-107696000D01*
X149574521Y-107696000D01*
X149479000Y-107677000D01*
X149385606Y-107677000D01*
X149225000Y-107516394D01*
X149225000Y-100838000D01*
X149214994Y-100788590D01*
X149187803Y-100748197D01*
X148806803Y-100367197D01*
X148764789Y-100339334D01*
X148717000Y-100330000D01*
X144070606Y-100330000D01*
X143891000Y-100150394D01*
X143891000Y-96897000D01*
X148844000Y-96897000D01*
X148844000Y-98806000D01*
G36*
X156464000Y-102287606D02*
X156464000Y-107389394D01*
X156284394Y-107569000D01*
X153341606Y-107569000D01*
X153162000Y-107389394D01*
X153162000Y-105664000D01*
X153151994Y-105614590D01*
X153124803Y-105574197D01*
X152870803Y-105320197D01*
X152828789Y-105292334D01*
X152781000Y-105283000D01*
X151817606Y-105283000D01*
X151638000Y-105103394D01*
X151638000Y-102287606D01*
X151817606Y-102108000D01*
X156284394Y-102108000D01*
X156464000Y-102287606D01*
X156464000Y-102287606D01*
G37*
X156464000Y-102287606D02*
X156464000Y-107389394D01*
X156284394Y-107569000D01*
X153341606Y-107569000D01*
X153162000Y-107389394D01*
X153162000Y-105664000D01*
X153151994Y-105614590D01*
X153124803Y-105574197D01*
X152870803Y-105320197D01*
X152828789Y-105292334D01*
X152781000Y-105283000D01*
X151817606Y-105283000D01*
X151638000Y-105103394D01*
X151638000Y-102287606D01*
X151817606Y-102108000D01*
X156284394Y-102108000D01*
X156464000Y-102287606D01*
G36*
X148463000Y-101525606D02*
X148463000Y-103452394D01*
X148283394Y-103632000D01*
X146558000Y-103632000D01*
X146508590Y-103642006D01*
X146468197Y-103669197D01*
X146214197Y-103923197D01*
X146186334Y-103965211D01*
X146177000Y-104013000D01*
X146177000Y-104426419D01*
X146153594Y-104542000D01*
X146153594Y-105507800D01*
X146124394Y-105537000D01*
X145467606Y-105537000D01*
X145415000Y-105484394D01*
X145415000Y-104013000D01*
X145404994Y-103963590D01*
X145377803Y-103923197D01*
X145123803Y-103669197D01*
X145081789Y-103641334D01*
X145034000Y-103632000D01*
X144474291Y-103632000D01*
X143891000Y-103048709D01*
X143891000Y-101525606D01*
X144070606Y-101346000D01*
X148283394Y-101346000D01*
X148463000Y-101525606D01*
X148463000Y-101525606D01*
G37*
X148463000Y-101525606D02*
X148463000Y-103452394D01*
X148283394Y-103632000D01*
X146558000Y-103632000D01*
X146508590Y-103642006D01*
X146468197Y-103669197D01*
X146214197Y-103923197D01*
X146186334Y-103965211D01*
X146177000Y-104013000D01*
X146177000Y-104426419D01*
X146153594Y-104542000D01*
X146153594Y-105507800D01*
X146124394Y-105537000D01*
X145467606Y-105537000D01*
X145415000Y-105484394D01*
X145415000Y-104013000D01*
X145404994Y-103963590D01*
X145377803Y-103923197D01*
X145123803Y-103669197D01*
X145081789Y-103641334D01*
X145034000Y-103632000D01*
X144474291Y-103632000D01*
X143891000Y-103048709D01*
X143891000Y-101525606D01*
X144070606Y-101346000D01*
X148283394Y-101346000D01*
X148463000Y-101525606D01*
G36*
X143383000Y-104700606D02*
X143383000Y-109040394D01*
X143203394Y-109220000D01*
X140514606Y-109220000D01*
X140335000Y-109040394D01*
X140335000Y-104700606D01*
X140514606Y-104521000D01*
X143203394Y-104521000D01*
X143383000Y-104700606D01*
X143383000Y-104700606D01*
G37*
X143383000Y-104700606D02*
X143383000Y-109040394D01*
X143203394Y-109220000D01*
X140514606Y-109220000D01*
X140335000Y-109040394D01*
X140335000Y-104700606D01*
X140514606Y-104521000D01*
X143203394Y-104521000D01*
X143383000Y-104700606D01*
G36*
X146431000Y-106986606D02*
X146431000Y-112215394D01*
X146251394Y-112395000D01*
X142419606Y-112395000D01*
X142240000Y-112215394D01*
X142240000Y-110288606D01*
X142419606Y-110109000D01*
X144018000Y-110109000D01*
X144067410Y-110098994D01*
X144107803Y-110071803D01*
X144361803Y-109817803D01*
X144389666Y-109775789D01*
X144399000Y-109728000D01*
X144399000Y-106986606D01*
X144578606Y-106807000D01*
X146251394Y-106807000D01*
X146431000Y-106986606D01*
X146431000Y-106986606D01*
G37*
X146431000Y-106986606D02*
X146431000Y-112215394D01*
X146251394Y-112395000D01*
X142419606Y-112395000D01*
X142240000Y-112215394D01*
X142240000Y-110288606D01*
X142419606Y-110109000D01*
X144018000Y-110109000D01*
X144067410Y-110098994D01*
X144107803Y-110071803D01*
X144361803Y-109817803D01*
X144389666Y-109775789D01*
X144399000Y-109728000D01*
X144399000Y-106986606D01*
X144578606Y-106807000D01*
X146251394Y-106807000D01*
X146431000Y-106986606D01*
G36*
X148143000Y-108731000D02*
X148683394Y-108731000D01*
X148844000Y-108891606D01*
X148844000Y-109982000D01*
X148854006Y-110031410D01*
X148881197Y-110071803D01*
X149135197Y-110325803D01*
X149177211Y-110353666D01*
X149225000Y-110363000D01*
X150315394Y-110363000D01*
X150495000Y-110542606D01*
X150495000Y-112215394D01*
X150315394Y-112395000D01*
X147372606Y-112395000D01*
X147193000Y-112215394D01*
X147193000Y-108891606D01*
X147372606Y-108712000D01*
X148047479Y-108712000D01*
X148143000Y-108731000D01*
X148143000Y-108731000D01*
G37*
X148143000Y-108731000D02*
X148683394Y-108731000D01*
X148844000Y-108891606D01*
X148844000Y-109982000D01*
X148854006Y-110031410D01*
X148881197Y-110071803D01*
X149135197Y-110325803D01*
X149177211Y-110353666D01*
X149225000Y-110363000D01*
X150315394Y-110363000D01*
X150495000Y-110542606D01*
X150495000Y-112215394D01*
X150315394Y-112395000D01*
X147372606Y-112395000D01*
X147193000Y-112215394D01*
X147193000Y-108891606D01*
X147372606Y-108712000D01*
X148047479Y-108712000D01*
X148143000Y-108731000D01*
G36*
X141478000Y-110161606D02*
X141478000Y-112215394D01*
X141298394Y-112395000D01*
X139244606Y-112395000D01*
X139065000Y-112215394D01*
X139065000Y-110161606D01*
X139244606Y-109982000D01*
X141298394Y-109982000D01*
X141478000Y-110161606D01*
X141478000Y-110161606D01*
G37*
X141478000Y-110161606D02*
X141478000Y-112215394D01*
X141298394Y-112395000D01*
X139244606Y-112395000D01*
X139065000Y-112215394D01*
X139065000Y-110161606D01*
X139244606Y-109982000D01*
X141298394Y-109982000D01*
X141478000Y-110161606D01*
M02*
