G04 #@! TF.FileFunction,Soldermask,Top*
%FSLAX46Y46*%
G04 Gerber Fmt 4.6, Leading zero omitted, Abs format (unit mm)*
G04 Created by KiCad (PCBNEW 4.0.6) date 07/28/17 12:18:36*
%MOMM*%
%LPD*%
G01*
G04 APERTURE LIST*
%ADD10C,0.100000*%
%ADD11R,0.650000X1.060000*%
%ADD12C,3.216000*%
%ADD13R,1.651000X1.651000*%
%ADD14C,1.651000*%
%ADD15R,1.100000X1.000000*%
%ADD16R,3.700000X1.200000*%
%ADD17R,1.016000X1.143000*%
%ADD18R,1.000000X1.100000*%
%ADD19R,0.800000X0.800000*%
%ADD20C,0.800000*%
%ADD21R,1.200000X1.200000*%
%ADD22R,1.500000X1.000000*%
%ADD23R,0.600000X0.500000*%
%ADD24R,0.800000X0.150000*%
G04 APERTURE END LIST*
D10*
D11*
X147762000Y-105072000D03*
X146812000Y-105072000D03*
X145862000Y-105072000D03*
X145862000Y-107272000D03*
X147762000Y-107272000D03*
D12*
X141986000Y-105156000D03*
X154686000Y-105156000D03*
D13*
X151257000Y-100457000D03*
D14*
X151257000Y-97917000D03*
D15*
X145962000Y-110871000D03*
X147662000Y-110871000D03*
X150026000Y-104267000D03*
X151726000Y-104267000D03*
X150026000Y-102616000D03*
X151726000Y-102616000D03*
D16*
X146304000Y-102711000D03*
X146304000Y-98711000D03*
D17*
X141986000Y-108585000D03*
X142875000Y-110617000D03*
X141097000Y-110617000D03*
D15*
X150026000Y-106934000D03*
X151726000Y-106934000D03*
D18*
X151765000Y-109259000D03*
X151765000Y-110959000D03*
X149987000Y-109259000D03*
X149987000Y-110959000D03*
D15*
X142582000Y-99187000D03*
X140882000Y-99187000D03*
D19*
X140932000Y-100838000D03*
X142532000Y-100838000D03*
D20*
X159639000Y-105664000D03*
X159639000Y-108688000D03*
D21*
X160789000Y-110838000D03*
X158489000Y-110838000D03*
X160789000Y-103538000D03*
X158489000Y-103538000D03*
D22*
X157739000Y-106438000D03*
X157739000Y-104938000D03*
X157739000Y-109438000D03*
D15*
X145962000Y-109220000D03*
X147662000Y-109220000D03*
D23*
X141182000Y-102235000D03*
X142282000Y-102235000D03*
D24*
X141732000Y-102235000D03*
M02*
