G04 #@! TF.FileFunction,Legend,Bot*
%FSLAX46Y46*%
G04 Gerber Fmt 4.6, Leading zero omitted, Abs format (unit mm)*
G04 Created by KiCad (PCBNEW 4.0.6) date 08/08/17 15:33:48*
%MOMM*%
%LPD*%
G01*
G04 APERTURE LIST*
%ADD10C,0.100000*%
%ADD11C,0.150000*%
%ADD12C,0.127000*%
%ADD13R,1.651000X1.651000*%
%ADD14C,1.651000*%
%ADD15C,0.800000*%
%ADD16C,3.216000*%
G04 APERTURE END LIST*
D10*
D11*
X140286740Y-111653320D02*
X143136620Y-111658400D01*
X148074380Y-98656140D02*
X140106400Y-98658680D01*
X149482000Y-98656000D02*
X148782000Y-98656000D01*
X155802000Y-111656000D02*
X154372000Y-111656000D01*
X146172000Y-111656000D02*
X146912000Y-111656000D01*
X155787000Y-98656000D02*
X152537000Y-98656000D01*
X148082000Y-98656000D02*
X148782000Y-98656000D01*
X152532000Y-98651000D02*
G75*
G03X151672000Y-99511000I0J-860000D01*
G01*
X150347000Y-99516000D02*
G75*
G03X149487000Y-98656000I-860000J0D01*
G01*
X151667000Y-100296000D02*
X151667000Y-101816000D01*
X150347000Y-100286000D02*
X150347000Y-101806000D01*
X150347000Y-101816000D02*
X151667000Y-101816000D01*
X143987000Y-110006000D02*
X143987000Y-110796000D01*
X151667000Y-99546000D02*
X151667000Y-100336000D01*
X146882000Y-111656000D02*
X148122000Y-111656000D01*
X145307000Y-110796000D02*
G75*
G03X146167000Y-111656000I860000J0D01*
G01*
X145307000Y-110006000D02*
X145307000Y-110796000D01*
X145307000Y-108486000D02*
X145307000Y-110006000D01*
X143987000Y-108486000D02*
X143987000Y-110006000D01*
X150347000Y-99516000D02*
X150347000Y-100306000D01*
X143987000Y-110796000D02*
G75*
G02X143127000Y-111656000I-860000J0D01*
G01*
X143987000Y-108486000D02*
X145307000Y-108486000D01*
X143002000Y-107315000D02*
X144145000Y-105156000D01*
X144145000Y-105156000D02*
X143002000Y-102997000D01*
X140462000Y-107315000D02*
X143002000Y-107315000D01*
X140462000Y-102997000D02*
X143002000Y-102997000D01*
X140462000Y-107315000D02*
X139319000Y-105156000D01*
X139319000Y-105156000D02*
X140462000Y-102997000D01*
X156591000Y-105156000D02*
G75*
G03X156591000Y-105156000I-2159000J0D01*
G01*
X155787000Y-98656000D02*
G75*
G02X160787000Y-103656000I0J-5000000D01*
G01*
X160787000Y-106656000D02*
G75*
G02X155787000Y-111656000I-5000000J0D01*
G01*
X160787000Y-105156000D02*
X160787000Y-106656000D01*
X160787000Y-105156000D02*
X160787000Y-103656000D01*
X147377000Y-111656000D02*
X154377000Y-111656000D01*
X135385000Y-103406000D02*
G75*
G02X140135000Y-98656000I4750000J0D01*
G01*
X135385000Y-106656000D02*
X135385000Y-103406000D01*
X140385000Y-111656000D02*
G75*
G02X135385000Y-106656000I0J5000000D01*
G01*
D12*
X142312571Y-113120714D02*
X142494000Y-113120714D01*
X142494000Y-112032143D01*
X142312571Y-112032143D01*
X142022285Y-112576429D02*
X141441714Y-112576429D01*
X141732000Y-112866714D02*
X141732000Y-112286143D01*
X141151428Y-113120714D02*
X140969999Y-113120714D01*
X140969999Y-112032143D01*
X141151428Y-112032143D01*
%LPC*%
D13*
X151257000Y-100457000D03*
D14*
X151257000Y-97917000D03*
D15*
X159194500Y-105791000D03*
X159194500Y-108815000D03*
D16*
X141732000Y-105156000D03*
X154432000Y-105156000D03*
M02*
