M48
INCH,TZ
T1C0.012
T2C0.025
T3C0.035
T4C0.087
%
G90
G05
T1
X48900Y-44050
X48900Y-44350
X51000Y-39350
X51000Y-39700
X51000Y-40050
X51000Y-40400
X51000Y-40750
X52350Y-42550
X52350Y-42850
X52950Y-42500
X52950Y-42900
X53225Y-42700
X53500Y-42500
X53500Y-42900
X54050Y-43825
X54050Y-44175
X54050Y-44525
X54050Y-44875
X54150Y-42650
X54150Y-42950
X54400Y-42825
X54400Y-43100
T2
X55350Y-39575
X55350Y-40075
X55350Y-40575
T3
X56300Y-39600
X56300Y-40600
T4
X49811Y-42047
X54811Y-42047
T0
M30
