G04 #@! TF.FileFunction,Copper,L2,Bot,Signal*
%FSLAX46Y46*%
G04 Gerber Fmt 4.6, Leading zero omitted, Abs format (unit mm)*
G04 Created by KiCad (PCBNEW (2015-05-03 BZR 5637)-product) date 2015 September 09, Wednesday 10:45:35*
%MOMM*%
G01*
G04 APERTURE LIST*
%ADD10C,0.100000*%
%ADD11R,1.651000X1.651000*%
%ADD12C,1.651000*%
%ADD13C,0.600000*%
%ADD14C,1.016000*%
%ADD15C,3.216000*%
%ADD16C,0.025400*%
G04 APERTURE END LIST*
D10*
D11*
X143002000Y-100584000D03*
D12*
X143002000Y-103124000D03*
D13*
X138176000Y-108775500D03*
X138176000Y-109474000D03*
X137541000Y-109093000D03*
X137541000Y-108331000D03*
X124206000Y-112649000D03*
X124206000Y-111887000D03*
X137287000Y-113982500D03*
X137287000Y-113093500D03*
X137287000Y-112204500D03*
X137287000Y-111315500D03*
X129540000Y-103505000D03*
X129540000Y-102616000D03*
X129540000Y-101727000D03*
X129540000Y-100838000D03*
X129540000Y-99949000D03*
X132969000Y-108839000D03*
D14*
X140589000Y-100520500D03*
X140589000Y-103060500D03*
X140589000Y-101790500D03*
D13*
X132969000Y-108077000D03*
X134493000Y-107950000D03*
X135890000Y-107950000D03*
X135191500Y-108458000D03*
X134493000Y-108966000D03*
X135890000Y-108966000D03*
D15*
X126520000Y-106800000D03*
X139220000Y-106800000D03*
D16*
G36*
X145377700Y-114283818D02*
X145309894Y-114624698D01*
X145125966Y-114899966D01*
X144850700Y-115083894D01*
X144509818Y-115151700D01*
X144044367Y-115151700D01*
X144044367Y-101409500D01*
X144044367Y-99758500D01*
X144028631Y-99677398D01*
X143981807Y-99606117D01*
X143911120Y-99558402D01*
X143827500Y-99541633D01*
X142176500Y-99541633D01*
X142095398Y-99557369D01*
X142024117Y-99604193D01*
X141976402Y-99674880D01*
X141959633Y-99758500D01*
X141959633Y-101409500D01*
X141975369Y-101490602D01*
X142022193Y-101561883D01*
X142092880Y-101609598D01*
X142176500Y-101626367D01*
X143827500Y-101626367D01*
X143908602Y-101610631D01*
X143979883Y-101563807D01*
X144027598Y-101493120D01*
X144044367Y-101409500D01*
X144044367Y-115151700D01*
X144008369Y-115151700D01*
X144008369Y-103172986D01*
X143950509Y-102784136D01*
X143913017Y-102693623D01*
X143805181Y-102585701D01*
X143540299Y-102850583D01*
X143540299Y-102320819D01*
X143432377Y-102212983D01*
X143050986Y-102117631D01*
X142662136Y-102175491D01*
X142571623Y-102212983D01*
X142463701Y-102320819D01*
X143002000Y-102859118D01*
X143540299Y-102320819D01*
X143540299Y-102850583D01*
X143266882Y-103124000D01*
X143805181Y-103662299D01*
X143913017Y-103554377D01*
X144008369Y-103172986D01*
X144008369Y-115151700D01*
X143540299Y-115151700D01*
X143540299Y-103927181D01*
X143002000Y-103388882D01*
X142737118Y-103653764D01*
X142737118Y-103124000D01*
X142198819Y-102585701D01*
X142090983Y-102693623D01*
X141995631Y-103075014D01*
X142053491Y-103463864D01*
X142090983Y-103554377D01*
X142198819Y-103662299D01*
X142737118Y-103124000D01*
X142737118Y-103653764D01*
X142463701Y-103927181D01*
X142571623Y-104035017D01*
X142953014Y-104130369D01*
X143341864Y-104072509D01*
X143432377Y-104035017D01*
X143540299Y-103927181D01*
X143540299Y-115151700D01*
X141309824Y-115151700D01*
X141309824Y-101647773D01*
X141200336Y-101382790D01*
X140997777Y-101179877D01*
X140939253Y-101155576D01*
X140996710Y-101131836D01*
X141199623Y-100929277D01*
X141309574Y-100664485D01*
X141309824Y-100377773D01*
X141200336Y-100112790D01*
X140997777Y-99909877D01*
X140732985Y-99799926D01*
X140446273Y-99799676D01*
X140181290Y-99909164D01*
X139978377Y-100111723D01*
X139868426Y-100376515D01*
X139868176Y-100663227D01*
X139977664Y-100928210D01*
X140180223Y-101131123D01*
X140238746Y-101155423D01*
X140181290Y-101179164D01*
X139978377Y-101381723D01*
X139868426Y-101646515D01*
X139868176Y-101933227D01*
X139977664Y-102198210D01*
X140180223Y-102401123D01*
X140317806Y-102458252D01*
X140286367Y-102492985D01*
X140589000Y-102795618D01*
X140891633Y-102492985D01*
X140860187Y-102458245D01*
X140996710Y-102401836D01*
X141199623Y-102199277D01*
X141309574Y-101934485D01*
X141309824Y-101647773D01*
X141309824Y-115151700D01*
X141272242Y-115151700D01*
X141272242Y-103031910D01*
X141231175Y-102825448D01*
X141156515Y-102757867D01*
X140853882Y-103060500D01*
X141156515Y-103363133D01*
X141231175Y-103295552D01*
X141272242Y-103031910D01*
X141272242Y-115151700D01*
X141041016Y-115151700D01*
X141041016Y-106439429D01*
X140891633Y-106077894D01*
X140891633Y-103628015D01*
X140589000Y-103325382D01*
X140324118Y-103590264D01*
X140324118Y-103060500D01*
X140021485Y-102757867D01*
X139946825Y-102825448D01*
X139905758Y-103089090D01*
X139946825Y-103295552D01*
X140021485Y-103363133D01*
X140324118Y-103060500D01*
X140324118Y-103590264D01*
X140286367Y-103628015D01*
X140353948Y-103702675D01*
X140617590Y-103743742D01*
X140824052Y-103702675D01*
X140891633Y-103628015D01*
X140891633Y-106077894D01*
X140764415Y-105770003D01*
X140252690Y-105257385D01*
X139583749Y-104979616D01*
X138859429Y-104978984D01*
X138190003Y-105255585D01*
X137677385Y-105767310D01*
X137399616Y-106436251D01*
X137398984Y-107160571D01*
X137675585Y-107829997D01*
X138187310Y-108342615D01*
X138856251Y-108620384D01*
X139580571Y-108621016D01*
X140249997Y-108344415D01*
X140762615Y-107832690D01*
X141040384Y-107163749D01*
X141041016Y-106439429D01*
X141041016Y-115151700D01*
X136402788Y-115151700D01*
X136402788Y-108864465D01*
X136324899Y-108675958D01*
X136180800Y-108531608D01*
X136003328Y-108457915D01*
X136180042Y-108384899D01*
X136324392Y-108240800D01*
X136402610Y-108052430D01*
X136402788Y-107848465D01*
X136324899Y-107659958D01*
X136180800Y-107515608D01*
X135992430Y-107437390D01*
X135788465Y-107437212D01*
X135599958Y-107515101D01*
X135455608Y-107659200D01*
X135377390Y-107847570D01*
X135377274Y-107979997D01*
X135293930Y-107945390D01*
X135089965Y-107945212D01*
X135005673Y-107980040D01*
X135005788Y-107848465D01*
X134927899Y-107659958D01*
X134783800Y-107515608D01*
X134595430Y-107437390D01*
X134391465Y-107437212D01*
X134202958Y-107515101D01*
X134058608Y-107659200D01*
X133980390Y-107847570D01*
X133980212Y-108051535D01*
X134058101Y-108240042D01*
X134202200Y-108384392D01*
X134379671Y-108458084D01*
X134202958Y-108531101D01*
X134058608Y-108675200D01*
X133980390Y-108863570D01*
X133980212Y-109067535D01*
X134058101Y-109256042D01*
X134202200Y-109400392D01*
X134390570Y-109478610D01*
X134594535Y-109478788D01*
X134783042Y-109400899D01*
X134927392Y-109256800D01*
X135005610Y-109068430D01*
X135005725Y-108936002D01*
X135089070Y-108970610D01*
X135293035Y-108970788D01*
X135377326Y-108935959D01*
X135377212Y-109067535D01*
X135455101Y-109256042D01*
X135599200Y-109400392D01*
X135787570Y-109478610D01*
X135991535Y-109478788D01*
X136180042Y-109400899D01*
X136324392Y-109256800D01*
X136402610Y-109068430D01*
X136402788Y-108864465D01*
X136402788Y-115151700D01*
X128341016Y-115151700D01*
X128341016Y-106439429D01*
X128064415Y-105770003D01*
X127552690Y-105257385D01*
X126883749Y-104979616D01*
X126159429Y-104978984D01*
X125490003Y-105255585D01*
X124977385Y-105767310D01*
X124699616Y-106436251D01*
X124698984Y-107160571D01*
X124975585Y-107829997D01*
X125487310Y-108342615D01*
X126156251Y-108620384D01*
X126880571Y-108621016D01*
X127549997Y-108344415D01*
X128062615Y-107832690D01*
X128340384Y-107163749D01*
X128341016Y-106439429D01*
X128341016Y-115151700D01*
X120666181Y-115151700D01*
X120325301Y-115083894D01*
X120050033Y-114899966D01*
X119866105Y-114624700D01*
X119798300Y-114283818D01*
X119798300Y-99584181D01*
X119885440Y-99146099D01*
X120124426Y-98788429D01*
X120482099Y-98549439D01*
X120920181Y-98462300D01*
X144509818Y-98462300D01*
X144850700Y-98530105D01*
X145125966Y-98714033D01*
X145309894Y-98989301D01*
X145377700Y-99330181D01*
X145377700Y-114283818D01*
X145377700Y-114283818D01*
G37*
X145377700Y-114283818D02*
X145309894Y-114624698D01*
X145125966Y-114899966D01*
X144850700Y-115083894D01*
X144509818Y-115151700D01*
X144044367Y-115151700D01*
X144044367Y-101409500D01*
X144044367Y-99758500D01*
X144028631Y-99677398D01*
X143981807Y-99606117D01*
X143911120Y-99558402D01*
X143827500Y-99541633D01*
X142176500Y-99541633D01*
X142095398Y-99557369D01*
X142024117Y-99604193D01*
X141976402Y-99674880D01*
X141959633Y-99758500D01*
X141959633Y-101409500D01*
X141975369Y-101490602D01*
X142022193Y-101561883D01*
X142092880Y-101609598D01*
X142176500Y-101626367D01*
X143827500Y-101626367D01*
X143908602Y-101610631D01*
X143979883Y-101563807D01*
X144027598Y-101493120D01*
X144044367Y-101409500D01*
X144044367Y-115151700D01*
X144008369Y-115151700D01*
X144008369Y-103172986D01*
X143950509Y-102784136D01*
X143913017Y-102693623D01*
X143805181Y-102585701D01*
X143540299Y-102850583D01*
X143540299Y-102320819D01*
X143432377Y-102212983D01*
X143050986Y-102117631D01*
X142662136Y-102175491D01*
X142571623Y-102212983D01*
X142463701Y-102320819D01*
X143002000Y-102859118D01*
X143540299Y-102320819D01*
X143540299Y-102850583D01*
X143266882Y-103124000D01*
X143805181Y-103662299D01*
X143913017Y-103554377D01*
X144008369Y-103172986D01*
X144008369Y-115151700D01*
X143540299Y-115151700D01*
X143540299Y-103927181D01*
X143002000Y-103388882D01*
X142737118Y-103653764D01*
X142737118Y-103124000D01*
X142198819Y-102585701D01*
X142090983Y-102693623D01*
X141995631Y-103075014D01*
X142053491Y-103463864D01*
X142090983Y-103554377D01*
X142198819Y-103662299D01*
X142737118Y-103124000D01*
X142737118Y-103653764D01*
X142463701Y-103927181D01*
X142571623Y-104035017D01*
X142953014Y-104130369D01*
X143341864Y-104072509D01*
X143432377Y-104035017D01*
X143540299Y-103927181D01*
X143540299Y-115151700D01*
X141309824Y-115151700D01*
X141309824Y-101647773D01*
X141200336Y-101382790D01*
X140997777Y-101179877D01*
X140939253Y-101155576D01*
X140996710Y-101131836D01*
X141199623Y-100929277D01*
X141309574Y-100664485D01*
X141309824Y-100377773D01*
X141200336Y-100112790D01*
X140997777Y-99909877D01*
X140732985Y-99799926D01*
X140446273Y-99799676D01*
X140181290Y-99909164D01*
X139978377Y-100111723D01*
X139868426Y-100376515D01*
X139868176Y-100663227D01*
X139977664Y-100928210D01*
X140180223Y-101131123D01*
X140238746Y-101155423D01*
X140181290Y-101179164D01*
X139978377Y-101381723D01*
X139868426Y-101646515D01*
X139868176Y-101933227D01*
X139977664Y-102198210D01*
X140180223Y-102401123D01*
X140317806Y-102458252D01*
X140286367Y-102492985D01*
X140589000Y-102795618D01*
X140891633Y-102492985D01*
X140860187Y-102458245D01*
X140996710Y-102401836D01*
X141199623Y-102199277D01*
X141309574Y-101934485D01*
X141309824Y-101647773D01*
X141309824Y-115151700D01*
X141272242Y-115151700D01*
X141272242Y-103031910D01*
X141231175Y-102825448D01*
X141156515Y-102757867D01*
X140853882Y-103060500D01*
X141156515Y-103363133D01*
X141231175Y-103295552D01*
X141272242Y-103031910D01*
X141272242Y-115151700D01*
X141041016Y-115151700D01*
X141041016Y-106439429D01*
X140891633Y-106077894D01*
X140891633Y-103628015D01*
X140589000Y-103325382D01*
X140324118Y-103590264D01*
X140324118Y-103060500D01*
X140021485Y-102757867D01*
X139946825Y-102825448D01*
X139905758Y-103089090D01*
X139946825Y-103295552D01*
X140021485Y-103363133D01*
X140324118Y-103060500D01*
X140324118Y-103590264D01*
X140286367Y-103628015D01*
X140353948Y-103702675D01*
X140617590Y-103743742D01*
X140824052Y-103702675D01*
X140891633Y-103628015D01*
X140891633Y-106077894D01*
X140764415Y-105770003D01*
X140252690Y-105257385D01*
X139583749Y-104979616D01*
X138859429Y-104978984D01*
X138190003Y-105255585D01*
X137677385Y-105767310D01*
X137399616Y-106436251D01*
X137398984Y-107160571D01*
X137675585Y-107829997D01*
X138187310Y-108342615D01*
X138856251Y-108620384D01*
X139580571Y-108621016D01*
X140249997Y-108344415D01*
X140762615Y-107832690D01*
X141040384Y-107163749D01*
X141041016Y-106439429D01*
X141041016Y-115151700D01*
X136402788Y-115151700D01*
X136402788Y-108864465D01*
X136324899Y-108675958D01*
X136180800Y-108531608D01*
X136003328Y-108457915D01*
X136180042Y-108384899D01*
X136324392Y-108240800D01*
X136402610Y-108052430D01*
X136402788Y-107848465D01*
X136324899Y-107659958D01*
X136180800Y-107515608D01*
X135992430Y-107437390D01*
X135788465Y-107437212D01*
X135599958Y-107515101D01*
X135455608Y-107659200D01*
X135377390Y-107847570D01*
X135377274Y-107979997D01*
X135293930Y-107945390D01*
X135089965Y-107945212D01*
X135005673Y-107980040D01*
X135005788Y-107848465D01*
X134927899Y-107659958D01*
X134783800Y-107515608D01*
X134595430Y-107437390D01*
X134391465Y-107437212D01*
X134202958Y-107515101D01*
X134058608Y-107659200D01*
X133980390Y-107847570D01*
X133980212Y-108051535D01*
X134058101Y-108240042D01*
X134202200Y-108384392D01*
X134379671Y-108458084D01*
X134202958Y-108531101D01*
X134058608Y-108675200D01*
X133980390Y-108863570D01*
X133980212Y-109067535D01*
X134058101Y-109256042D01*
X134202200Y-109400392D01*
X134390570Y-109478610D01*
X134594535Y-109478788D01*
X134783042Y-109400899D01*
X134927392Y-109256800D01*
X135005610Y-109068430D01*
X135005725Y-108936002D01*
X135089070Y-108970610D01*
X135293035Y-108970788D01*
X135377326Y-108935959D01*
X135377212Y-109067535D01*
X135455101Y-109256042D01*
X135599200Y-109400392D01*
X135787570Y-109478610D01*
X135991535Y-109478788D01*
X136180042Y-109400899D01*
X136324392Y-109256800D01*
X136402610Y-109068430D01*
X136402788Y-108864465D01*
X136402788Y-115151700D01*
X128341016Y-115151700D01*
X128341016Y-106439429D01*
X128064415Y-105770003D01*
X127552690Y-105257385D01*
X126883749Y-104979616D01*
X126159429Y-104978984D01*
X125490003Y-105255585D01*
X124977385Y-105767310D01*
X124699616Y-106436251D01*
X124698984Y-107160571D01*
X124975585Y-107829997D01*
X125487310Y-108342615D01*
X126156251Y-108620384D01*
X126880571Y-108621016D01*
X127549997Y-108344415D01*
X128062615Y-107832690D01*
X128340384Y-107163749D01*
X128341016Y-106439429D01*
X128341016Y-115151700D01*
X120666181Y-115151700D01*
X120325301Y-115083894D01*
X120050033Y-114899966D01*
X119866105Y-114624700D01*
X119798300Y-114283818D01*
X119798300Y-99584181D01*
X119885440Y-99146099D01*
X120124426Y-98788429D01*
X120482099Y-98549439D01*
X120920181Y-98462300D01*
X144509818Y-98462300D01*
X144850700Y-98530105D01*
X145125966Y-98714033D01*
X145309894Y-98989301D01*
X145377700Y-99330181D01*
X145377700Y-114283818D01*
M02*
